<?xml version="1.0" standalone="no"?>
<!DOCTYPE svg PUBLIC "-//W3C//DTD SVG 1.1//EN" "http://www.w3.org/Graphics/SVG/1.1/DTD/svg11.dtd" >
<svg xmlns="http://www.w3.org/2000/svg">
<metadata></metadata>
<defs>
<font id="neusademibold" horiz-adv-x="800" >
<font-face units-per-em="2048" ascent="1536" descent="-512" />
<missing-glyph horiz-adv-x="614" />
<glyph unicode="fi" horiz-adv-x="980" d="M495 1452h64v-139h-25q-66 -1 -99.5 -18.5t-52 -70.5t-18.5 -158v-42h195v-140h-195v-884h-154v884h-141v139h141v68q0 108 20 181t60.5 111t88.5 53t116 16zM720 1345h172v-160h-172v160zM729 1024h154v-1024h-154v1024z" />
<glyph unicode="fl" horiz-adv-x="954" d="M495 1452h64v-139h-28q-49 0 -78 -9.5t-50.5 -36.5t-30.5 -75.5t-9 -128.5l1 -39h195v-140h-195v-884h-154v884h-141v139h141v68q0 108 20 181t60.5 111t88.5 53t116 16zM720 1434h154v-1434h-154v1434z" />
<glyph unicode=" "  horiz-adv-x="614" />
<glyph unicode="&#x09;" horiz-adv-x="614" />
<glyph unicode="&#xa0;" horiz-adv-x="614" />
<glyph unicode="!" horiz-adv-x="376" d="M108 1435h160v-493l-21 -583h-119l-20 582v494zM102 0v171h172v-171h-172z" />
<glyph unicode="&#x22;" horiz-adv-x="575" d="M76 1434h164l-25 -444h-113zM336 1434h164l-25 -444h-114z" />
<glyph unicode="#" horiz-adv-x="1370" d="M1253 811h-241l-50 -230h241l-49 -175h-244l-98 -406h-189l99 406h-232l-98 -406h-189l98 406h-233l51 175h234l50 230h-233l51 175h234l109 448h188l-108 -448h230l110 448h189l-110 -448h241zM773 581l50 230h-231l-51 -230h232z" />
<glyph unicode="$" horiz-adv-x="997" d="M902 996h-174q0 139 -63.5 210t-156.5 71t-153 -57t-60 -163q1 -48 19.5 -85.5t37 -58.5t61.5 -40.5t58.5 -23.5t62.5 -16q12 -4 18 -5q368 -89 368 -409q0 -190 -87 -292.5t-233 -127.5v-101h-186v100q-64 10 -120.5 39t-106 79.5t-78.5 133t-30 187.5h175 q0 -73 21 -129t56.5 -87.5t77.5 -47t88 -15.5q113 0 177.5 63.5t64.5 181.5q0 110 -66 165.5t-204 91.5q-36 9 -63 17.5t-66 25t-68 35.5t-60.5 49.5t-51.5 66t-33 85.5t-13 108q0 172 85 267t215 120v102h186v-101q61 -12 113 -42t95.5 -81.5t68.5 -132.5t25 -183z" />
<glyph unicode="%" horiz-adv-x="1402" d="M102 945v280q0 62 24 108.5t61.5 70t73.5 34.5t69 11q36 0 73 -12t73.5 -36t59.5 -70t23 -106v-280q0 -48 -15.5 -87.5t-40 -63.5t-55.5 -41t-60.5 -23.5t-57.5 -7.5q-33 0 -69 11t-73.5 34t-61.5 69.5t-24 108.5zM1007 1434h132l-744 -1434h-132zM441 942v287 q0 54 -35 81t-76 27q-39 0 -74.5 -26t-35.5 -82v-287q0 -56 35.5 -82t74.5 -26q42 1 76.5 27.5t34.5 80.5zM844 209v280q0 62 24 108.5t61.5 69.5t73.5 34t69 11q36 0 73 -11.5t73 -36t59 -70t23 -105.5v-280q0 -60 -23 -105.5t-59 -69.5t-73 -36t-73 -12q-33 0 -69 11 t-73.5 34t-61.5 69.5t-24 108.5zM1182 205v287q0 54 -34.5 81t-75.5 27q-39 0 -75 -26t-36 -82v-287q0 -55 35.5 -81t75.5 -27q41 0 75.5 27t34.5 81z" />
<glyph unicode="&#x26;" horiz-adv-x="1122" d="M1052 818v-172h-77v-234q0 -101 -23 -177.5t-61.5 -123t-95.5 -75.5t-116 -40t-133 -12h-31q-91 0 -169 23.5t-141 71t-99 128.5t-37 188v25q0 118 54 200.5t144 111.5q-82 29 -134.5 107.5t-52.5 191.5v24q1 88 24.5 157.5t63 113.5t94 73t112.5 41t124 12h156v-175 h-156q-104 0 -168.5 -54t-64.5 -170v-13q0 -110 69.5 -166t175.5 -56h284v299h181v-299h77zM794 418v228h-284q-120 0 -188 -60t-69 -175v-14q0 -109 75.5 -174t190.5 -65h20q60 0 104 12t79.5 40.5t53.5 80t18 127.5z" />
<glyph unicode="'" horiz-adv-x="368" d="M102 1434h164l-25 -444h-113z" />
<glyph unicode="(" horiz-adv-x="577" d="M360 1536h114v-175h-82q-43 0 -74 -33t-31 -83v-1241q0 -50 31 -82.5t74 -32.5h82v-175h-114q-114 0 -186 71t-72 193v1294q0 122 72 193t186 71z" />
<glyph unicode=")" horiz-adv-x="577" d="M102 1536h115q114 0 185.5 -71t71.5 -193v-1294q0 -122 -71.5 -193t-185.5 -71h-115v175h83q43 0 74 32.5t31 82.5v1241q0 50 -31 83t-74 33h-83v175z" />
<glyph unicode="*" horiz-adv-x="919" d="M381 1467h164l-8 -264l248 89l52 -156l-255 -73l162 -211l-132 -95l-149 219l-149 -219l-132 95l162 211l-255 73l51 156l249 -89z" />
<glyph unicode="+" horiz-adv-x="1116" d="M466 1041h185v-363h363v-176h-362v-363h-186v363h-364v176h364v363z" />
<glyph unicode="," horiz-adv-x="376" d="M102 171h172v-171l-65 -169h-64l30 169h-73v171z" />
<glyph unicode="-" horiz-adv-x="712" d="M102 638h508v-176h-508v176z" />
<glyph unicode="." horiz-adv-x="376" d="M102 0v171h172v-171h-172z" />
<glyph unicode="/" horiz-adv-x="878" d="M68 0l555 1434h189l-556 -1434h-188z" />
<glyph unicode="0" horiz-adv-x="1011" d="M86 479v396q0 110 24 196.5t63.5 141.5t95 91.5t113 51t122.5 14.5q64 0 121.5 -14.5t113 -50.5t96 -91t65 -142t24.5 -197v-396q0 -110 -24.5 -197t-65 -142t-96 -91t-113 -50.5t-121.5 -14.5q-65 0 -122.5 14.5t-113 51t-95 91.5t-63.5 141.5t-24 196.5zM740 496v363 q0 178 -66 257.5t-170 79.5q-106 0 -169.5 -79t-63.5 -258v-363q0 -179 63.5 -258.5t169.5 -79.5q104 0 170 80t66 258z" />
<glyph unicode="1" horiz-adv-x="454" d="M368 1352v-1352h-186v1177h-120v175h306z" />
<glyph unicode="2" horiz-adv-x="954" d="M473 1369h26q56 -1 110 -14.5t106 -45.5t91 -79t63 -119t24 -160v-5q0 -82 -31.5 -152t-82 -120.5t-112 -96t-125.5 -88.5t-119 -87t-95 -102t-51 -124h604v-176h-818v96q0 80 22 149.5t59.5 121t86 97.5t102 83t106.5 72t101.5 70.5t86 73t59.5 84.5t22 100 q0 122 -64.5 184.5t-148.5 62.5h-14q-83 -2 -148 -62.5t-84 -182.5h-186l2 15q11 107 51.5 187.5t99.5 126t123.5 67.5t133.5 24z" />
<glyph unicode="3" horiz-adv-x="964" d="M473 1370h28q51 0 102.5 -12t104 -39.5t92.5 -68.5t65.5 -105t26.5 -143v-25q0 -104 -53 -180t-134 -105q90 -29 144.5 -110t54.5 -191v-23q0 -96 -35 -171.5t-93 -120.5t-127.5 -68.5t-146.5 -23.5h-29q-70 0 -136 22.5t-125.5 68.5t-99.5 127.5t-49 188.5l-1 9h180 q8 -65 32 -114t59 -75.5t72 -39t78 -12.5h18q90 1 154 57.5t64 151.5v12q0 107 -67.5 166t-183.5 59h-117v172h117q102 0 170.5 53.5t68.5 157.5v12q0 48 -20.5 87t-52.5 61.5t-67 34.5t-67 12h-18q-83 -1 -150 -57t-86 -171h-182l1 12q9 82 38 148.5t69 110.5t91.5 74 t103.5 43.5t106 14.5z" />
<glyph unicode="4" horiz-adv-x="1001" d="M940 453v-174h-114v-279h-185v279h-570v208l366 873h184l-364 -907h384v571h185v-571h114z" />
<glyph unicode="5" horiz-adv-x="970" d="M123 1360h698v-174h-513v-361l141 3q141 0 190 -12q135 -29 203 -131t68 -240v-82q-1 -93 -36 -167.5t-92.5 -119t-126.5 -68t-145 -24.5h-31q-70 0 -136 22.5t-125.5 68t-99.5 126.5t-49 187l-1 12h180q8 -65 32 -114t58.5 -76t72 -39.5t78.5 -12.5h19q90 1 153.5 60 t63.5 169v69q0 215 -267 215h-335v689z" />
<glyph unicode="6" horiz-adv-x="976" d="M68 419v457q0 110 25 197t66 142t97.5 91t115 51t123.5 15q58 0 112 -12t107.5 -42t93.5 -74.5t65.5 -116t26.5 -160.5h-185q-1 118 -65 174t-155 56q-110 0 -179.5 -77t-69.5 -254v-182q77 132 241 133h65q81 1 145 -24.5t103.5 -67t65 -98t35.5 -112.5t10 -116 q0 -61 -11 -117.5t-39 -111.5t-70 -95.5t-110.5 -65.5t-154.5 -25h-72q-183 2 -283 114.5t-103 320.5zM457 158h64q105 1 155 69.5t50 171.5t-50 173t-155 70h-64q-54 0 -94.5 -20.5t-64 -55.5t-34.5 -77t-11 -90q0 -103 50 -171.5t154 -69.5z" />
<glyph unicode="7" horiz-adv-x="933" d="M66 1360h797v-142l-517 -1218h-188l504 1185h-596v175z" />
<glyph unicode="8" horiz-adv-x="980" d="M463 1370h55q157 0 273 -104t117 -262v-24q0 -100 -50.5 -174.5t-136.5 -115.5q95 -38 147 -115t52 -182v-23q0 -168 -111.5 -276.5t-289.5 -108.5h-55q-178 0 -289.5 108.5t-111.5 276.5v23q1 105 52 181.5t146 114.5q-87 41 -137.5 116t-50.5 175v24q1 158 117 262 t273 104zM723 986v12q0 56 -22 97t-56 61.5t-67 29.5t-65 9h-46q-32 0 -64.5 -9t-66.5 -29.5t-56 -61.5t-22 -97v-12q0 -56 20 -96.5t53.5 -61.5t70 -30.5t77.5 -9.5h22q42 0 78.5 9.5t70 30.5t53.5 61.5t20 96.5zM736 378v13q0 114 -64.5 168t-169.5 54h-22 q-105 0 -169 -54t-64 -168v-13q1 -111 65.5 -164.5t155.5 -53.5h46q91 0 156 53.5t66 164.5z" />
<glyph unicode="9" horiz-adv-x="966" d="M905 936v-457q0 -110 -25 -196.5t-66 -141.5t-97.5 -91.5t-115 -51t-123.5 -14.5q-58 0 -112 12t-107.5 41.5t-93.5 74.5t-65.5 116t-26.5 160h185q1 -118 65.5 -174t154.5 -56q111 0 179.5 77.5t68.5 254.5v182q-75 -132 -240 -133h-66q-81 -1 -145 24.5t-103 66.5 t-64.5 98t-35.5 112.5t-10 115.5q0 61 11 117.5t39 112t70 95.5t110.5 65.5t154.5 25.5h71q183 -2 283.5 -115t103.5 -321zM515 1197h-63q-105 -1 -155.5 -69.5t-50.5 -171.5t50.5 -172.5t155.5 -69.5h63q54 0 94.5 20t64 55t34.5 77t11 90q0 103 -50 171.5t-154 69.5z" />
<glyph unicode=":" horiz-adv-x="376" d="M102 690v170h172v-170h-172zM102 0v171h172v-171h-172z" />
<glyph unicode=";" horiz-adv-x="376" d="M102 860h172v-170h-172v170zM102 0v171h172v-171l-65 -169h-64l30 169h-73z" />
<glyph unicode="&#x3c;" horiz-adv-x="970" d="M102 670l767 411v-183l-463 -262l463 -262v-182l-767 410v68z" />
<glyph unicode="=" horiz-adv-x="1116" d="M102 887h913v-176h-913v176zM102 535h913v-176h-913v176z" />
<glyph unicode="&#x3e;" horiz-adv-x="970" d="M102 898v183l767 -411v-68l-767 -410v182l464 262z" />
<glyph unicode="?" horiz-adv-x="1034" d="M508 1445h27q57 0 111 -13.5t106.5 -45.5t92 -78.5t63.5 -119t24 -161.5v-4q0 -80 -21.5 -140.5t-55 -97t-74 -66t-81.5 -55t-74.5 -54.5t-54.5 -75t-21 -107h-156q0 80 19.5 140.5t50.5 97.5t69 66.5t76 55t69 54.5t50.5 74.5t19.5 105.5q0 122 -64.5 185t-148.5 63h-14 q-83 -2 -148.5 -62.5t-84.5 -182.5h-186l2 11q11 107 51 188.5t98 127t122 68.5t133 25zM387 171h172v-171h-172v171z" />
<glyph unicode="@" horiz-adv-x="1638" d="M1091 -281h-297q-363 0 -527.5 204t-164.5 633q-2 418 169 611t554 192q131 0 235.5 -19.5t178.5 -52t127.5 -85t85.5 -110t51 -136.5t25.5 -154.5t6.5 -173.5v-328q0 -120 -74 -197.5t-206 -77.5q-171 -1 -235 123q-69 -147 -237 -147q-42 0 -80.5 10.5t-76 37 t-64.5 66.5t-43.5 103.5t-16.5 143.5v338q0 99 24.5 172t66.5 112.5t89 57.5t101 18q160 0 230 -132l18 114h111v-742q0 -67 23.5 -100.5t88.5 -33.5q61 0 94 35.5t33 102.5v335q0 63 -2.5 109.5t-9.5 99.5t-19.5 92t-33.5 79.5t-50 68.5t-70.5 54t-94 41.5t-121.5 25 t-152 9.5q-164 0 -272.5 -34.5t-176.5 -115t-96.5 -203.5t-28.5 -309q0 -180 27 -306t89.5 -215.5t167 -132t257.5 -42.5h296v-141zM656 624v-187q0 -86 12.5 -145t35.5 -91.5t51.5 -46t67.5 -13.5q81 0 123.5 65t41.5 231v187q0 86 -12.5 146t-36 92t-51.5 45.5t-66 13.5 q-37 0 -65.5 -13.5t-52 -45.5t-36 -92t-12.5 -146z" />
<glyph unicode="A" horiz-adv-x="1079" d="M814 0l-99 396h-351l-100 -396h-180l341 1434h227l343 -1434h-181zM387 578h304l-152 643z" />
<glyph unicode="B" horiz-adv-x="958" d="M112 1434h348q78 0 148.5 -19t130.5 -57.5t95.5 -106t35.5 -155.5v-64q0 -107 -52 -180t-140 -110q107 -37 166 -119.5t59 -203.5v-57q0 -174 -115 -268t-315 -94h-361v1434zM694 1027v24q0 105 -68.5 156t-168.5 51h-165v-439h165q103 0 170 52t67 156zM720 401v26 q0 111 -66.5 168.5t-184.5 57.5h-177v-479h177q118 0 184.5 57.5t66.5 169.5z" />
<glyph unicode="C" horiz-adv-x="993" d="M110 479v477q0 110 24 197t64 142t95 91t112.5 51t122.5 15q78 0 146 -23.5t127.5 -75t96 -146.5t40.5 -224v-37h-181l-1 33q-8 156 -69.5 227t-158.5 71q-106 0 -169.5 -79t-63.5 -258v-444q0 -179 63.5 -258.5t169.5 -79.5q96 0 157 70t71 225l1 37h181v-35 q-3 -105 -27.5 -187.5t-64 -134.5t-92.5 -86.5t-108.5 -48.5t-117.5 -14q-65 0 -122.5 14.5t-113 51t-95 91.5t-63.5 141.5t-24 196.5z" />
<glyph unicode="D" horiz-adv-x="1007" d="M112 1434h377q64 0 121 -13.5t112 -49t94.5 -90t64 -142.5t24.5 -201v-442q0 -113 -24.5 -201t-64 -142.5t-94.5 -90t-112 -49t-121 -13.5h-377v1434zM724 513v409q0 178 -65.5 257.5t-169.5 79.5h-197v-1084h197q104 0 169.5 80t65.5 258z" />
<glyph unicode="E" horiz-adv-x="788" d="M732 1259h-440v-440h420v-174h-420v-470h440v-175h-620v1434h620v-175z" />
<glyph unicode="F" horiz-adv-x="772" d="M716 1259h-424v-460h404v-174h-404v-625h-180v1434h604v-175z" />
<glyph unicode="G" horiz-adv-x="1042" d="M110 479v477q0 110 23.5 197t63 142t93.5 91t111.5 51t122.5 15q63 0 119 -14t109.5 -49.5t93 -89t64 -138.5t25.5 -193v-21h-176v14q-5 166 -69.5 241t-165.5 75q-106 0 -170 -79t-64 -258v-444q0 -179 64 -258.5t170 -79.5q49 0 89.5 17t74 53.5t52.5 103.5t19 158v118 h-225v175h402v-304q0 -110 -24 -197t-63 -142t-93.5 -91t-111 -50.5t-120.5 -14.5q-65 0 -122.5 14.5t-111.5 51t-93.5 91.5t-63 141.5t-23.5 196.5z" />
<glyph unicode="H" horiz-adv-x="999" d="M708 1434h180v-1434h-180v645h-416v-645h-180v1434h180v-615h416v615z" />
<glyph unicode="I" horiz-adv-x="409" d="M112 0v1434h186v-1434h-186z" />
<glyph unicode="J" horiz-adv-x="665" d="M374 1434h181v-955q0 -106 -22.5 -191t-59.5 -140t-88.5 -92t-105 -53.5t-112.5 -18.5h-83v174h49q50 2 91 20.5t76 56t54.5 104.5t19.5 157v938z" />
<glyph unicode="K" horiz-adv-x="1034" d="M950 0h-213l-439 643v-643h-186v1434h186v-607l403 607h208l-449 -702z" />
<glyph unicode="L" d="M292 175h424v-175h-604v1434h180v-1259z" />
<glyph unicode="M" horiz-adv-x="1292" d="M962 1434h219v-1434h-175v1005l-304 -1005h-117l-304 1005v-1005h-175v1434h219l319 -1062z" />
<glyph unicode="N" horiz-adv-x="1036" d="M754 1434h175v-1434h-177l-470 1023v-1023h-176v1434h178l470 -1023v1023z" />
<glyph unicode="O" horiz-adv-x="1034" d="M98 479v477q0 110 24 197t64 142t95 91t112.5 51t122.5 15q64 0 121.5 -14.5t113 -50.5t96 -91t65 -142.5t24.5 -197.5v-477q0 -110 -24.5 -197t-65 -142t-96 -91t-113 -50.5t-121.5 -14.5q-65 0 -122.5 14.5t-113 51t-95 91.5t-63.5 141.5t-24 196.5zM751 496v444 q0 178 -65.5 257.5t-169.5 79.5q-106 0 -169.5 -79t-63.5 -258v-444q0 -179 63.5 -258.5t169.5 -79.5q104 0 169.5 80t65.5 258z" />
<glyph unicode="P" horiz-adv-x="976" d="M112 1433h321q66 0 126.5 -11.5t119 -39t101 -70t68.5 -108.5t26 -150v-81q0 -79 -24.5 -143t-64.5 -106t-95 -71.5t-113 -43t-121 -15.5h-164v-594h-180v1433zM698 999v30q0 65 -20.5 112t-56 72t-76 36t-87.5 11h-166v-492h166q47 0 87 11.5t76 36.5t56.5 72t20.5 111z " />
<glyph unicode="Q" horiz-adv-x="1110" d="M1000 159v-175h-446h-30q-65 0 -122.5 14.5t-111.5 51t-93.5 91.5t-63 141.5t-23.5 196.5v477q0 110 23.5 197t63 142t93.5 91t111.5 51t122.5 15q63 0 120.5 -14.5t112 -50.5t94.5 -91t64 -142.5t24 -197.5v-477q0 -197 -76 -320h137zM290 940v-444q0 -179 64 -258.5 t170 -79.5q1 0 2 0.5t2 0.5h11q99 6 159.5 85.5t60.5 251.5v444q0 178 -65.5 257.5t-169.5 79.5q-106 0 -170 -79t-64 -258z" />
<glyph unicode="R" horiz-adv-x="989" d="M112 1433h333q66 0 126.5 -11t119 -39t101 -70t68.5 -108.5t26 -150.5v-69q0 -128 -64.5 -208t-167.5 -116l252 -661h-191l-224 606h-199v-606h-180v1433zM709 1011v18q0 65 -20.5 112t-56 72t-75.5 36t-87 11h-178v-480h178q47 0 87 11.5t75.5 36.5t56 71.5t20.5 111.5z " />
<glyph unicode="S" horiz-adv-x="997" d="M79 437h176q0 -73 21 -129t56.5 -87.5t77 -47t87.5 -15.5q114 0 178 61t64 178q0 49 -12.5 87t-33.5 64.5t-57 47.5t-74 35t-92 28q-36 9 -62.5 17.5t-66.5 25t-68.5 35t-60.5 49t-52 66t-33 86t-13 109.5q0 88 22.5 158.5t60 116t89.5 75.5t106.5 42.5t115.5 12.5 q60 0 114.5 -14t106.5 -48t89.5 -85t60.5 -130.5t23 -178.5h-174q0 139 -63.5 210t-156.5 71t-153 -57t-60 -163q1 -26 6.5 -49.5t12.5 -41.5t21.5 -34t25 -27t31 -22t32 -16.5t35 -13t32.5 -10t32.5 -8.5t28.5 -7q193 -47 280.5 -151t87.5 -264q0 -95 -22.5 -169.5 t-61 -122.5t-93.5 -79.5t-115.5 -44.5t-130.5 -13q-62 0 -119.5 14t-112.5 47.5t-95.5 84t-65 129.5t-25.5 178z" />
<glyph unicode="T" horiz-adv-x="905" d="M822 1434v-175h-279v-1259h-180v1259h-279v175h738z" />
<glyph unicode="U" horiz-adv-x="1040" d="M292 488v946h-180v-963q0 -109 23.5 -194.5t61.5 -139.5t92 -89t111 -49.5t122 -14.5q64 0 120.5 14t111 49t93.5 89t63 140t24 195v963h-180v-946q0 -174 -64 -252t-168 -78q-105 0 -167.5 77.5t-62.5 252.5z" />
<glyph unicode="V" horiz-adv-x="1079" d="M814 1434h183l-342 -1434h-230l-341 1434h182l274 -1147z" />
<glyph unicode="W" horiz-adv-x="1622" d="M1356 1434h183l-298 -1434h-210l-220 1000l-221 -1000h-210l-296 1434h182l230 -1129l230 1129h170l230 -1129z" />
<glyph unicode="X" horiz-adv-x="1042" d="M952 1434l-313 -706l321 -728h-189l-248 549l-251 -549h-188l319 726l-310 708h188l241 -540l241 540h189z" />
<glyph unicode="Y" horiz-adv-x="1054" d="M782 1434h190l-354 -856v-578h-186v577l-348 857h188l253 -650z" />
<glyph unicode="Z" horiz-adv-x="1005" d="M277 176h649v-176h-847v149l640 1110h-624v175h819v-153z" />
<glyph unicode="[" horiz-adv-x="522" d="M421 1360h-133v-1470h133v-177h-319v1823h319v-176z" />
<glyph unicode="\" horiz-adv-x="878" d="M68 1434h188l556 -1434h-188z" />
<glyph unicode="]" horiz-adv-x="522" d="M102 1536h319v-1823h-319v177h134v1470h-134v176z" />
<glyph unicode="^" horiz-adv-x="968" d="M102 877l383 537l382 -537h-138l-245 351l-244 -351h-138z" />
<glyph unicode="_" horiz-adv-x="1052" d="M102 -84h848v-176h-848v176z" />
<glyph unicode="`" horiz-adv-x="530" d="M112 1454h189l118 -287h-126z" />
<glyph unicode="a" horiz-adv-x="798" d="M603 1024h112v-1024h-112l-17 119q-70 -135 -231 -135q-54 0 -101 18t-89 57.5t-66.5 112.5t-24.5 172v338q0 99 24.5 172t66.5 112.5t89 57.5t101 18q160 0 230 -131zM228 606v-186q0 -86 12.5 -145.5t36 -91.5t52 -46t67.5 -14t67.5 13.5t51.5 46t34.5 92t11.5 145.5 v186q0 166 -43.5 231.5t-122.5 65.5q-37 0 -65.5 -13.5t-52.5 -45.5t-36.5 -92t-12.5 -146z" />
<glyph unicode="b" horiz-adv-x="802" d="M241 1434v-507q65 115 211 115q42 0 80 -10.5t74.5 -37t63 -66.5t42.5 -103t16 -143v-338q0 -80 -16 -143t-42.5 -103t-63 -66.5t-74.5 -37t-80 -10.5q-163 0 -234 137l-19 -121h-111v1434h153zM575 420v186q0 86 -12.5 146t-36.5 92t-52.5 45.5t-65.5 13.5 q-38 0 -66 -13.5t-51.5 -45.5t-36 -92t-12.5 -146v-186q0 -86 11.5 -145.5t34.5 -92t51.5 -46t67.5 -13.5t67.5 14t52 46t36 91.5t12.5 145.5z" />
<glyph unicode="c" horiz-adv-x="782" d="M75 344v338q0 79 18.5 142t49.5 103t73 66.5t85.5 37.5t91.5 11q60 0 112.5 -17.5t99.5 -55t75.5 -107.5t30.5 -165v-41h-150q-5 247 -167 247q-38 0 -66.5 -13.5t-52 -45.5t-35.5 -92t-12 -146v-186q1 -166 43.5 -231.5t123.5 -65.5q162 0 166 247h150v-39 q-2 -95 -30.5 -165.5t-75.5 -108.5t-99.5 -55.5t-112.5 -17.5q-48 0 -91.5 11t-85.5 37.5t-73 66.5t-49.5 103t-18.5 142z" />
<glyph unicode="d" horiz-adv-x="798" d="M561 1434h154v-1434h-112l-18 121q-71 -137 -234 -137q-42 0 -80 10.5t-74.5 37t-63 66.5t-42.5 103t-16 143v338q0 80 16 143t42.5 103t63 66.5t74.5 37t80 10.5q145 0 210 -115v507zM228 606v-186q0 -86 12.5 -145.5t36 -91.5t52 -46t67.5 -14t67.5 13.5t51.5 46 t34.5 92t11.5 145.5v186q0 166 -43.5 231.5t-122.5 65.5q-37 0 -65.5 -13.5t-52.5 -45.5t-36.5 -92t-12.5 -146z" />
<glyph unicode="e" horiz-adv-x="784" d="M75 344l-1 338q0 98 28 171t75.5 112.5t101 58t114.5 18.5q48 0 91.5 -10.5t86 -37t73.5 -66.5t50 -103t19 -143v-231h-485v-77q0 -139 44 -195t123 -56q156 0 165 212h153q-1 -96 -30 -167.5t-76.5 -109.5t-100.5 -56t-113 -18q-48 0 -91.5 11t-85.5 37.5t-73 66.5 t-49.5 103t-18.5 142zM559 567v94q-1 242 -165 242q-165 0 -166 -243v-93h331z" />
<glyph unicode="f" horiz-adv-x="626" d="M493 1452h66v-139h-29q-65 -1 -98 -19t-51 -72.5t-18 -160.5l1 -37h195v-140h-195v-884h-154v884h-141v139h141v68q0 87 14 151t37.5 103.5t60.5 63.5t77 33t94 10z" />
<glyph unicode="g" d="M75 360l-1 322q0 99 24 172t65 112.5t87.5 57.5t100.5 18q162 0 234 -134l18 117h112v-1022q-1 -97 -29 -169t-75.5 -111t-101 -57t-113.5 -18q-109 0 -195 58.5t-112 186.5h157q35 -106 149 -106q78 0 122 53t44 183v95q-65 -118 -210 -118q-42 0 -80 10.5t-74.5 37 t-63 66.5t-42.5 103t-16 143zM561 429v177q1 165 -42.5 231t-122.5 66q-51 0 -86 -24t-58.5 -92t-23.5 -181v-177q0 -165 44 -231t123 -66q38 0 66.5 14t52 46t35.5 91.5t12 145.5z" />
<glyph unicode="h" horiz-adv-x="813" d="M246 1434v-512q64 120 210 120q54 0 100.5 -18t87.5 -57.5t65 -112.5t24 -172v-682h-154v606q0 86 -12.5 146t-36.5 92t-52.5 45.5t-65.5 13.5q-77 0 -121.5 -58t-44.5 -201v-644h-154v1434h154z" />
<glyph unicode="i" horiz-adv-x="352" d="M92 1185v160h172v-160h-172zM102 0v1024h153v-1024h-153z" />
<glyph unicode="j" horiz-adv-x="532" d="M275 1344h170v-157h-170v157zM283 1024h154v-1017q0 -109 -20 -182t-60 -111t-88.5 -53t-117.5 -15h-63v139h26q68 1 102 20.5t50.5 76.5t16.5 168v974z" />
<glyph unicode="k" horiz-adv-x="763" d="M698 0h-162l-296 443v-443h-153v1434h153v-826l279 416h162l-305 -499z" />
<glyph unicode="l" horiz-adv-x="325" d="M92 0v1434h154v-1434h-154z" />
<glyph unicode="m" horiz-adv-x="1290" d="M199 1024l21 -119q71 137 231 137q79 0 143 -39.5t96 -126.5q33 83 97.5 124.5t147.5 41.5q42 0 80 -10.5t74.5 -37t63 -66.5t42.5 -103t16 -143v-682h-153v606q0 86 -12.5 146t-36.5 92t-52.5 45.5t-65.5 13.5q-150 0 -164 -197v-706h-153v606q0 86 -12.5 146t-36.5 92 t-52.5 45.5t-65.5 13.5q-166 0 -166 -247v-656h-153v1024h111z" />
<glyph unicode="n" horiz-adv-x="808" d="M199 1024l21 -119q71 137 232 137q42 0 80 -10.5t74.5 -37t63 -66.5t42.5 -103t16 -143v-682h-153v606q0 86 -12.5 146t-36.5 92t-52.5 45.5t-65.5 13.5q-77 0 -122 -58t-45 -201v-644h-153v1024h111z" />
<glyph unicode="o" horiz-adv-x="788" d="M75 344v338q0 79 18.5 142t49.5 103t73 66.5t85.5 37.5t91.5 11t92 -10.5t86.5 -37t73.5 -66.5t50 -103t19 -143v-338q0 -80 -19 -143t-50 -103t-73.5 -66.5t-86.5 -37t-92 -10.5t-91.5 11t-85.5 37.5t-73 66.5t-49.5 103t-18.5 142zM561 420v186q0 165 -45 231t-122 66 q-38 0 -66.5 -13.5t-52 -45.5t-35.5 -92t-12 -146v-186q1 -166 43.5 -231.5t123.5 -65.5q79 0 123 66t43 231z" />
<glyph unicode="p" d="M198 1025l18 -121q71 137 234 137q54 0 100.5 -18t87.5 -57.5t65 -112.5t24 -172v-338q0 -99 -24 -172t-65 -112.5t-87.5 -58t-100.5 -18.5q-144 0 -210 116v-432h-153v1359h111zM573 418v187q0 86 -12.5 145.5t-36 91.5t-52 46t-67.5 14t-67.5 -13.5t-51 -46.5t-34 -92 t-11.5 -145v-187q0 -86 12 -145.5t35.5 -91.5t51.5 -45.5t66 -13.5q37 0 65.5 13.5t52.5 45t36.5 91.5t12.5 146z" />
<glyph unicode="q" horiz-adv-x="798" d="M603 1025h112v-1359h-154v432q-66 -116 -210 -116q-54 0 -100.5 18.5t-87.5 58t-64.5 112.5t-23.5 172v338q0 80 16 143t42.5 103t63 66.5t74.5 37t80 10.5q163 0 234 -137zM228 605v-187q0 -86 12.5 -146t36.5 -91.5t52.5 -45t65.5 -13.5q79 0 122.5 65t43.5 231v187 q0 86 -11.5 145.5t-34.5 92t-51.5 46t-67.5 13.5t-67.5 -14t-52 -46t-36 -91.5t-12.5 -145.5z" />
<glyph unicode="r" horiz-adv-x="550" d="M199 1024l26 -146q42 80 110.5 122t150.5 42v-138q-113 0 -178.5 -75t-66.5 -232v-597h-153v1024h111z" />
<glyph unicode="s" horiz-adv-x="763" d="M215 311v-21q3 -88 51 -127.5t116 -39.5q77 0 122 38t45 120q0 85 -47.5 129.5t-144.5 69.5q-273 60 -273 280q0 142 85 212t217 70q79 0 145.5 -31t111.5 -100.5t48 -167.5v-20h-154v19q-4 84 -46.5 122.5t-103.5 38.5q-150 0 -150 -134q1 -38 17 -66.5t45.5 -46.5 t51 -26.5t54.5 -17.5q162 -39 229.5 -120.5t67.5 -202.5q0 -154 -88.5 -229.5t-231.5 -75.5q-58 0 -113 18.5t-101 54t-75 95t-31 134.5v25h153z" />
<glyph unicode="t" horiz-adv-x="626" d="M363 886v-490q0 -91 8 -144.5t30 -83t51 -38.5t81 -10h26v-138h-64q-69 0 -116.5 14.5t-88 52.5t-60.5 113.5t-20 190.5v533h-141v138h141v313h153v-313h196v-138h-196z" />
<glyph unicode="u" d="M567 1024h154v-1024h-112l-20 119q-71 -137 -232 -137q-54 0 -100.5 18t-87.5 57.5t-65 112.5t-24 172v682h154v-606q0 -86 12.5 -146t36.5 -92t52.5 -45.5t65.5 -13.5q77 0 121.5 58t44.5 201v644z" />
<glyph unicode="v" horiz-adv-x="901" d="M681 1024h155l-296 -1023h-177l-297 1023h155l230 -788z" />
<glyph unicode="w" horiz-adv-x="1335" d="M1115 1024h155l-235 -1024h-185l-182 727l-182 -727h-185l-235 1024h155l183 -814l197 814h133l197 -814z" />
<glyph unicode="x" horiz-adv-x="827" d="M757 1024l-226 -504l231 -520h-159l-189 391l-189 -391h-159l231 518l-225 506h160l182 -416l183 416h160z" />
<glyph unicode="y" horiz-adv-x="772" d="M553 1025h153v-1037q-3 -93 -31.5 -161.5t-75.5 -106t-99.5 -55t-111.5 -17.5q-51 0 -97.5 12.5t-90 40t-75.5 76.5t-45 116h158q35 -106 149 -106q77 0 121.5 53t44.5 182v97q-65 -119 -211 -119q-42 0 -80 10.5t-74.5 37t-63 66.5t-42.5 103t-16 143v664h153v-588 q0 -86 12.5 -146t36.5 -92t52.5 -45.5t65.5 -13.5q38 0 66 13.5t52 45.5t36.5 92t12.5 146v589z" />
<glyph unicode="z" horiz-adv-x="747" d="M236 139h445v-139h-615v116l442 768h-419v140h586v-117z" />
<glyph unicode="{" horiz-adv-x="780" d="M563 1536h114v-175h-83q-42 0 -73 -33t-31 -83v-342q0 -102 -45 -175t-133 -95q89 -22 133.5 -89.5t44.5 -161.5v-378q0 -50 31 -82.5t73 -32.5h83v-175h-114q-114 0 -185.5 71t-73.5 193v354q-2 111 -49.5 159t-141.5 53h-11v177h11q94 3 141.5 50.5t50.5 158.5v342 q2 122 73.5 193t184.5 71z" />
<glyph unicode="|" horiz-adv-x="389" d="M102 1434h186v-1557h-186v1557z" />
<glyph unicode="}" horiz-adv-x="780" d="M102 1536h115q113 0 184 -71t74 -193v-344q2 -108 50 -155.5t142 -51.5h10v-177h-10q-94 -4 -142 -52.5t-51 -162.5v-351q-1 -122 -72.5 -193t-184.5 -71h-115v176h83q43 0 74 32.5t31 82.5v377q0 94 44.5 161.5t132.5 89.5q-88 22 -132.5 95t-44.5 175v342 q0 50 -31 82.5t-74 32.5h-83v176z" />
<glyph unicode="~" horiz-adv-x="1136" d="M239 418h-136q0 147 63.5 242t183.5 95q55 0 99 -17.5t112 -57.5q6 -4 34.5 -23.5t37 -24.5t33 -18.5t39 -18t36.5 -9t43 -3.5q55 2 84.5 44t29.5 108h137q0 -90 -24 -161t-77.5 -116t-130.5 -45q-32 0 -60.5 5.5t-57.5 19t-47 23.5t-53.5 33t-51.5 33q-92 61 -161 57 q-63 -2 -98 -48t-35 -118z" />
<glyph unicode="&#xa1;" horiz-adv-x="376" d="M102 1101h172v-171h-172v171zM128 742h119l21 -583v-493h-160v494z" />
<glyph unicode="&#xa2;" horiz-adv-x="784" d="M316 1231h155v-202q48 -9 88.5 -31.5t75 -61t54.5 -100t22 -140.5v-40h-151q-5 247 -166 247q-38 0 -66.5 -13.5t-52 -45.5t-35.5 -92t-12 -146v-186q1 -166 43.5 -231.5t123.5 -65.5q162 0 166 247h150v-39q-2 -79 -22 -141t-54.5 -100.5t-75 -60.5t-88.5 -32v-197h-154 v196q-106 20 -174 104t-68 244v338q0 160 67.5 244.5t173.5 103.5v201z" />
<glyph unicode="&#xa3;" horiz-adv-x="1079" d="M1010 962h-184v11q-8 160 -70 232t-160 72q-106 0 -169.5 -79t-63.5 -258v-147h295v-176h-295v-441h592v-176h-885v176h108v441h-108v176h108v170q1 108 25.5 193.5t64 140t94.5 90.5t112.5 50.5t121.5 14.5q62 0 118 -14t110 -48.5t93.5 -86.5t64.5 -135t28 -188v-18z " />
<glyph unicode="&#xa4;" horiz-adv-x="1228" />
<glyph unicode="&#xa5;" horiz-adv-x="1130" d="M876 1434h189l-270 -518h226v-177h-294l-50 -87l-4 -34h349v-177h-365v-441h-186v441h-361v177h347l-4 34l-50 87h-293v177h225l-271 518h190l310 -627z" />
<glyph unicode="&#xa6;" horiz-adv-x="391" d="M102 1434h187v-656h-187v656zM102 532h187v-655h-187v655z" />
<glyph unicode="&#xa7;" horiz-adv-x="847" d="M239 184l-1 -20q2 -98 57.5 -145t128.5 -47q84 0 134.5 42.5t50.5 130.5q0 53 -15.5 91t-47.5 62.5t-67 39.5t-88 28q-56 12 -103 32t-93 55t-72.5 92t-26.5 130q0 151 104 229q-104 81 -104 218q0 81 26.5 143t73.5 98t104.5 54t125.5 18q139 0 237 -87t100 -249v-17 h-170v13q-2 94 -50 139.5t-116 45.5q-69 0 -115 -36t-46 -112q0 -41 15 -71.5t45.5 -50t56.5 -30.5t67 -23q331 -75 331 -356q0 -142 -79 -226q79 -88 79 -222q0 -113 -49 -190.5t-127.5 -111.5t-180.5 -34q-63 0 -124 20.5t-113.5 60.5t-85 108t-33.5 154v24h171zM356 827 q-100 -32 -100 -143q0 -23 5.5 -42.5t12.5 -33.5t22.5 -27.5t25.5 -21t31.5 -16.5t30.5 -12.5t33.5 -11.5t30.5 -10q72 -23 114 -53q60 47 60 143q0 44 -14 77.5t-42 56.5t-57 37.5t-70 28.5q-79 26 -83 28z" />
<glyph unicode="&#xa8;" horiz-adv-x="638" d="M109 1275v159h159v-159h-159zM375 1275v159h160v-159h-160z" />
<glyph unicode="&#xa9;" horiz-adv-x="1249" d="M625 1434q149 0 275.5 -75t198.5 -202t72 -275t-72 -275t-198.5 -202.5t-275.5 -75.5q-150 0 -276 75.5t-198 202.5t-72 275t72 275t198 202t276 75zM625 1330q-126 0 -227 -61.5t-155.5 -163.5t-54.5 -223q0 -187 123.5 -317t313.5 -130t314 130.5t124 316.5 q0 121 -55 223t-156 163.5t-227 61.5zM401 833v102q0 152 64 220.5t159 68.5q89 0 151.5 -54t73.5 -176v-16h-92q-11 89 -44.5 125t-88.5 36q-63 0 -96.5 -54.5t-33.5 -194.5v-13q0 -140 33 -195t98 -55q56 0 89 36.5t44 125.5h91v-16q-11 -121 -73.5 -175t-151.5 -54 q-95 0 -159 68.5t-64 220.5z" />
<glyph unicode="&#xaa;" horiz-adv-x="798" d="M603 1024h112v-1024h-112l-17 119q-70 -135 -231 -135q-54 0 -101 18t-89 57.5t-66.5 112.5t-24.5 172v338q0 99 24.5 172t66.5 112.5t89 57.5t101 18q160 0 230 -131zM228 606v-186q0 -86 12.5 -145.5t36 -91.5t52 -46t67.5 -14t67.5 13.5t51.5 46t34.5 92t11.5 145.5 v186q0 166 -43.5 231.5t-122.5 65.5q-37 0 -65.5 -13.5t-52.5 -45.5t-36.5 -92t-12.5 -146z" />
<glyph unicode="&#xab;" horiz-adv-x="804" d="M420 643l283 244v-184l-181 -152l181 -151v-184l-283 244v183zM103 643l283 244v-184l-182 -152l182 -151v-184l-283 244v183z" />
<glyph unicode="&#xac;" horiz-adv-x="1116" d="M1015 346h-185v229h-728v177h913v-406z" />
<glyph unicode="&#xad;" horiz-adv-x="712" d="M102 638h508v-176h-508v176z" />
<glyph unicode="&#xae;" horiz-adv-x="1249" d="M625 1424q150 0 276 -75t198 -202t72 -275t-72 -275t-198 -202t-276 -75t-276 75t-198 202t-72 275t72 275t198 202t276 75zM625 1320q-126 0 -227 -61t-155.5 -163t-54.5 -224q0 -187 123.5 -317t313.5 -130t314 130.5t124 316.5q0 122 -55 224t-156 163t-227 61z M438 1204h190q95 0 152.5 -51t57.5 -131v-20q-1 -58 -36.5 -100.5t-91.5 -58.5l152 -300h-101l-140 274h-89v-274h-94v661zM532 912h93q54 0 86 27t32 76t-32 75.5t-86 26.5h-93v-205z" />
<glyph unicode="&#xaf;" horiz-adv-x="780" d="M102 1434h576v-140h-576v140z" />
<glyph unicode="&#xb0;" horiz-adv-x="737" d="M368 1522q110 0 188 -77.5t78 -187.5t-78 -188.5t-188 -78.5t-188 78.5t-78 188.5q0 109 78 187t188 78zM368 1393q-57 0 -97 -39.5t-40 -96.5t40 -97.5t97 -40.5t97 40.5t40 97.5t-39.5 96.5t-97.5 39.5z" />
<glyph unicode="&#xb1;" horiz-adv-x="1116" d="M466 1073h186v-224h363v-176h-363v-223h-186v223h-364v176h364v224zM1015 41h-913v176h913v-176z" />
<glyph unicode="&#xb4;" horiz-adv-x="530" d="M230 1453h189l-182 -288h-125z" />
<glyph unicode="&#xb6;" horiz-adv-x="1259" d="M372 1434h818v-176h-78v-1592h-185v1592h-178v-1592h-185v965h-192q-128 0 -215.5 87t-87.5 216v196q0 121 89 212.5t214 91.5z" />
<glyph unicode="&#xb7;" horiz-adv-x="376" d="M102 609v171h172v-171h-172z" />
<glyph unicode="&#xb8;" horiz-adv-x="481" d="M250 0h128v-94q-2 -137 -52 -196t-178 -61h-46v116h44q58 2 80.5 35.5t23.5 108.5v91z" />
<glyph unicode="&#xba;" horiz-adv-x="788" d="M75 344v338q0 79 18.5 142t49.5 103t73 66.5t85.5 37.5t91.5 11t92 -10.5t86.5 -37t73.5 -66.5t50 -103t19 -143v-338q0 -80 -19 -143t-50 -103t-73.5 -66.5t-86.5 -37t-92 -10.5t-91.5 11t-85.5 37.5t-73 66.5t-49.5 103t-18.5 142zM561 420v186q0 165 -45 231t-122 66 q-38 0 -66.5 -13.5t-52 -45.5t-35.5 -92t-12 -146v-186q1 -166 43.5 -231.5t123.5 -65.5q79 0 123 66t43 231z" />
<glyph unicode="&#xbb;" horiz-adv-x="804" d="M102 703v184l284 -245v-182l-284 -244v184l182 151zM420 703v184l283 -245v-182l-283 -244v184l182 151z" />
<glyph unicode="&#xbc;" horiz-adv-x="1267" d="M85 1434h186v-692h-120v581h-66v111zM797 1434h142l-628 -1434h-141zM892 692h122l-191 -451h182v282h121v-282h57v-110h-57v-131h-120v131h-308v120z" />
<glyph unicode="&#xbd;" horiz-adv-x="1286" d="M85 1434h186v-693h-120v582h-66v111zM797 1434h142l-628 -1434h-141zM973 697h20q39 0 74.5 -12t66 -36t49 -66t19.5 -96v-6q0 -55 -27 -99.5t-67 -74.5t-81 -57t-74.5 -62.5t-41.5 -76.5h284v-111h-438v60q0 52 18 95t46.5 71.5t63.5 53.5t70 46t63.5 42.5t46.5 50 t18 62.5q0 54 -28.5 80t-64.5 27h-7q-40 0 -70.5 -26t-40.5 -79h-119l1 7q7 71 43.5 119t81 67t94.5 21z" />
<glyph unicode="&#xbe;" horiz-adv-x="1417" d="M289 1442l23 -1q50 -1 93.5 -17t77 -59.5t33.5 -107.5v-13q0 -50 -27.5 -89t-65.5 -50q43 -18 69.5 -60t27.5 -98v-13q-1 -94 -61.5 -142t-148.5 -49h-21q-49 0 -94 19t-80.5 66t-41.5 115v5h113q8 -47 38.5 -70.5t68.5 -24.5h14q37 0 65 22.5t29 62.5v8q0 48 -30.5 76 t-79.5 28h-64v112h64q41 0 72.5 20.5t32.5 60.5l1 7q0 39 -28 60t-62 21h-13q-37 0 -66 -22t-38 -66h-114v5q10 94 72.5 143.5t140.5 50.5zM960 1434h142l-628 -1434h-142zM1042 692h122l-190 -451h182v282h120v-282h57v-110h-57v-131h-120v131h-307v120z" />
<glyph unicode="&#xbf;" horiz-adv-x="1034" d="M648 941h-173v170h173v-170zM527 -334h-27q-57 0 -111 13.5t-107 45.5t-92.5 78.5t-63.5 119t-24 161.5v4q0 80 21.5 140.5t55 97t74.5 66t81.5 55t74.5 54.5t55 75t21 107h155q0 -80 -19.5 -140.5t-50.5 -97.5t-69 -66.5t-75.5 -55t-68.5 -54.5t-50.5 -74.5 t-19.5 -105.5q0 -122 64.5 -185t148.5 -63h14q83 2 148 62.5t84 182.5h186l-1 -11q-11 -107 -51 -188.5t-98 -127t-122 -68.5t-133 -25z" />
<glyph unicode="&#xc0;" horiz-adv-x="1079" d="M387 1864h189l118 -288h-126zM425 1434h227l343 -1434h-181l-99 396h-351l-100 -396h-180zM691 578l-152 643l-152 -643h304z" />
<glyph unicode="&#xc1;" horiz-adv-x="1079" d="M518 1862h189l-181 -288h-126zM425 1434h227l343 -1434h-181l-99 396h-351l-100 -396h-180zM691 578l-152 643l-152 -643h304z" />
<glyph unicode="&#xc2;" horiz-adv-x="1079" d="M455 1850h170l192 -291h-124l-153 166l-153 -167h-124zM425 1434h227l343 -1434h-181l-99 396h-351l-100 -396h-180zM691 578l-152 643l-152 -643h304z" />
<glyph unicode="&#xc3;" horiz-adv-x="1079" d="M714 1848h117q0 -271 -157 -271q-36 0 -68 16.5t-84 63.5q-32 30 -52 39t-44 8q-33 -1 -45.5 -31.5t-12.5 -96.5h-117q0 272 156 272q28 0 54.5 -11.5t44.5 -25t54 -43.5q52 -53 101 -45q30 2 41.5 31.5t11.5 93.5zM425 1434h227l343 -1434h-181l-99 396h-351l-100 -396 h-180zM691 578l-152 643l-152 -643h304z" />
<glyph unicode="&#xc4;" horiz-adv-x="1079" d="M328 1843h159v-158h-159v158zM595 1843h159v-158h-159v158zM425 1434h227l343 -1434h-181l-99 396h-351l-100 -396h-180zM691 578l-152 643l-152 -643h304z" />
<glyph unicode="&#xc5;" horiz-adv-x="1079" d="M540 1906q86 0 147.5 -61.5t61.5 -146.5q0 -88 -61.5 -149t-147.5 -61q-88 0 -148 61t-60 149q0 85 60.5 146.5t147.5 61.5zM540 1793q-40 0 -67.5 -28t-27.5 -67q0 -41 27.5 -69t67.5 -28t68.5 28.5t28.5 68.5q0 38 -28.5 66.5t-68.5 28.5zM425 1434h227l343 -1434h-181 l-99 396h-351l-100 -396h-180zM691 578l-152 643l-152 -643h304z" />
<glyph unicode="&#xc6;" horiz-adv-x="1239" d="M437 1434h723v-175h-440v-440h419v-174h-419v-470h440v-175h-621v396h-162l-100 -396h-180zM539 578v597l-139 -597h139z" />
<glyph unicode="&#xc7;" horiz-adv-x="993" d="M110 479v477q0 110 24 197t64 142t95 91t112.5 51t122.5 15q78 0 146 -23.5t127.5 -74.5t96 -146t40.5 -224v-38h-181l-1 33q-8 156 -69.5 227t-158.5 71q-106 0 -169.5 -79t-63.5 -258v-444q0 -179 63.5 -258t169.5 -79q96 0 157 69.5t71 224.5l1 37h181v-35 q-3 -106 -28 -189.5t-68 -136.5t-94 -85t-113 -46v-85q-1 -139 -49 -200t-174 -64h-53v118h52q53 4 74 36t22 102v82l-31 3q-74 7 -136.5 36t-115.5 84t-83.5 149.5t-30.5 219.5z" />
<glyph unicode="&#xc8;" horiz-adv-x="788" d="M242 1864h188l118 -288h-125zM112 1434h620v-175h-440v-440h420v-174h-420v-470h440v-175h-620v1434z" />
<glyph unicode="&#xc9;" horiz-adv-x="788" d="M360 1862h188l-181 -288h-125zM112 1434h620v-175h-440v-440h420v-174h-420v-470h440v-175h-620v1434z" />
<glyph unicode="&#xca;" horiz-adv-x="788" d="M310 1850h170l192 -291h-124l-153 166l-153 -167h-124zM112 1434h620v-175h-440v-440h420v-174h-420v-470h440v-175h-620v1434z" />
<glyph unicode="&#xcb;" horiz-adv-x="788" d="M183 1843h159v-158h-159v158zM449 1843h160v-158h-160v158zM112 1434h620v-175h-440v-440h420v-174h-420v-470h440v-175h-620v1434z" />
<glyph unicode="&#xcc;" horiz-adv-x="409" d="M51 1864h189l118 -288h-126zM112 0v1434h186v-1434h-186z" />
<glyph unicode="&#xcd;" horiz-adv-x="409" d="M169 1862h189l-181 -288h-126zM112 0v1434h186v-1434h-186z" />
<glyph unicode="&#xce;" horiz-adv-x="409" d="M119 1850h171l191 -291h-123l-154 166l-153 -167h-124zM112 0v1434h186v-1434h-186z" />
<glyph unicode="&#xcf;" horiz-adv-x="409" d="M-8 1685v158h159v-158h-159zM259 1685v158h159v-158h-159zM112 0v1434h186v-1434h-186z" />
<glyph unicode="&#xd0;" horiz-adv-x="1007" d="M112 1434h377q64 0 121 -13.5t112 -49t94.5 -90t64 -142.5t24.5 -201v-442q0 -113 -24.5 -201t-64 -142.5t-94.5 -90t-112 -49t-121 -13.5h-377v605h-93v176h93v653zM724 513v409q0 178 -65.5 257.5t-169.5 79.5h-197v-478h235v-176h-235v-430h197q104 0 169.5 80 t65.5 258z" />
<glyph unicode="&#xd1;" horiz-adv-x="1036" d="M693 1848h117q0 -271 -157 -271q-36 0 -68 16.5t-84 63.5q-32 30 -52.5 39t-44.5 8q-33 -1 -45.5 -31.5t-12.5 -96.5h-116q0 272 156 272q28 0 54.5 -11.5t44.5 -25t54 -43.5q52 -53 101 -45q30 2 41.5 31.5t11.5 93.5zM754 1434h175v-1434h-177l-470 1023v-1023h-176 v1434h178l470 -1023v1023z" />
<glyph unicode="&#xd2;" horiz-adv-x="1034" d="M365 1864h189l118 -288h-126zM98 479v477q0 110 24 197t64 142t95 91t112.5 51t122.5 15q64 0 121.5 -14.5t113 -50.5t96 -91t65 -142.5t24.5 -197.5v-477q0 -110 -24.5 -197t-65 -142t-96 -91t-113 -50.5t-121.5 -14.5q-65 0 -122.5 14.5t-113 51t-95 91.5t-63.5 141.5 t-24 196.5zM751 496v444q0 178 -65.5 257.5t-169.5 79.5q-106 0 -169.5 -79t-63.5 -258v-444q0 -179 63.5 -258.5t169.5 -79.5q104 0 169.5 80t65.5 258z" />
<glyph unicode="&#xd3;" horiz-adv-x="1034" d="M483 1862h189l-182 -288h-125zM98 479v477q0 110 24 197t64 142t95 91t112.5 51t122.5 15q64 0 121.5 -14.5t113 -50.5t96 -91t65 -142.5t24.5 -197.5v-477q0 -110 -24.5 -197t-65 -142t-96 -91t-113 -50.5t-121.5 -14.5q-65 0 -122.5 14.5t-113 51t-95 91.5t-63.5 141.5 t-24 196.5zM751 496v444q0 178 -65.5 257.5t-169.5 79.5q-106 0 -169.5 -79t-63.5 -258v-444q0 -179 63.5 -258.5t169.5 -79.5q104 0 169.5 80t65.5 258z" />
<glyph unicode="&#xd4;" horiz-adv-x="1034" d="M433 1850h170l192 -291h-124l-153 166l-153 -167h-124zM98 479v477q0 110 24 197t64 142t95 91t112.5 51t122.5 15q64 0 121.5 -14.5t113 -50.5t96 -91t65 -142.5t24.5 -197.5v-477q0 -110 -24.5 -197t-65 -142t-96 -91t-113 -50.5t-121.5 -14.5q-65 0 -122.5 14.5 t-113 51t-95 91.5t-63.5 141.5t-24 196.5zM751 496v444q0 178 -65.5 257.5t-169.5 79.5q-106 0 -169.5 -79t-63.5 -258v-444q0 -179 63.5 -258.5t169.5 -79.5q104 0 169.5 80t65.5 258z" />
<glyph unicode="&#xd5;" horiz-adv-x="1034" d="M694 1848h117q0 -271 -157 -271q-37 0 -69 16t-83 63q-32 31 -52 40t-44 8q-33 -1 -45.5 -31.5t-12.5 -95.5h-117q0 271 156 271q40 0 72 -18.5t81 -61.5q54 -53 101 -45q30 2 41.5 31.5t11.5 93.5zM98 479v477q0 110 24 197t64 142t95 91t112.5 51t122.5 15 q64 0 121.5 -14.5t113 -50.5t96 -91t65 -142.5t24.5 -197.5v-477q0 -110 -24.5 -197t-65 -142t-96 -91t-113 -50.5t-121.5 -14.5q-65 0 -122.5 14.5t-113 51t-95 91.5t-63.5 141.5t-24 196.5zM751 496v444q0 178 -65.5 257.5t-169.5 79.5q-106 0 -169.5 -79t-63.5 -258v-444 q0 -179 63.5 -258.5t169.5 -79.5q104 0 169.5 80t65.5 258z" />
<glyph unicode="&#xd6;" horiz-adv-x="1034" d="M306 1685v158h159v-158h-159zM572 1685v158h160v-158h-160zM98 479v477q0 110 24 197t64 142t95 91t112.5 51t122.5 15q64 0 121.5 -14.5t113 -50.5t96 -91t65 -142.5t24.5 -197.5v-477q0 -110 -24.5 -197t-65 -142t-96 -91t-113 -50.5t-121.5 -14.5q-65 0 -122.5 14.5 t-113 51t-95 91.5t-63.5 141.5t-24 196.5zM751 496v444q0 178 -65.5 257.5t-169.5 79.5q-106 0 -169.5 -79t-63.5 -258v-444q0 -179 63.5 -258.5t169.5 -79.5q104 0 169.5 80t65.5 258z" />
<glyph unicode="&#xd7;" horiz-adv-x="972" d="M490 718l257 256l124 -124l-256 -257l256 -256l-131 -131l-256 256l-257 -257l-125 125l257 257l-257 256l132 131z" />
<glyph unicode="&#xd8;" horiz-adv-x="1034" d="M895 1536l-80 -204q120 -128 120 -376v-477q0 -110 -24.5 -197t-65 -142t-96 -91t-113 -50.5t-121.5 -14.5q-117 0 -207 48l-52 -134h-118l79 203q-120 128 -120 378v477q0 110 24 197t64 142t95 91t112.5 51t122.5 15q117 0 210 -50l52 134h118zM283 940v-444 q0 -102 21 -171l353 903q-56 49 -141 49q-106 0 -169.5 -79t-63.5 -258zM751 496v444q0 99 -22 171l-353 -905q55 -48 140 -48q104 0 169.5 80t65.5 258z" />
<glyph unicode="&#xd9;" horiz-adv-x="1040" d="M367 1864h189l118 -288h-126zM292 488v946h-180v-963q0 -109 23.5 -194.5t61.5 -139.5t92 -89t111 -49.5t122 -14.5q64 0 120.5 14t111 49t93.5 89t63 140t24 195v963h-180v-946q0 -174 -64 -252t-168 -78q-105 0 -167.5 77.5t-62.5 252.5z" />
<glyph unicode="&#xda;" horiz-adv-x="1040" d="M485 1862h189l-181 -288h-126zM292 488v946h-180v-963q0 -109 23.5 -194.5t61.5 -139.5t92 -89t111 -49.5t122 -14.5q64 0 120.5 14t111 49t93.5 89t63 140t24 195v963h-180v-946q0 -174 -64 -252t-168 -78q-105 0 -167.5 77.5t-62.5 252.5z" />
<glyph unicode="&#xdb;" horiz-adv-x="1040" d="M435 1850h171l191 -291h-123l-153 166l-154 -167h-123zM292 487v947h-180v-964q0 -135 34.5 -233t94.5 -151.5t129.5 -77.5t151.5 -24q64 0 120.5 14t111 49t93.5 88.5t63 139.5t24 195v964h-180v-947q0 -174 -64 -251.5t-168 -77.5q-105 0 -167.5 77t-62.5 252z" />
<glyph unicode="&#xdc;" horiz-adv-x="1040" d="M308 1685v158h159v-158h-159zM575 1685v158h159v-158h-159zM292 488v946h-180v-963q0 -109 23.5 -194.5t61.5 -139.5t92 -89t111 -49.5t122 -14.5q64 0 120.5 14t111 49t93.5 89t63 140t24 195v963h-180v-946q0 -174 -64 -252t-168 -78q-105 0 -167.5 77.5t-62.5 252.5z " />
<glyph unicode="&#xdd;" horiz-adv-x="1054" d="M493 1862h188l-181 -288h-125zM782 1434h190l-354 -856v-578h-186v577l-348 857h188l253 -650z" />
<glyph unicode="&#xde;" horiz-adv-x="942" d="M112 1444h180v-216h127q64 -2 122 -14.5t113 -40.5t95 -70t64.5 -107t24.5 -146v-70q0 -79 -24.5 -143.5t-64.5 -107t-95 -71.5t-113 -42t-122 -15h-127v-401h-180v1444zM662 806v18q0 65 -20.5 112t-56 72t-75.5 36t-87 11h-131v-480h131q47 0 87 11.5t75.5 36.5 t56 71.5t20.5 111.5z" />
<glyph unicode="&#xdf;" horiz-adv-x="1093" d="M523 1441h48q68 0 130.5 -13t119.5 -42.5t99.5 -73t68.5 -109t27 -146.5v-31q0 -105 -51.5 -180.5t-130.5 -105.5q93 -28 148.5 -109.5t55.5 -199.5v-28q-1 -105 -36 -184t-97.5 -126t-141.5 -70t-175 -23h-206v176h206q127 0 195 57t70 163v27q0 106 -68.5 166.5 t-198.5 60.5h-89v176h77q116 0 185 51.5t70 151.5v25q0 103 -71.5 158t-186.5 55h-46q-110 -2 -183 -56.5t-75 -161.5v-1049h-185v1036q0 87 25 156.5t66.5 115t99 75.5t119.5 43.5t131 14.5z" />
<glyph unicode="&#xe0;" horiz-adv-x="798" d="M247 1454h189l118 -287h-125zM75 344v338q0 99 24.5 172t66 112.5t88.5 57.5t101 18q160 0 230 -131l18 113h112v-1024h-112l-17 119q-70 -135 -231 -135q-54 0 -101 18t-88.5 57.5t-66 112.5t-24.5 172zM561 420v186q0 166 -43.5 231.5t-122.5 65.5q-37 0 -65.5 -13.5 t-52.5 -45.5t-36.5 -92t-12.5 -146v-186q0 -86 12.5 -145.5t36 -91.5t52 -46t67.5 -14t67.5 13.5t51.5 46t34.5 92t11.5 145.5z" />
<glyph unicode="&#xe1;" horiz-adv-x="798" d="M365 1453h189l-181 -288h-126zM603 1024h112v-1024h-112l-17 119q-70 -135 -231 -135q-54 0 -101 18t-89 57.5t-66.5 112.5t-24.5 172v338q0 99 24.5 172t66.5 112.5t89 57.5t101 18q160 0 230 -131zM228 606v-186q0 -86 12.5 -145.5t36 -91.5t52 -46t67.5 -14t67.5 13.5 t51.5 46t34.5 92t11.5 145.5v186q0 166 -43.5 231.5t-122.5 65.5q-37 0 -65.5 -13.5t-52.5 -45.5t-36.5 -92t-12.5 -146z" />
<glyph unicode="&#xe2;" horiz-adv-x="798" d="M316 1440h170l192 -291h-124l-153 167l-153 -167h-124zM603 1024h112v-1024h-112l-17 119q-70 -135 -231 -135q-54 0 -101 18t-89 57.5t-66.5 112.5t-24.5 172v338q0 99 24.5 172t66.5 112.5t89 57.5t101 18q160 0 230 -131zM228 606v-186q0 -86 12.5 -145.5t36 -91.5 t52 -46t67.5 -14t67.5 13.5t51.5 46t34.5 92t11.5 145.5v186q0 166 -43.5 231.5t-122.5 65.5q-37 0 -65.5 -13.5t-52.5 -45.5t-36.5 -92t-12.5 -146z" />
<glyph unicode="&#xe3;" horiz-adv-x="798" d="M575 1440h117q0 -272 -156 -272q-37 0 -68.5 16.5t-83.5 63.5q-32 30 -52.5 39t-44.5 8q-33 -1 -45.5 -31.5t-12.5 -95.5h-116q0 272 156 272q40 0 70.5 -18.5t81.5 -62.5q54 -53 102 -45q30 2 41 32t11 94zM603 1024h112v-1024h-112l-17 119q-70 -135 -231 -135 q-54 0 -101 18t-88.5 57.5t-66 112.5t-24.5 172v338q0 99 24.5 172t66 112.5t88.5 57.5t101 18q160 0 230 -131zM228 606v-186q0 -86 12.5 -145.5t36 -91.5t52 -46t67.5 -14t67.5 13.5t51.5 46t34.5 92t11.5 145.5v186q0 166 -43.5 231.5t-122.5 65.5q-37 0 -65.5 -13.5 t-52.5 -45.5t-36.5 -92t-12.5 -146z" />
<glyph unicode="&#xe4;" horiz-adv-x="798" d="M189 1275v159h159v-159h-159zM455 1275v159h159v-159h-159zM603 1024h112v-1024h-112l-17 119q-70 -135 -231 -135q-54 0 -101 18t-89 57.5t-66.5 112.5t-24.5 172v338q0 99 24.5 172t66.5 112.5t89 57.5t101 18q160 0 230 -131zM228 606v-186q0 -86 12.5 -145.5 t36 -91.5t52 -46t67.5 -14t67.5 13.5t51.5 46t34.5 92t11.5 145.5v186q0 166 -43.5 231.5t-122.5 65.5q-37 0 -65.5 -13.5t-52.5 -45.5t-36.5 -92t-12.5 -146z" />
<glyph unicode="&#xe5;" horiz-adv-x="798" d="M401 1497q86 0 147.5 -61.5t61.5 -146.5q0 -88 -61.5 -149.5t-147.5 -61.5q-87 0 -147.5 61.5t-60.5 149.5q0 85 60.5 146.5t147.5 61.5zM401 1384q-40 0 -67.5 -28t-27.5 -67q0 -41 27.5 -69.5t67.5 -28.5t68 28.5t28 69.5q0 39 -28.5 67t-67.5 28zM603 1024h112v-1024 h-112l-17 119q-70 -135 -231 -135q-54 0 -101 18t-89 57.5t-66.5 112.5t-24.5 172v338q0 99 24.5 172t66.5 112.5t89 57.5t101 18q160 0 230 -131zM228 606v-186q0 -86 12.5 -145.5t36 -91.5t52 -46t67.5 -14t67.5 13.5t51.5 46t34.5 92t11.5 145.5v186q0 166 -43.5 231.5 t-122.5 65.5q-37 0 -65.5 -13.5t-52.5 -45.5t-36.5 -92t-12.5 -146z" />
<glyph unicode="&#xe6;" horiz-adv-x="1327" d="M75 344l-1 338q0 99 24.5 172t66.5 112.5t89 57.5t101 18q160 0 230 -131l18 113h112v-87q74 105 219 105q61 0 114.5 -18t101 -57.5t75.5 -112.5t28 -172v-231h-484v-77q0 -139 43.5 -195t122.5 -56q156 0 165 212h153q-1 -78 -20.5 -139.5t-50.5 -100.5t-73 -64.5 t-85 -36t-90 -10.5q-145 0 -219 105v-89h-112l-17 119q-70 -135 -231 -135q-54 0 -101 18t-88.5 57.5t-66 112.5t-24.5 172zM560 420v186q0 86 -12 146t-35.5 92t-51.5 45.5t-66 13.5q-37 0 -65.5 -13.5t-52.5 -45.5t-36.5 -92t-12.5 -146v-186q0 -86 12.5 -145.5t36 -91.5 t52 -46t67.5 -14t67.5 13.5t51 46.5t34 92t11.5 145zM1099 567v94q-1 242 -165 242q-165 0 -166 -243v-93h331z" />
<glyph unicode="&#xe7;" horiz-adv-x="782" d="M75 344l-1 338q0 98 28 171t75.5 112.5t101 58t114.5 18.5q60 0 112.5 -17.5t99.5 -55t75.5 -107t30.5 -164.5v-42h-150q-5 247 -167 247q-38 0 -66.5 -13.5t-52 -45.5t-35.5 -92t-12 -146v-186q1 -166 43.5 -231.5t123.5 -65.5q162 0 166 247h150v-39q-5 -248 -181 -321 v-98q-1 -140 -51.5 -201t-180.5 -62h-44v116h44q58 2 80.5 35t23.5 107v85q-28 -4 -61 -1q-54 6 -99 28t-84 62t-61 107.5t-22 155.5z" />
<glyph unicode="&#xe8;" horiz-adv-x="784" d="M239 1454h189l118 -287h-126zM75 344l-1 338q0 98 28 171t75.5 112.5t101 58t114.5 18.5q48 0 91.5 -10.5t86 -37t73.5 -66.5t50 -103t19 -143v-231h-485v-77q0 -139 44 -195t123 -56q156 0 165 212h153q-1 -96 -30 -167.5t-76.5 -109.5t-100.5 -56t-113 -18 q-48 0 -91.5 11t-85.5 37.5t-73 66.5t-49.5 103t-18.5 142zM559 567v94q-1 242 -165 242q-165 0 -166 -243v-93h331z" />
<glyph unicode="&#xe9;" horiz-adv-x="784" d="M357 1453h189l-182 -288h-125zM75 344l-1 338q0 98 28 171t75.5 112.5t101 58t114.5 18.5q48 0 91.5 -10.5t86 -37t73.5 -66.5t50 -103t19 -143v-231h-485v-77q0 -139 44 -195t123 -56q156 0 165 212h153q-1 -96 -30 -167.5t-76.5 -109.5t-100.5 -56t-113 -18 q-48 0 -91.5 11t-85.5 37.5t-73 66.5t-49.5 103t-18.5 142zM559 567v94q-1 242 -165 242q-165 0 -166 -243v-93h331z" />
<glyph unicode="&#xea;" horiz-adv-x="784" d="M307 1440h170l192 -291h-124l-153 167l-153 -167h-124zM75 344l-1 338q0 98 28 171t75.5 112.5t101 58t114.5 18.5q48 0 91.5 -10.5t86 -37t73.5 -66.5t50 -103t19 -143v-231h-485v-77q0 -139 44 -195t123 -56q156 0 165 212h153q-1 -96 -30 -167.5t-76.5 -109.5 t-100.5 -56t-113 -18q-48 0 -91.5 11t-85.5 37.5t-73 66.5t-49.5 103t-18.5 142zM559 567v94q-1 242 -165 242q-165 0 -166 -243v-93h331z" />
<glyph unicode="&#xeb;" horiz-adv-x="784" d="M180 1275v159h159v-159h-159zM446 1275v159h160v-159h-160zM75 344l-1 338q0 98 28 171t75.5 112.5t101 58t114.5 18.5q48 0 91.5 -10.5t86 -37t73.5 -66.5t50 -103t19 -143v-231h-485v-77q0 -139 44 -195t123 -56q156 0 165 212h153q-1 -96 -30 -167.5t-76.5 -109.5 t-100.5 -56t-113 -18q-48 0 -91.5 11t-85.5 37.5t-73 66.5t-49.5 103t-18.5 142zM559 567v94q-1 242 -165 242q-165 0 -166 -243v-93h331z" />
<glyph unicode="&#xec;" horiz-adv-x="501" d="M104 1454h189l118 -287h-125zM212 0v1024h154v-1024h-154z" />
<glyph unicode="&#xed;" horiz-adv-x="493" d="M203 1453h189l-181 -288h-126zM135 0v1024h154v-1024h-154z" />
<glyph unicode="&#xee;" horiz-adv-x="544" d="M188 1440h170l192 -291h-124l-153 167l-153 -167h-124zM199 0v1024h153v-1024h-153z" />
<glyph unicode="&#xef;" horiz-adv-x="577" d="M77 1275v159h160v-159h-160zM344 1275v159h159v-159h-159zM218 0v1024h154v-1024h-154z" />
<glyph unicode="&#xf0;" horiz-adv-x="942" d="M839 1315l-151 -89q25 -54 26 -129v-753q-1 -96 -29.5 -168.5t-75 -112.5t-100 -59.5t-114.5 -19.5q-48 0 -92 10.5t-86.5 37t-73 66.5t-49.5 103t-19 143v338q0 80 19 143t49.5 103t73 66.5t86.5 37t92 10.5q51 0 95.5 -25.5t70.5 -73.5v130q-1 132 -45 185.5t-121 53.5 q-120 0 -154 -143h-152l3 19q10 72 40 125t73.5 82.5t90.5 43t99 13.5q150 0 235 -99l136 81zM561 420v186q0 297 -166 297q-77 0 -122 -66t-45 -231v-186q-1 -165 43 -231t123 -66q81 0 123.5 65.5t43.5 231.5z" />
<glyph unicode="&#xf1;" horiz-adv-x="808" d="M578 1440h117q0 -272 -156 -272q-37 0 -69.5 16.5t-83.5 63.5q-32 30 -52 39t-44 8q-33 -1 -45.5 -31.5t-12.5 -95.5h-117q0 272 157 272q40 0 70.5 -18.5t81.5 -62.5q54 -53 101 -45q30 2 41.5 32t11.5 94zM200 1024l20 -119q71 137 232 137q42 0 80 -10.5t74.5 -37 t63 -66.5t42.5 -103t16 -143v-682h-153v606q0 86 -12.5 146t-36.5 92t-52.5 45.5t-65.5 13.5q-77 0 -122 -58t-45 -201v-644h-153v1024h112z" />
<glyph unicode="&#xf2;" horiz-adv-x="788" d="M242 1454h189l118 -287h-126zM75 344v338q0 79 18.5 142t49.5 103t73 66.5t85.5 37.5t91.5 11t92 -10.5t86.5 -37t73.5 -66.5t50 -103t19 -143v-338q0 -80 -19 -143t-50 -103t-73.5 -66.5t-86.5 -37t-92 -10.5t-91.5 11t-85.5 37.5t-73 66.5t-49.5 103t-18.5 142z M561 420v186q0 165 -45 231t-122 66q-38 0 -66.5 -13.5t-52 -45.5t-35.5 -92t-12 -146v-186q1 -166 43.5 -231.5t123.5 -65.5q79 0 123 66t43 231z" />
<glyph unicode="&#xf3;" horiz-adv-x="788" d="M360 1453h189l-181 -288h-126zM75 344v338q0 79 18.5 142t49.5 103t73 66.5t85.5 37.5t91.5 11t92 -10.5t86.5 -37t73.5 -66.5t50 -103t19 -143v-338q0 -80 -19 -143t-50 -103t-73.5 -66.5t-86.5 -37t-92 -10.5t-91.5 11t-85.5 37.5t-73 66.5t-49.5 103t-18.5 142z M561 420v186q0 165 -45 231t-122 66q-38 0 -66.5 -13.5t-52 -45.5t-35.5 -92t-12 -146v-186q1 -166 43.5 -231.5t123.5 -65.5q79 0 123 66t43 231z" />
<glyph unicode="&#xf4;" horiz-adv-x="788" d="M310 1440h170l192 -291h-124l-153 167l-153 -167h-124zM74 344v338q0 98 28 171t75.5 112.5t101 58t114.5 18.5q48 0 92 -10.5t86.5 -37t73.5 -66.5t50 -103t19 -143v-338q0 -80 -19 -143t-50 -103t-73.5 -66.5t-86.5 -37t-92 -10.5q-61 0 -114.5 18.5t-101 58 t-75.5 112.5t-28 171zM561 420v186q0 165 -45 231t-122 66q-38 0 -66.5 -13.5t-52 -45.5t-35.5 -92t-12 -146v-186q1 -166 43.5 -231.5t123.5 -65.5q79 0 123 66t43 231z" />
<glyph unicode="&#xf5;" horiz-adv-x="788" d="M569 1440h117q0 -272 -157 -272q-37 0 -68.5 16.5t-83.5 63.5q-32 30 -52 39t-44 8q-33 -1 -45.5 -31.5t-12.5 -95.5h-117q0 272 156 272q40 0 71.5 -18.5t81.5 -62.5q54 -53 101 -45q30 2 41.5 32t11.5 94zM75 344v338q0 79 18.5 142t49.5 103t73 66.5t85.5 37.5 t91.5 11t92 -10.5t86.5 -37t73.5 -66.5t50 -103t19 -143v-338q0 -80 -19 -143t-50 -103t-73.5 -66.5t-86.5 -37t-92 -10.5t-91.5 11t-85.5 37.5t-73 66.5t-49.5 103t-18.5 142zM561 420v186q0 165 -45 231t-122 66q-38 0 -66.5 -13.5t-52 -45.5t-35.5 -92t-12 -146v-186 q1 -166 43.5 -231.5t123.5 -65.5q79 0 123 66t43 231z" />
<glyph unicode="&#xf6;" horiz-adv-x="788" d="M183 1275v159h159v-159h-159zM450 1275v159h159v-159h-159zM75 344v338q0 79 18.5 142t49.5 103t73 66.5t85.5 37.5t91.5 11t92 -10.5t86.5 -37t73.5 -66.5t50 -103t19 -143v-338q0 -80 -19 -143t-50 -103t-73.5 -66.5t-86.5 -37t-92 -10.5t-91.5 11t-85.5 37.5t-73 66.5 t-49.5 103t-18.5 142zM561 420v186q0 165 -45 231t-122 66q-38 0 -66.5 -13.5t-52 -45.5t-35.5 -92t-12 -146v-186q1 -166 43.5 -231.5t123.5 -65.5q79 0 123 66t43 231z" />
<glyph unicode="&#xf7;" horiz-adv-x="1116" d="M469 811v171h172v-171h-172zM102 624h913v-177h-913v177zM470 86v171h172v-171h-172z" />
<glyph unicode="&#xf8;" horiz-adv-x="835" d="M714 1126l-65 -167q96 -94 96 -277v-338q0 -80 -19 -143t-50 -103t-73.5 -66.5t-86.5 -37t-92 -10.5q-78 0 -143 29l-45 -115h-94l64 164q-101 94 -101 282v338q0 98 28 171t75.5 112.5t101 58t114.5 18.5q87 0 150 -31l45 115h95zM258 606v-186q0 -106 19 -174l242 623 q-38 34 -95 34q-38 0 -66.5 -13.5t-52 -45.5t-35.5 -92t-12 -146zM574 768l-240 -618q34 -27 91 -27q79 0 123 66t43 231v186q0 99 -17 162z" />
<glyph unicode="&#xf9;" d="M248 1454h189l118 -287h-126zM567 1024h154v-1024h-112l-20 119q-71 -137 -232 -137q-54 0 -100.5 18t-87.5 57.5t-65 112.5t-24 172v682h154v-606q0 -86 12.5 -146t36.5 -92t52.5 -45.5t65.5 -13.5q77 0 121.5 58t44.5 201v644z" />
<glyph unicode="&#xfa;" d="M366 1453h189l-182 -288h-125zM567 1024h154v-1024h-112l-20 119q-71 -137 -232 -137q-54 0 -100.5 18t-87.5 57.5t-65 112.5t-24 172v682h154v-606q0 -86 12.5 -146t36.5 -92t52.5 -45.5t65.5 -13.5q77 0 121.5 58t44.5 201v644z" />
<glyph unicode="&#xfb;" d="M316 1440h170l192 -291h-124l-153 167l-153 -167h-124zM567 1024h153v-1024h-111l-20 119q-71 -137 -232 -137q-54 0 -100.5 18t-87.5 57.5t-65 112.5t-24 172v682h154v-606q0 -86 12.5 -146t36.5 -92t52.5 -45.5t65.5 -13.5q77 0 121.5 58t44.5 201v644z" />
<glyph unicode="&#xfc;" d="M189 1275v159h159v-159h-159zM455 1275v159h160v-159h-160zM567 1024h154v-1024h-112l-20 119q-71 -137 -232 -137q-54 0 -100.5 18t-87.5 57.5t-65 112.5t-24 172v682h154v-606q0 -86 12.5 -146t36.5 -92t52.5 -45.5t65.5 -13.5q77 0 121.5 58t44.5 201v644z" />
<glyph unicode="&#xfd;" horiz-adv-x="772" d="M351 1453h189l-181 -288h-126zM553 1025h153v-1037q-3 -93 -31.5 -161.5t-75.5 -106t-99.5 -55t-111.5 -17.5q-51 0 -97.5 12.5t-90 40t-75.5 76.5t-45 116h158q35 -106 149 -106q77 0 121.5 53t44.5 182v97q-65 -119 -211 -119q-42 0 -80 10.5t-74.5 37t-63 66.5 t-42.5 103t-16 143v664h153v-588q0 -86 12.5 -146t36.5 -92t52.5 -45.5t65.5 -13.5q38 0 66 13.5t52 45.5t36.5 92t12.5 146v589z" />
<glyph unicode="&#xfe;" d="M240 1434v-511q65 118 210 118q54 0 100.5 -18t87.5 -57.5t65 -112.5t24 -172v-338q0 -99 -24 -172t-65 -112.5t-87.5 -58t-100.5 -18.5q-144 0 -210 116v-432h-153v1768h153zM573 418v187q0 86 -12.5 145.5t-36 91.5t-52 46t-67.5 14t-67.5 -13.5t-51 -46.5t-34 -92 t-11.5 -145v-187q0 -86 12 -145.5t35.5 -91.5t51.5 -45.5t66 -13.5q37 0 65.5 13.5t52.5 45t36.5 91.5t12.5 146z" />
<glyph unicode="&#xff;" horiz-adv-x="772" d="M174 1275v159h160v-159h-160zM441 1275v159h159v-159h-159zM553 1025h153v-1037q-3 -93 -31.5 -161.5t-75.5 -106t-99.5 -55t-111.5 -17.5q-51 0 -97.5 12.5t-90 40t-75.5 76.5t-45 116h158q35 -106 149 -106q77 0 121.5 53t44.5 182v97q-65 -119 -211 -119 q-42 0 -80 10.5t-74.5 37t-63 66.5t-42.5 103t-16 143v664h153v-588q0 -86 12.5 -146t36.5 -92t52.5 -45.5t65.5 -13.5q38 0 66 13.5t52 45.5t36.5 92t12.5 146v589z" />
<glyph unicode="&#x100;" horiz-adv-x="1079" d="M253 1843h576v-139h-576v139zM425 1434h227l343 -1434h-181l-99 396h-351l-100 -396h-180zM691 578l-152 643l-152 -643h304z" />
<glyph unicode="&#x101;" horiz-adv-x="798" d="M113 1434h576v-140h-576v140zM603 1024h112v-1024h-112l-17 119q-70 -135 -231 -135q-54 0 -101 18t-89 57.5t-66.5 112.5t-24.5 172v338q0 99 24.5 172t66.5 112.5t89 57.5t101 18q160 0 230 -131zM228 606v-186q0 -86 12.5 -145.5t36 -91.5t52 -46t67.5 -14t67.5 13.5 t51.5 46t34.5 92t11.5 145.5v186q0 166 -43.5 231.5t-122.5 65.5q-37 0 -65.5 -13.5t-52.5 -45.5t-36.5 -92t-12.5 -146z" />
<glyph unicode="&#x102;" horiz-adv-x="1079" d="M668 1843h135q-11 -98 -86.5 -164t-176.5 -66t-176 66t-86 164h134q11 -42 47 -69.5t81 -27.5q46 0 81.5 27t46.5 70zM425 1434h227l343 -1434h-181l-99 396h-351l-100 -396h-180zM691 578l-152 643l-152 -643h304z" />
<glyph unicode="&#x103;" horiz-adv-x="798" d="M529 1434h134q-11 -98 -86 -164.5t-176 -66.5t-176 66.5t-86 164.5h134q11 -42 47 -70t81 -28q46 0 81.5 27.5t46.5 70.5zM75 344l-1 338q0 99 24.5 172t66.5 112.5t89 57.5t101 18q160 0 230 -131l18 113h112v-1024h-112l-17 119q-70 -135 -231 -135q-54 0 -101 18 t-88.5 57.5t-66 112.5t-24.5 172zM561 420v186q0 166 -43.5 231.5t-122.5 65.5q-37 0 -65.5 -13.5t-52.5 -45.5t-36.5 -92t-12.5 -146v-186q0 -86 12.5 -145.5t36 -91.5t52 -46t67.5 -14t67.5 13.5t51.5 46t34.5 92t11.5 145.5z" />
<glyph unicode="&#x104;" horiz-adv-x="1079" d="M425 1434h227l343 -1434q-36 -31 -54 -48.5t-36.5 -50t-17.5 -64.5q3 -68 89 -71l31 -1v-115h-53q-100 5 -148.5 45t-47.5 113q0 24 7 47.5t14 38.5t24.5 35.5t24.5 27t28 25.5l21 18h-63l-99 396h-351l-100 -396h-180zM691 578l-152 643l-152 -643h304z" />
<glyph unicode="&#x105;" horiz-adv-x="798" d="M75 344v338q0 99 24.5 172t66 112.5t88.5 57.5t101 18q160 0 230 -131l18 113h111v-1024q-50 -43 -78.5 -81.5t-25.5 -83.5q2 -38 26.5 -53.5t68.5 -16.5h24v-116h-24q-219 1 -225 147q-1 36 10 68t36 61t37 40t40 35l-17 119q-70 -135 -231 -135q-54 0 -101 18 t-88.5 57.5t-66 112.5t-24.5 172zM561 420v186q0 166 -43.5 231.5t-122.5 65.5q-37 0 -65.5 -13.5t-52.5 -45.5t-36.5 -92t-12.5 -146v-186q0 -86 12.5 -145.5t36 -91.5t52 -46t67.5 -14t67.5 13.5t51.5 46t34.5 92t11.5 145.5z" />
<glyph unicode="&#x106;" horiz-adv-x="993" d="M461 1862h189l-181 -288h-126zM110 479v477q0 110 24 197t64 142t95 91t112.5 51t122.5 15q78 0 146 -23.5t127.5 -75t96 -146.5t40.5 -224v-37h-181l-1 33q-8 156 -69.5 227t-158.5 71q-106 0 -169.5 -79t-63.5 -258v-444q0 -179 63.5 -258.5t169.5 -79.5q96 0 157 70 t71 225l1 37h181v-35q-3 -105 -27.5 -187.5t-64 -134.5t-92.5 -86.5t-108.5 -48.5t-117.5 -14q-65 0 -122.5 14.5t-113 51t-95 91.5t-63.5 141.5t-24 196.5z" />
<glyph unicode="&#x107;" horiz-adv-x="782" d="M356 1453h189l-181 -288h-126zM75 344v338q0 79 18.5 142t49.5 103t73 66.5t85.5 37.5t91.5 11q60 0 112.5 -17.5t99.5 -55t75.5 -107.5t30.5 -165v-41h-150q-5 247 -167 247q-38 0 -66.5 -13.5t-52 -45.5t-35.5 -92t-12 -146v-186q1 -166 43.5 -231.5t123.5 -65.5 q162 0 166 247h150v-39q-2 -95 -30.5 -165.5t-75.5 -108.5t-99.5 -55.5t-112.5 -17.5q-48 0 -91.5 11t-85.5 37.5t-73 66.5t-49.5 103t-18.5 142z" />
<glyph unicode="&#x10a;" horiz-adv-x="993" d="M418 1844h159v-158h-159v158zM110 479v477q0 110 24 197t64 142t95 91t112.5 51t122.5 15q78 0 146 -23.5t127.5 -75t96 -146.5t40.5 -224v-37h-181l-1 33q-8 156 -69.5 227t-158.5 71q-106 0 -169.5 -79t-63.5 -258v-444q0 -179 63.5 -258.5t169.5 -79.5q96 0 157 70 t71 225l1 37h181v-35q-3 -105 -27.5 -187.5t-64 -134.5t-92.5 -86.5t-108.5 -48.5t-117.5 -14q-65 0 -122.5 14.5t-113 51t-95 91.5t-63.5 141.5t-24 196.5z" />
<glyph unicode="&#x10b;" horiz-adv-x="782" d="M312 1434h160v-158h-160v158zM75 344v338q0 79 18.5 142t49.5 103t73 66.5t85.5 37.5t91.5 11q60 0 112.5 -17.5t99.5 -55t75.5 -107.5t30.5 -165v-41h-150q-5 247 -167 247q-38 0 -66.5 -13.5t-52 -45.5t-35.5 -92t-12 -146v-186q1 -166 43.5 -231.5t123.5 -65.5 q162 0 166 247h150v-39q-2 -95 -30.5 -165.5t-75.5 -108.5t-99.5 -55.5t-112.5 -17.5q-48 0 -91.5 11t-85.5 37.5t-73 66.5t-49.5 103t-18.5 142z" />
<glyph unicode="&#x10c;" horiz-adv-x="993" d="M650 1849h124l-192 -290h-170l-192 291h124l153 -167zM110 479v477q0 110 24 197t64 142t95 91t112.5 51t122.5 15q78 0 146 -23.5t127.5 -75t96 -146.5t40.5 -224v-37h-181l-1 33q-8 156 -69.5 227t-158.5 71q-106 0 -169.5 -79t-63.5 -258v-444q0 -179 63.5 -258.5 t169.5 -79.5q96 0 157 70t71 225l1 37h181v-35q-3 -105 -27.5 -187.5t-64 -134.5t-92.5 -86.5t-108.5 -48.5t-117.5 -14q-65 0 -122.5 14.5t-113 51t-95 91.5t-63.5 141.5t-24 196.5z" />
<glyph unicode="&#x10d;" horiz-adv-x="782" d="M545 1440h123l-191 -291h-171l-191 291h123l154 -167zM75 344v338q0 79 18.5 142t49.5 103t73 66.5t85.5 37.5t91.5 11q60 0 112.5 -17.5t99.5 -55t75.5 -107.5t30.5 -165v-41h-150q-5 247 -167 247q-38 0 -66.5 -13.5t-52 -45.5t-35.5 -92t-12 -146v-186 q1 -166 43.5 -231.5t123.5 -65.5q162 0 166 247h150v-39q-2 -95 -30.5 -165.5t-75.5 -108.5t-99.5 -55.5t-112.5 -17.5q-48 0 -91.5 11t-85.5 37.5t-73 66.5t-49.5 103t-18.5 142z" />
<glyph unicode="&#x10e;" horiz-adv-x="1007" d="M590 1558h-170l-192 292h124l153 -167l153 166h124zM112 1434h377q64 0 121 -13.5t112 -49t94.5 -90t64 -142.5t24.5 -201v-442q0 -113 -24.5 -201t-64 -142.5t-94.5 -90t-112 -49t-121 -13.5h-377v1434zM724 513v409q0 178 -65.5 257.5t-169.5 79.5h-197v-1084h197 q104 0 169.5 80t65.5 258z" />
<glyph unicode="&#x10f;" horiz-adv-x="1062" d="M561 927v507h154v-1434h-112l-18 121q-71 -137 -234 -137q-42 0 -80 10.5t-74.5 37t-63 66.5t-42.5 103t-16 143v338q0 80 16 143t42.5 103t63 66.5t74.5 37t80 10.5q145 0 210 -115zM807 1434h172v-171l-65 -169h-64l30 169h-73v171zM228 606v-186q0 -86 12.5 -145.5 t36 -91.5t52 -46t67.5 -14t67.5 13.5t51.5 46t34.5 92t11.5 145.5v186q0 166 -43.5 231.5t-122.5 65.5q-37 0 -65.5 -13.5t-52.5 -45.5t-36.5 -92t-12.5 -146z" />
<glyph unicode="&#x110;" horiz-adv-x="1007" d="M128 1434h377q64 0 121 -13.5t112 -49t94.5 -90t64 -142.5t24.5 -201v-442q0 -113 -24.5 -201t-64 -142.5t-94.5 -90t-112 -49t-121 -13.5h-377v637h-116v139h116v658zM741 513v409q0 178 -66 257.5t-170 79.5h-197v-482h186v-140h-186v-462h197q104 0 170 80t66 258z " />
<glyph unicode="&#x111;" horiz-adv-x="839" d="M862 1312v-138h-147v-1174h-112l-18 121q-71 -137 -234 -137q-42 0 -80 10.5t-74.5 37t-63 66.5t-42.5 103t-16 143v338q0 80 16 143t42.5 103t63 66.5t74.5 37t80 10.5q145 0 210 -115v247h-171v138h171v122h154v-122h147zM228 606v-186q0 -86 12.5 -145.5t36 -91.5 t52 -46t67.5 -14t67.5 13.5t51.5 46t34.5 92t11.5 145.5v186q0 166 -43.5 231.5t-122.5 65.5q-37 0 -65.5 -13.5t-52.5 -45.5t-36.5 -92t-12.5 -146z" />
<glyph unicode="&#x112;" horiz-adv-x="788" d="M108 1843h576v-139h-576v139zM112 1434h620v-175h-440v-440h420v-174h-420v-470h440v-175h-620v1434z" />
<glyph unicode="&#x113;" horiz-adv-x="784" d="M105 1434h576v-140h-576v140zM75 344l-1 338q0 98 28 171t75.5 112.5t101 58t114.5 18.5q48 0 91.5 -10.5t86 -37t73.5 -66.5t50 -103t19 -143v-231h-485v-77q0 -139 44 -195t123 -56q156 0 165 212h153q-1 -96 -30 -167.5t-76.5 -109.5t-100.5 -56t-113 -18 q-48 0 -91.5 11t-85.5 37.5t-73 66.5t-49.5 103t-18.5 142zM559 567v94q-1 242 -165 242q-165 0 -166 -243v-93h331z" />
<glyph unicode="&#x116;" horiz-adv-x="788" d="M316 1844h159v-158h-159v158zM112 1434h620v-175h-440v-440h420v-174h-420v-470h440v-175h-620v1434z" />
<glyph unicode="&#x117;" horiz-adv-x="784" d="M313 1276v158h159v-158h-159zM75 344l-1 338q0 98 28 171t75.5 112.5t101 58t114.5 18.5q48 0 91.5 -10.5t86 -37t73.5 -66.5t50 -103t19 -143v-231h-485v-77q0 -139 44 -195t123 -56q156 0 165 212h153q-1 -96 -30 -167.5t-76.5 -109.5t-100.5 -56t-113 -18 q-48 0 -91.5 11t-85.5 37.5t-73 66.5t-49.5 103t-18.5 142zM559 567v94q-1 242 -165 242q-165 0 -166 -243v-93h331z" />
<glyph unicode="&#x118;" horiz-adv-x="788" d="M112 1434h620v-175h-440v-440h420v-174h-420v-470h440v-175h-74q-33 -29 -51 -47.5t-35 -50t-16 -61.5q1 -38 24.5 -54.5t67.5 -18.5h27v-115h-30q-208 3 -219 144q-2 35 7.5 66.5t32 60t35 41t37.5 35.5h-426v1434z" />
<glyph unicode="&#x119;" horiz-adv-x="784" d="M75 344v338q0 79 18.5 142t49.5 103t73 66.5t85.5 37.5t91.5 11t91.5 -10.5t86 -37t73.5 -66.5t50 -103t19 -143v-231h-485v-77q0 -139 44 -195t122 -56q157 0 166 212h153q-3 -227 -153 -308l-13 -7q-26 -21 -38 -32t-31 -31.5t-26.5 -41.5t-6.5 -44q1 -38 24.5 -54.5 t67.5 -18.5h28v-116h-31q-208 3 -219 144q-1 36 14 69t30.5 50.5t41.5 40.5q-23 -2 -42 1q-57 4 -105 25t-89.5 61.5t-65.5 109.5t-24 161zM559 568v93q-1 242 -166 242q-164 0 -165 -243v-92h331z" />
<glyph unicode="&#x11a;" horiz-adv-x="788" d="M548 1849h124l-192 -290h-170l-192 291h124l153 -167zM112 1434h620v-175h-440v-440h420v-174h-420v-470h440v-175h-620v1434z" />
<glyph unicode="&#x11b;" horiz-adv-x="784" d="M545 1440h124l-192 -291h-170l-192 291h124l153 -167zM75 344l-1 338q0 98 28 171t75.5 112.5t101 58t114.5 18.5q48 0 91.5 -10.5t86 -37t73.5 -66.5t50 -103t19 -143v-231h-485v-77q0 -139 44 -195t123 -56q156 0 165 212h153q-1 -96 -30 -167.5t-76.5 -109.5 t-100.5 -56t-113 -18q-48 0 -91.5 11t-85.5 37.5t-73 66.5t-49.5 103t-18.5 142zM559 567v94q-1 242 -165 242q-165 0 -166 -243v-93h331z" />
<glyph unicode="&#x11e;" horiz-adv-x="1042" d="M649 1843h135q-11 -98 -86.5 -164t-176.5 -66t-176 66t-86 164h135q11 -42 46.5 -69.5t80.5 -27.5q46 0 81.5 27t46.5 70zM110 479v477q0 110 23.5 196.5t62.5 142t93.5 91.5t111.5 51t122 15q63 0 119 -14t110 -49.5t93 -89t64 -138.5t26 -193v-21h-176v14 q-5 166 -70 241t-166 75q-106 0 -169.5 -79t-63.5 -258v-444q0 -179 63.5 -258.5t169.5 -79.5q104 0 170 78t66 254v118h-225v175h402v-304q0 -110 -24 -197t-63.5 -142t-94 -91t-111 -50.5t-120.5 -14.5q-82 0 -152 25t-130.5 79.5t-95.5 154.5t-35 236z" />
<glyph unicode="&#x11f;" d="M529 1434h134q-11 -98 -86 -164.5t-176 -66.5t-176 66.5t-86 164.5h134q11 -42 47 -70t81 -28q46 0 81.5 27.5t46.5 70.5zM75 360l-1 322q0 99 24 172t65 112.5t87.5 57.5t100.5 18q162 0 234 -134l18 117h112v-1021q-1 -78 -20 -140.5t-49.5 -102t-72.5 -66t-85.5 -37 t-91.5 -10.5q-109 0 -195 58.5t-112 186.5h157q35 -106 149 -106q77 0 121.5 53t44.5 182v96q-65 -118 -210 -118q-42 0 -80 10.5t-74.5 37t-63 66.5t-42.5 103t-16 143zM561 429v177q1 165 -42.5 231t-122.5 66q-51 0 -86 -24t-58.5 -92t-23.5 -181v-177q0 -165 44 -231 t123 -66q38 0 66.5 14t52 46t35.5 91.5t12 145.5z" />
<glyph unicode="&#x120;" horiz-adv-x="1042" d="M442 1686v158h160v-158h-160zM110 479v477q0 110 23.5 197t63 142t93.5 91t111.5 51t122.5 15q63 0 119 -14t109.5 -49.5t93 -89t64 -138.5t25.5 -193v-21h-176v14q-5 166 -69.5 241t-165.5 75q-106 0 -170 -79t-64 -258v-444q0 -179 64 -258.5t170 -79.5q49 0 89.5 17 t74 53.5t52.5 103.5t19 158v118h-225v175h402v-304q0 -110 -24 -197t-63 -142t-93.5 -91t-111 -50.5t-120.5 -14.5q-65 0 -122.5 14.5t-111.5 51t-93.5 91.5t-63 141.5t-23.5 196.5z" />
<glyph unicode="&#x121;" d="M322 1434h159v-158h-159v158zM75 360l-1 322q0 99 24 172t65 112.5t87.5 57.5t100.5 18q162 0 234 -134l18 117h112v-1022q-1 -97 -29 -169t-75.5 -111t-101 -57t-113.5 -18q-109 0 -195 58.5t-112 186.5h157q35 -106 149 -106q77 0 121 52t45 179v100 q-65 -118 -210 -118q-42 0 -80 10.5t-74.5 37t-63 66.5t-42.5 103t-16 143zM561 429v177q1 165 -42.5 231t-122.5 66q-51 0 -86 -24t-58.5 -92t-23.5 -181v-177q0 -165 44 -231t123 -66q38 0 66.5 14t52 46t35.5 91.5t12 145.5z" />
<glyph unicode="&#x122;" horiz-adv-x="1042" d="M110 479v477q0 110 23.5 197t63 142t93.5 91t111.5 51t122.5 15q63 0 119 -14t109.5 -49.5t93 -89t64 -138.5t25.5 -193v-21h-176v14q-5 166 -69.5 241t-165.5 75q-106 0 -170 -79t-64 -258v-444q0 -179 64 -258.5t170 -79.5q49 0 89.5 17t74 53.5t52.5 103.5t19 158v118 h-225v175h402v-304q0 -110 -24 -197t-63 -142t-93.5 -91t-111 -50.5t-120.5 -14.5q-65 0 -122.5 14.5t-111.5 51t-93.5 91.5t-63 141.5t-23.5 196.5zM436 -147h172v-170l-66 -169h-63l29 169h-72v170z" />
<glyph unicode="&#x123;" horiz-adv-x="798" d="M376 1582h59l-27 -156h66v-158h-159v158zM75 360l-1 322q0 99 24 172t65 112.5t87.5 57.5t100.5 18q162 0 234 -134l18 117h112v-1022q-1 -97 -29 -169t-75.5 -111t-101 -57t-113.5 -18q-109 0 -195 58.5t-112 186.5h157q35 -106 149 -106q166 0 166 233v98 q-65 -118 -210 -118q-42 0 -80 10.5t-74.5 37t-63 66.5t-42.5 103t-16 143zM561 429v177q1 165 -42.5 231t-122.5 66q-51 0 -86 -24t-58.5 -92t-23.5 -181v-177q0 -165 44 -231t123 -66q38 0 66.5 14t52 46t35.5 91.5t12 145.5z" />
<glyph unicode="&#x126;" horiz-adv-x="1241" d="M1181 1189v-161h-174v-1028h-180v645h-416v-645h-181v1028h-173v161h173v245h181v-245h416v245h180v-245h174zM827 819v209h-416v-209h416z" />
<glyph unicode="&#x127;" horiz-adv-x="882" d="M316 1166v-244q66 120 210 120q54 0 100.5 -18t87.5 -57.5t65 -112.5t24 -172v-682h-154v606q0 86 -12.5 146t-36.5 92t-52.5 45.5t-65.5 13.5q-77 0 -121.5 -58t-44.5 -201v-644h-153v1164h-192v140h192v130h153v-129h192v-139h-192z" />
<glyph unicode="&#x12a;" horiz-adv-x="409" d="M-84 1843h577v-139h-577v139zM112 0v1434h186v-1434h-186z" />
<glyph unicode="&#x12b;" horiz-adv-x="526" d="M-25 1434h577v-140h-577v140zM189 0v1024h154v-1024h-154z" />
<glyph unicode="&#x12e;" horiz-adv-x="409" d="M112 1434h186v-1434q-35 -30 -53.5 -47.5t-37.5 -50t-18 -64.5q2 -39 25 -55t67 -18h28v-116h-30q-214 3 -219 149q-1 15 1.5 30t5 27t9.5 25.5t12 22.5t14.5 21t15 18.5t17 17.5t15.5 14.5l16 14t13 11.5h-67v1434z" />
<glyph unicode="&#x12f;" horiz-adv-x="434" d="M132 1276v158h159v-158h-159zM288 1024v-1024q-27 -23 -39.5 -34.5t-32.5 -34t-28.5 -44.5t-8.5 -46q1 -73 94 -76h26v-116h-30q-215 3 -220 153q0 21 4 40.5t13 37.5t17 31t23 28.5t22.5 23t23.5 21t19 16.5h-36v1024h153z" />
<glyph unicode="&#x130;" horiz-adv-x="409" d="M125 1686v158h160v-158h-160zM112 0v1434h186v-1434h-186z" />
<glyph unicode="&#x131;" horiz-adv-x="423" d="M135 0v1024h154v-1024h-154z" />
<glyph unicode="&#x132;" horiz-adv-x="1073" d="M112 1434h186v-1434h-186v1434zM783 1434h180v-955q0 -106 -22.5 -191t-59.5 -140t-88.5 -92t-105 -53.5t-112.5 -18.5h-83v174h48q106 4 174.5 84t68.5 254v938z" />
<glyph unicode="&#x133;" horiz-adv-x="884" d="M92 1345h172v-160h-172v160zM628 1344h170v-157h-170v157zM102 1024h153v-1024h-153v1024zM636 1024h154v-1017q0 -107 -19.5 -179t-59 -110.5t-86 -54t-112.5 -17.5h-72v139h25q51 1 81 11t51.5 39t29.5 80t8 135v974z" />
<glyph unicode="&#x136;" horiz-adv-x="1034" d="M460 732l490 -732h-213l-439 643v-643h-186v1434h186v-607l403 607h208zM432 -317v170h172v-170l-66 -169h-63l29 169h-72z" />
<glyph unicode="&#x137;" horiz-adv-x="763" d="M376 525l322 -525h-162l-296 443v-443h-153v1434h153v-826l279 416h162zM297 -317v170h172v-170l-66 -169h-63l29 169h-72z" />
<glyph unicode="&#x139;" d="M365 1862h189l-181 -288h-126zM112 1434h180v-1259h424v-175h-604v1434z" />
<glyph unicode="&#x13a;" horiz-adv-x="395" d="M169 1825h188l-181 -288h-125zM92 0v1434h154v-1434h-154z" />
<glyph unicode="&#x13b;" d="M292 175h424v-175h-604v1434h180v-1259zM315 -317v170h172v-170l-66 -169h-63l30 169h-73z" />
<glyph unicode="&#x13c;" horiz-adv-x="325" d="M246 1434v-1434h-154v1434h154zM79 -147h172v-170l-66 -169h-64l30 169h-72v170z" />
<glyph unicode="&#x13d;" horiz-adv-x="917" d="M618 1094l29 169h-72v171h172v-171l-66 -169h-63zM292 175h424v-175h-604v1434h180v-1259z" />
<glyph unicode="&#x13e;" horiz-adv-x="536" d="M93 0v1434h153v-1434h-153zM348 1434h172v-171l-66 -169h-64l30 169h-72v171z" />
<glyph unicode="&#x13f;" horiz-adv-x="894" d="M292 175h424v-175h-604v1434h180v-1259zM603 642v105h108v-105h-108z" />
<glyph unicode="&#x140;" horiz-adv-x="606" d="M92 0v1434h154v-1434h-154zM386 609v171h172v-171h-172z" />
<glyph unicode="&#x141;" horiz-adv-x="944" d="M396 175h465v-175h-645v684l-188 -106v181l188 106v569h180v-517l191 107v-181l-191 -107v-561z" />
<glyph unicode="&#x142;" horiz-adv-x="630" d="M596 1024v-180l-203 -111v-733h-155v687l-201 -108v180l201 109v566h155v-520z" />
<glyph unicode="&#x143;" horiz-adv-x="1036" d="M483 1862h189l-181 -288h-126zM754 1434h175v-1434h-177l-470 1023v-1023h-176v1434h178l470 -1023v1023z" />
<glyph unicode="&#x144;" horiz-adv-x="808" d="M369 1453h189l-181 -288h-126zM200 1024l20 -119q71 137 232 137q42 0 80 -10.5t74.5 -37t63 -66.5t42.5 -103t16 -143v-682h-153v606q0 86 -12.5 146t-36.5 92t-52.5 45.5t-65.5 13.5q-77 0 -122 -58t-45 -201v-644h-153v1024h112z" />
<glyph unicode="&#x145;" horiz-adv-x="1036" d="M754 1434h175v-1434h-177l-470 1023v-1023h-176v1434h178l470 -1023v1023zM433 -317v170h172v-170l-65 -169h-64l30 169h-73z" />
<glyph unicode="&#x146;" horiz-adv-x="808" d="M199 1024l21 -119q71 137 232 137q42 0 80 -10.5t74.5 -37t63 -66.5t42.5 -103t16 -143v-682h-153v606q0 86 -12.5 146t-36.5 92t-52.5 45.5t-65.5 13.5q-77 0 -122 -58t-45 -201v-644h-153v1024h111zM319 -317v170h172v-170l-66 -169h-63l29 169h-72z" />
<glyph unicode="&#x147;" horiz-adv-x="1036" d="M672 1849h124l-192 -290h-170l-192 291h124l153 -167zM754 1434h175v-1434h-177l-470 1023v-1023h-176v1434h178l470 -1023v1023z" />
<glyph unicode="&#x148;" horiz-adv-x="808" d="M558 1440h123l-191 -291h-171l-191 291h123l154 -167zM199 1024l21 -119q71 137 232 137q42 0 80 -10.5t74.5 -37t63 -66.5t42.5 -103t16 -143v-682h-153v606q0 86 -12.5 146t-36.5 92t-52.5 45.5t-65.5 13.5q-77 0 -122 -58t-45 -201v-644h-153v1024h111z" />
<glyph unicode="&#x14a;" horiz-adv-x="1228" d="M882 1434h180v-1393q0 -117 -22 -195.5t-66 -121t-97.5 -59.5t-129.5 -18h-70v171h40q45 0 71.5 6.5t48.5 27t31.5 60t11.5 103.5l-460 1040v-1055h-181v1434h178l465 -1055v1055z" />
<glyph unicode="&#x14b;" horiz-adv-x="819" d="M204 1024l20 -119q71 137 232 137q54 0 100.5 -18t87.5 -57.5t65 -112.5t24 -172v-675q0 -108 -20 -181t-60.5 -111t-88.5 -53t-116 -16h-64v139h21q51 1 80.5 9.5t52.5 34t32 73.5t9 128v601q0 151 -45 211.5t-122 60.5t-121.5 -58t-44.5 -201v-644h-154v1024h112z" />
<glyph unicode="&#x14c;" horiz-adv-x="1034" d="M231 1843h576v-139h-576v139zM98 479v477q0 110 24 197t64 142t95 91t112.5 51t122.5 15q64 0 121.5 -14.5t113 -50.5t96 -91t65 -142.5t24.5 -197.5v-477q0 -110 -24.5 -197t-65 -142t-96 -91t-113 -50.5t-121.5 -14.5q-65 0 -122.5 14.5t-113 51t-95 91.5t-63.5 141.5 t-24 196.5zM751 496v444q0 178 -65.5 257.5t-169.5 79.5q-106 0 -169.5 -79t-63.5 -258v-444q0 -179 63.5 -258.5t169.5 -79.5q104 0 169.5 80t65.5 258z" />
<glyph unicode="&#x14d;" horiz-adv-x="788" d="M108 1434h576v-140h-576v140zM75 344v338q0 79 18.5 142t49.5 103t73 66.5t85.5 37.5t91.5 11t92 -10.5t86.5 -37t73.5 -66.5t50 -103t19 -143v-338q0 -80 -19 -143t-50 -103t-73.5 -66.5t-86.5 -37t-92 -10.5t-91.5 11t-85.5 37.5t-73 66.5t-49.5 103t-18.5 142z M561 420v186q0 165 -45 231t-122 66q-38 0 -66.5 -13.5t-52 -45.5t-35.5 -92t-12 -146v-186q1 -166 43.5 -231.5t123.5 -65.5q79 0 123 66t43 231z" />
<glyph unicode="&#x150;" horiz-adv-x="1034" d="M359 1862h177l-181 -288h-114zM620 1862h177l-181 -288h-114zM98 479v477q0 110 24 197t64 142t95 91t112.5 51t122.5 15q64 0 121.5 -14.5t113 -50.5t96 -91t65 -142.5t24.5 -197.5v-477q0 -110 -24.5 -197t-65 -142t-96 -91t-113 -50.5t-121.5 -14.5q-65 0 -122.5 14.5 t-113 51t-95 91.5t-63.5 141.5t-24 196.5zM751 496v444q0 178 -65.5 257.5t-169.5 79.5q-106 0 -169.5 -79t-63.5 -258v-444q0 -179 63.5 -258.5t169.5 -79.5q104 0 169.5 80t65.5 258z" />
<glyph unicode="&#x151;" horiz-adv-x="833" d="M268 1453h177l-181 -288h-114zM529 1453h177l-181 -288h-114zM75 344v338q0 79 18.5 142t49.5 103t73 66.5t85.5 37.5t91.5 11t92 -10.5t86.5 -37t73.5 -66.5t50 -103t19 -143v-338q0 -80 -19 -143t-50 -103t-73.5 -66.5t-86.5 -37t-92 -10.5t-91.5 11t-85.5 37.5 t-73 66.5t-49.5 103t-18.5 142zM561 420v186q0 165 -45 231t-122 66q-38 0 -66.5 -13.5t-52 -45.5t-35.5 -92t-12 -146v-186q1 -166 43.5 -231.5t123.5 -65.5q79 0 123 66t43 231z" />
<glyph unicode="&#x152;" horiz-adv-x="1525" d="M75 479v477q0 110 24 197t64 142t95 91t112.5 51t122.5 15q89 0 165 -36.5t121 -117.5v136h621v-175h-441v-440h420v-174h-420v-470h441v-175h-621v138q-45 -81 -121 -117.5t-165 -36.5q-65 0 -122.5 14.5t-113 51t-95 91.5t-63.5 141.5t-24 196.5zM728 496v444 q0 178 -65.5 257.5t-169.5 79.5q-106 0 -170 -79t-64 -258v-444q0 -179 64 -258.5t170 -79.5q104 0 169.5 80t65.5 258z" />
<glyph unicode="&#x153;" horiz-adv-x="1419" d="M139 344v338q0 98 24.5 171t66 112.5t88.5 58t101 18.5q188 0 253 -165q39 86 112 125.5t161 39.5q61 0 114.5 -18t101 -57.5t75.5 -112.5t28 -172v-231h-484v-79q0 -137 44 -193t122 -56q156 0 165 212h153q-1 -78 -20.5 -139.5t-50.5 -100.5t-73 -64.5t-85 -36 t-90 -10.5q-88 0 -160.5 39.5t-111.5 125.5q-65 -165 -254 -165q-54 0 -101 18.5t-88.5 58t-66 112.5t-24.5 171zM625 420v186q0 165 -45 231t-122 66q-79 0 -122 -65.5t-43 -231.5v-186q1 -166 43 -231.5t123 -65.5q79 0 123 66t43 231zM1109 590v95q-3 218 -164 218 t-165 -218v-95h329z" />
<glyph unicode="&#x154;" horiz-adv-x="989" d="M460 1862h189l-181 -288h-126zM112 1433h333q66 0 126.5 -11t119 -39t101 -70t68.5 -108.5t26 -150.5v-69q0 -125 -62.5 -203.5t-163.5 -114.5l246 -667h-191l-228 581l-195 8v-589h-180v1433zM709 1011v18q0 65 -20.5 112t-56 71.5t-75.5 35.5t-87 11h-178v-479h178 q47 0 87 11.5t75.5 36.5t56 71.5t20.5 111.5z" />
<glyph unicode="&#x155;" horiz-adv-x="550" d="M241 1453h189l-182 -288h-125zM199 1024l26 -146q42 80 110.5 122t150.5 42v-138q-113 0 -178.5 -75t-66.5 -232v-597h-153v1024h111z" />
<glyph unicode="&#x156;" horiz-adv-x="989" d="M112 1433h333q66 0 126.5 -11t119 -39t101 -70t68.5 -108.5t26 -150.5v-69q0 -125 -62.5 -203.5t-163.5 -114.5l246 -667h-191l-228 581l-195 8v-589h-180v1433zM709 1011v18q0 65 -20.5 112t-56 71.5t-75.5 35.5t-87 11h-178v-479h178q47 0 87 11.5t75.5 36.5t56 71.5 t20.5 111.5zM410 -147h172v-170l-66 -169h-63l29 169h-72v170z" />
<glyph unicode="&#x157;" horiz-adv-x="550" d="M199 1024l26 -146q42 80 110.5 122t150.5 42v-138q-113 0 -178.5 -75t-66.5 -232v-597h-153v1024h111zM194 -317v170h172v-170l-66 -169h-64l30 169h-72z" />
<glyph unicode="&#x158;" horiz-adv-x="989" d="M649 1849h123l-191 -290h-171l-191 291h123l154 -167zM112 1433h333q66 0 126.5 -11t119 -39t101 -70t68.5 -108.5t26 -150.5v-69q0 -125 -62.5 -203.5t-163.5 -114.5l246 -667h-191l-228 581l-195 8v-589h-180v1433zM709 1011v18q0 65 -20.5 112t-56 71.5t-75.5 35.5 t-87 11h-178v-479h178q47 0 87 11.5t75.5 36.5t56 71.5t20.5 111.5z" />
<glyph unicode="&#x159;" horiz-adv-x="550" d="M429 1440h124l-192 -291h-170l-192 291h124l153 -167zM199 1024l26 -146q42 80 110.5 122t150.5 42v-138q-113 0 -178.5 -75t-66.5 -232v-597h-153v1024h111z" />
<glyph unicode="&#x15a;" horiz-adv-x="997" d="M464 1862h189l-182 -288h-125zM79 437h176q0 -73 21 -129t56.5 -87.5t77 -47t87.5 -15.5q114 0 178 61t64 178q0 49 -12.5 87t-33.5 64.5t-57 47.5t-74 35t-92 28q-36 9 -62.5 17.5t-66.5 25t-68.5 35t-60.5 49t-52 66t-33 86t-13 109.5q0 88 22.5 158.5t60 116 t89.5 75.5t106.5 42.5t115.5 12.5q60 0 114.5 -14t106.5 -48t89.5 -85t60.5 -130.5t23 -178.5h-174q0 139 -63.5 210t-156.5 71t-153 -57t-60 -163q1 -26 6.5 -49.5t12.5 -41.5t21.5 -34t25 -27t31 -22t32 -16.5t35 -13t32.5 -10t32.5 -8.5t28.5 -7q193 -47 280.5 -151 t87.5 -264q0 -95 -22.5 -169.5t-61 -122.5t-93.5 -79.5t-115.5 -44.5t-130.5 -13q-62 0 -119.5 14t-112.5 47.5t-95.5 84t-65 129.5t-25.5 178z" />
<glyph unicode="&#x15b;" horiz-adv-x="763" d="M346 1453h189l-181 -288h-126zM215 311v-21q3 -88 51 -127.5t116 -39.5q77 0 122 38t45 120q0 85 -47.5 129.5t-144.5 69.5q-273 60 -273 280q0 142 85 212t217 70q79 0 145.5 -31t111.5 -100.5t48 -167.5v-20h-154v19q-4 84 -46.5 122.5t-103.5 38.5q-150 0 -150 -134 q1 -38 17 -66.5t45.5 -46.5t51 -26.5t54.5 -17.5q162 -39 229.5 -120.5t67.5 -202.5q0 -154 -88.5 -229.5t-231.5 -75.5q-58 0 -113 18.5t-101 54t-75 95t-31 134.5v25h153z" />
<glyph unicode="&#x15e;" horiz-adv-x="997" d="M79 437h175q0 -73 21 -129t56.5 -87.5t77.5 -47t88 -15.5q114 0 178 61t64 178q0 61 -17.5 105t-55.5 73.5t-83 48t-113 36.5q-37 9 -63 17.5t-66 25t-68.5 35t-60.5 48.5t-52 65.5t-33 86t-13 109.5q0 88 22.5 158.5t60 116t89.5 75.5t106.5 42.5t115.5 12.5 q60 0 114.5 -14t106.5 -48t89.5 -85t60.5 -130.5t23 -178.5h-174q0 139 -63.5 210t-156.5 71t-153 -56.5t-60 -162.5q1 -26 6.5 -49.5t12.5 -41.5t22 -34.5t25 -27t31 -22t31.5 -17t35 -13t32 -10t33 -8.5t28.5 -7q193 -47 280.5 -151t87.5 -264q0 -180 -76.5 -280 t-206.5 -132v-96q-2 -135 -52 -194.5t-177 -61.5h-46v117h45q57 2 79.5 34t23.5 104v84h-59q-71 6 -133.5 33t-117.5 78t-87.5 138t-33.5 200z" />
<glyph unicode="&#x15f;" horiz-adv-x="763" d="M215 311v-22q2 -60 28.5 -99t61 -53t77.5 -14q77 0 122 38t45 120q0 85 -47.5 129.5t-144.5 69.5q-273 60 -273 280q0 142 85 212t217 70q123 0 211.5 -77t93.5 -219v-23h-154v22q-4 82 -47 120t-103 38q-150 0 -150 -134q1 -38 17 -66.5t45.5 -46.5t51 -26.5t54.5 -17.5 q162 -39 229.5 -120.5t67.5 -202.5q0 -218 -182 -283v-97q-2 -139 -51.5 -198.5t-178.5 -61.5h-45v116h42q58 2 81 34.5t24 104.5v87q-41 -2 -62 0q-50 7 -95.5 27t-84.5 55t-62.5 90t-25.5 123v25h153z" />
<glyph unicode="&#x160;" horiz-adv-x="997" d="M652 1849h124l-192 -290h-170l-192 291h124l153 -167zM79 437h175q0 -73 21 -129t56.5 -87.5t77.5 -47t88 -15.5q114 0 178 61t64 178q0 49 -12.5 87t-33.5 64.5t-57 47.5t-74 35t-92 28q-36 9 -62.5 17.5t-66.5 25t-68.5 35t-60.5 49t-52 66t-33 86t-13 109.5 q0 88 22.5 158.5t60 116t89.5 75.5t106.5 42.5t115.5 12.5q60 0 114.5 -14t106.5 -48t89.5 -85t60.5 -130.5t23 -178.5h-174q0 139 -63.5 210t-156.5 71t-153 -57t-60 -163q1 -26 6.5 -49.5t12.5 -41.5t21.5 -34t25 -27t31 -22t32 -16.5t35 -13t32.5 -10t32.5 -8.5t28.5 -7 q193 -47 280.5 -151t87.5 -264q0 -95 -22.5 -169.5t-61 -122.5t-93.5 -79.5t-115.5 -44.5t-130.5 -13q-62 0 -119.5 14t-112.5 47.5t-95.5 84t-65 129.5t-25.5 178z" />
<glyph unicode="&#x161;" horiz-adv-x="763" d="M535 1440h124l-192 -291h-170l-192 291h124l153 -167zM215 311v-21q3 -88 51 -127.5t116 -39.5q77 0 122 38t45 120q0 85 -47.5 129.5t-144.5 69.5q-273 60 -273 280q0 142 85 212t217 70q79 0 145.5 -31t111.5 -100.5t48 -167.5v-20h-154v19q-4 84 -46.5 122.5 t-103.5 38.5q-150 0 -150 -134q1 -38 17 -66.5t45.5 -46.5t51 -26.5t54.5 -17.5q162 -39 229.5 -120.5t67.5 -202.5q0 -154 -88.5 -229.5t-231.5 -75.5q-58 0 -113 18.5t-101 54t-75 95t-31 134.5v25h153z" />
<glyph unicode="&#x162;" horiz-adv-x="905" d="M84 1434h738v-175h-279v-1340q0 -144 -50 -206.5t-182 -63.5h-44v116h42q60 1 82.5 34.5t24.5 110.5v90h-53v1259h-279v175z" />
<glyph unicode="&#x163;" horiz-adv-x="626" d="M210 1337h153v-313h196v-138h-196v-490q0 -91 8 -144.5t30 -83t51 -38.5t81 -10h26v-138h-19q-51 0 -81 4v-78q-5 -121 -56.5 -174.5t-173.5 -55.5h-45v116h43q58 2 81 36t24 108v81q-61 33 -91.5 111t-30.5 223v533h-141v138h141v313z" />
<glyph unicode="&#x164;" horiz-adv-x="905" d="M606 1849h124l-192 -290h-170l-192 291h124l153 -167zM822 1434v-175h-279v-1259h-180v1259h-279v175h738z" />
<glyph unicode="&#x165;" horiz-adv-x="770" d="M480 1448h159v-158l-61 -155h-58l27 155h-67v158zM210 1337h153v-313h196v-138h-196v-490q0 -119 17 -178t50 -78t100 -20h29v-138h-67q-68 0 -115.5 15t-87.5 53.5t-59.5 113.5t-19.5 189v533h-141v138h141v313z" />
<glyph unicode="&#x166;" horiz-adv-x="905" d="M84 1434h738v-175h-279v-410h178v-138h-178v-711h-180v711h-169v138h169v410h-279v175z" />
<glyph unicode="&#x167;" horiz-adv-x="626" d="M559 886h-196v-193h197v-138h-197v-182q1 -83 10 -133t31 -76.5t50 -35t76 -8.5h29v-138h-67q-68 0 -115.5 15t-87.5 53.5t-59.5 113.5t-19.5 189v202h-141v138h141v193h-141v138h141v313h153v-313h196v-138z" />
<glyph unicode="&#x16a;" horiz-adv-x="1040" d="M233 1843h576v-139h-576v139zM292 488v946h-180v-963q0 -109 23.5 -194.5t61.5 -139.5t92 -89t111 -49.5t122 -14.5q64 0 120.5 14t111 49t93.5 89t63 140t24 195v963h-180v-946q0 -174 -64 -252t-168 -78q-105 0 -167.5 77.5t-62.5 252.5z" />
<glyph unicode="&#x16b;" d="M114 1434h576v-140h-576v140zM567 1024h153v-1024h-111l-20 119q-71 -137 -232 -137q-54 0 -100.5 18t-87.5 57.5t-65 112.5t-24 172v682h154v-606q0 -86 12.5 -146t36.5 -92t52.5 -45.5t65.5 -13.5q77 0 121.5 58t44.5 201v644z" />
<glyph unicode="&#x16e;" horiz-adv-x="1040" d="M521 1906q86 0 147.5 -61.5t61.5 -146.5q0 -88 -61 -149t-148 -61q-88 0 -148 61t-60 149q0 85 60.5 146.5t147.5 61.5zM521 1793q-40 0 -68 -28t-28 -67q0 -41 28 -69t68 -28t68 28.5t28 68.5q0 38 -28.5 66.5t-67.5 28.5zM292 488v946h-180v-963q0 -109 23.5 -194.5 t61.5 -139.5t92 -89t111 -49.5t122 -14.5q64 0 120.5 14t111 49t93.5 89t63 140t24 195v963h-180v-946q0 -174 -64 -252t-168 -78q-105 0 -167.5 77.5t-62.5 252.5z" />
<glyph unicode="&#x16f;" d="M401 1497q86 0 147.5 -61.5t61.5 -146.5q0 -88 -61.5 -149.5t-147.5 -61.5q-87 0 -147.5 61.5t-60.5 149.5q0 85 60.5 146.5t147.5 61.5zM401 1384q-40 0 -67.5 -28t-27.5 -67q0 -41 27.5 -69.5t67.5 -28.5t68.5 29t28.5 69q0 38 -28.5 66.5t-68.5 28.5zM567 1024h153 v-1024h-111l-20 119q-71 -137 -232 -137q-54 0 -100.5 18t-87.5 57.5t-65 112.5t-24 172v682h154v-606q0 -86 12.5 -146t36.5 -92t52.5 -45.5t65.5 -13.5q77 0 121.5 58t44.5 201v644z" />
<glyph unicode="&#x170;" horiz-adv-x="1040" d="M361 1862h177l-181 -288h-114zM622 1862h177l-181 -288h-114zM292 488v946h-180v-963q0 -109 23.5 -194.5t61.5 -139.5t92 -89t111 -49.5t122 -14.5q64 0 120.5 14t111 49t93.5 89t63 140t24 195v963h-180v-946q0 -174 -64 -252t-168 -78q-105 0 -167.5 77.5t-62.5 252.5 z" />
<glyph unicode="&#x171;" d="M254 1453h177l-181 -288h-114zM515 1453h177l-181 -288h-114zM567 1024h154v-1024h-112l-20 119q-71 -137 -232 -137q-54 0 -100.5 18t-87.5 57.5t-65 112.5t-24 172v682h154v-606q0 -86 12.5 -146t36.5 -92t52.5 -45.5t65.5 -13.5q77 0 121.5 58t44.5 201v644z" />
<glyph unicode="&#x172;" horiz-adv-x="1040" d="M754 1434h180v-964q0 -306 -191 -413l-44 -58q-109 -87 -105 -161q3 -70 92 -73h27v-116h-29q-218 3 -221 153q-1 41 17.5 80t37.5 59t48 45l-44 -2q-65 0 -122 14.5t-111 49.5t-92 89t-61.5 139.5t-23.5 194.5v963h180v-946q0 -175 62.5 -252.5t167.5 -77.5 q104 0 168 78t64 252v946z" />
<glyph unicode="&#x173;" d="M567 1024h154v-1024q-28 -23 -40 -34.5t-32.5 -34t-29 -44.5t-8.5 -46q0 -73 92 -76h28v-116h-33q-208 4 -216 146q-1 15 1.5 30t5.5 27t10.5 26t12 22.5t16 21.5t16 18.5t18 18t16.5 15t17 14.5l14 12l-20 120q-36 -69 -96.5 -103.5t-135.5 -34.5q-54 0 -100.5 18 t-87.5 57.5t-65 112.5t-24 172v682h154v-606q0 -86 12.5 -146t36.5 -92t52.5 -45.5t65.5 -13.5q77 0 121.5 58t44.5 201v644z" />
<glyph unicode="&#x174;" horiz-adv-x="1622" d="M727 1850h170l192 -291h-124l-153 166l-153 -167h-124zM1356 1434h183l-298 -1434h-210l-220 1000l-221 -1000h-210l-296 1434h182l230 -1129l230 1129h170l230 -1129z" />
<glyph unicode="&#x175;" horiz-adv-x="1335" d="M582 1440h171l191 -291h-123l-154 167l-153 -167h-123zM1115 1024h155l-235 -1024h-185l-182 727l-182 -727h-185l-235 1024h155l183 -814l197 814h133l197 -814z" />
<glyph unicode="&#x176;" horiz-adv-x="1054" d="M443 1850h170l192 -291h-124l-153 166l-153 -167h-124zM782 1434h190l-354 -856v-578h-186v577l-348 857h188l253 -650z" />
<glyph unicode="&#x177;" horiz-adv-x="772" d="M302 1440h170l192 -291h-124l-153 167l-153 -167h-124zM553 1025h153v-1037q-3 -93 -31.5 -161.5t-75.5 -106t-99.5 -55t-111.5 -17.5q-51 0 -97.5 12.5t-90 40t-75.5 76.5t-45 116h158q35 -106 149 -106q77 0 121.5 53t44.5 182v97q-65 -119 -211 -119q-42 0 -80 10.5 t-74.5 37t-63 66.5t-42.5 103t-16 143v664h153v-588q0 -86 12.5 -146t36.5 -92t52.5 -45.5t65.5 -13.5q38 0 66 13.5t52 45.5t36.5 92t12.5 146v589z" />
<glyph unicode="&#x178;" horiz-adv-x="1054" d="M316 1685v158h159v-158h-159zM582 1685v158h160v-158h-160zM782 1434h190l-354 -856v-578h-186v577l-348 857h188l253 -650z" />
<glyph unicode="&#x179;" horiz-adv-x="1005" d="M468 1862h189l-181 -288h-126zM95 1434h819v-153l-637 -1105h649v-176h-847v149l640 1110h-624v175z" />
<glyph unicode="&#x17a;" horiz-adv-x="747" d="M338 1453h189l-181 -288h-126zM89 1024h586v-117l-439 -768h445v-139h-615v116l442 768h-419v140z" />
<glyph unicode="&#x17b;" horiz-adv-x="1005" d="M424 1844h160v-158h-160v158zM95 1434h819v-153l-637 -1105h649v-176h-847v149l640 1110h-624v175z" />
<glyph unicode="&#x17c;" horiz-adv-x="747" d="M294 1434h160v-158h-160v158zM89 1024h586v-117l-439 -768h445v-139h-615v116l442 768h-419v140z" />
<glyph unicode="&#x17d;" horiz-adv-x="1005" d="M657 1849h123l-191 -290h-171l-192 291h124l153 -167zM95 1434h819v-153l-637 -1105h649v-176h-847v149l640 1110h-624v175z" />
<glyph unicode="&#x17e;" horiz-adv-x="747" d="M527 1440h123l-191 -291h-171l-191 291h123l154 -167zM89 1024h586v-117l-439 -768h445v-139h-615v116l442 768h-419v140z" />
<glyph unicode="&#x192;" horiz-adv-x="722" d="M619 1444h44v-139h-28q-50 0 -78.5 -8t-52.5 -35t-38 -72.5t-28 -126.5l-8 -39h207v-139h-230l-150 -885h-154l150 885h-191v139h214l15 88q15 87 37.5 147.5t48.5 96.5t65.5 55.5t79 26t97.5 6.5z" />
<glyph unicode="&#x1cd;" horiz-adv-x="1079" d="M693 1849h124l-191 -290h-171l-192 291h124l153 -167zM425 1434h227l343 -1434h-181l-99 396h-351l-100 -396h-180zM691 578l-152 643l-152 -643h304z" />
<glyph unicode="&#x1ce;" horiz-adv-x="798" d="M554 1440h124l-192 -291h-170l-192 291h124l153 -167zM603 1024h112v-1024h-112l-17 119q-70 -135 -231 -135q-54 0 -101 18t-89 57.5t-66.5 112.5t-24.5 172v338q0 99 24.5 172t66.5 112.5t89 57.5t101 18q160 0 230 -131zM228 606v-186q0 -86 12.5 -145.5t36 -91.5 t52 -46t67.5 -14t67.5 13.5t51.5 46t34.5 92t11.5 145.5v186q0 166 -43.5 231.5t-122.5 65.5q-37 0 -65.5 -13.5t-52.5 -45.5t-36.5 -92t-12.5 -146z" />
<glyph unicode="&#x1cf;" horiz-adv-x="409" d="M358 1849h123l-191 -290h-171l-192 291h124l153 -167zM112 0v1434h186v-1434h-186z" />
<glyph unicode="&#x1d0;" horiz-adv-x="544" d="M426 1440h124l-192 -291h-170l-192 291h124l153 -167zM197 0v1024h154v-1024h-154z" />
<glyph unicode="&#x1d1;" horiz-adv-x="1034" d="M671 1849h124l-192 -290h-170l-192 291h124l153 -167zM98 479v477q0 110 24 197t64 142t95 91t112.5 51t122.5 15q64 0 121.5 -14.5t113 -50.5t96 -91t65 -142.5t24.5 -197.5v-477q0 -110 -24.5 -197t-65 -142t-96 -91t-113 -50.5t-121.5 -14.5q-65 0 -122.5 14.5 t-113 51t-95 91.5t-63.5 141.5t-24 196.5zM751 496v444q0 178 -65.5 257.5t-169.5 79.5q-106 0 -169.5 -79t-63.5 -258v-444q0 -179 63.5 -258.5t169.5 -79.5q104 0 169.5 80t65.5 258z" />
<glyph unicode="&#x1d2;" horiz-adv-x="788" d="M548 1440h124l-191 -291h-171l-192 291h124l153 -167zM75 344v338q0 79 18.5 142t49.5 103t73 66.5t85.5 37.5t91.5 11t92 -10.5t86.5 -37t73.5 -66.5t50 -103t19 -143v-338q0 -80 -19 -143t-50 -103t-73.5 -66.5t-86.5 -37t-92 -10.5t-91.5 11t-85.5 37.5t-73 66.5 t-49.5 103t-18.5 142zM561 420v186q0 165 -45 231t-122 66q-38 0 -66.5 -13.5t-52 -45.5t-35.5 -92t-12 -146v-186q1 -166 43.5 -231.5t123.5 -65.5q79 0 123 66t43 231z" />
<glyph unicode="&#x1d3;" horiz-adv-x="1040" d="M674 1849h123l-191 -290h-171l-191 291h123l154 -167zM292 488v946h-180v-963q0 -109 23.5 -194.5t61.5 -139.5t92 -89t111 -49.5t122 -14.5q64 0 120.5 14t111 49t93.5 89t63 140t24 195v963h-180v-946q0 -174 -64 -252t-168 -78q-105 0 -167.5 77.5t-62.5 252.5z" />
<glyph unicode="&#x1d4;" d="M554 1440h124l-192 -291h-170l-192 291h124l153 -167zM567 1024h153v-1024h-111l-20 119q-71 -137 -232 -137q-54 0 -100.5 18t-87.5 57.5t-65 112.5t-24 172v682h154v-606q0 -86 12.5 -146t36.5 -92t52.5 -45.5t65.5 -13.5q77 0 121.5 58t44.5 201v644z" />
<glyph unicode="&#x1d5;" horiz-adv-x="1040" d="M233 1982h576v-140h-576v140zM308 1509v158h159v-158h-159zM575 1509v158h159v-158h-159zM292 487v947h-180v-964q0 -135 34.5 -233t94.5 -151.5t129.5 -77.5t151.5 -24q64 0 120.5 14t111 49t93.5 88.5t63 139.5t24 195v964h-180v-947q0 -174 -64 -251.5t-168 -77.5 q-105 0 -167.5 77t-62.5 252z" />
<glyph unicode="&#x1d6;" d="M114 1571h576v-140h-576v140zM189 1118v158h159v-158h-159zM455 1118v158h160v-158h-160zM567 1024h153v-1024h-111l-20 119q-71 -137 -232 -137q-54 0 -100.5 18t-87.5 57.5t-65 112.5t-24 172v682h154v-606q0 -86 12.5 -146t36.5 -92t52.5 -45.5t65.5 -13.5 q77 0 121.5 58t44.5 201v644z" />
<glyph unicode="&#x1d7;" horiz-adv-x="1040" d="M490 2025h189l-181 -288h-126zM308 1667h159v-158h-159v158zM575 1667h159v-158h-159v158zM754 1434h180v-963q0 -109 -24 -195t-63 -140t-93.5 -89t-111 -49t-120.5 -14q-65 0 -122 14.5t-111 49.5t-92 89t-61.5 139.5t-23.5 194.5v963h180v-946q0 -175 62.5 -252.5 t167.5 -77.5q104 0 168 78t64 252v946z" />
<glyph unicode="&#x1d8;" d="M366 1612h189l-182 -288h-125zM189 1118v158h159v-158h-159zM455 1118v158h160v-158h-160zM567 1024h154v-1024h-112l-20 119q-71 -137 -232 -137q-54 0 -100.5 18t-87.5 57.5t-65 112.5t-24 172v682h154v-606q0 -86 12.5 -146t36.5 -92t52.5 -45.5t65.5 -13.5 q77 0 121.5 58t44.5 201v644z" />
<glyph unicode="&#x1d9;" horiz-adv-x="1040" d="M674 2010h123l-191 -291h-171l-191 291h123l154 -167zM308 1509v158h159v-158h-159zM575 1509v158h159v-158h-159zM292 488v946h-180v-963q0 -109 23.5 -194.5t61.5 -139.5t92 -89t111 -49.5t122 -14.5q64 0 120.5 14t111 49t93.5 89t63 140t24 195v963h-180v-946 q0 -174 -64 -252t-168 -78q-105 0 -167.5 77.5t-62.5 252.5z" />
<glyph unicode="&#x1da;" d="M554 1598h124l-192 -291h-170l-192 291h124l153 -167zM189 1118v158h159v-158h-159zM455 1118v158h160v-158h-160zM567 1024h153v-1024h-111l-20 119q-71 -137 -232 -137q-54 0 -100.5 18t-87.5 57.5t-65 112.5t-24 172v682h154v-606q0 -86 12.5 -146t36.5 -92 t52.5 -45.5t65.5 -13.5q77 0 121.5 58t44.5 201v644z" />
<glyph unicode="&#x1db;" horiz-adv-x="1040" d="M367 2024h189l118 -288h-126zM308 1509v158h159v-158h-159zM575 1509v158h159v-158h-159zM292 487v947h-180v-964q0 -135 34.5 -233t94.5 -151.5t129.5 -77.5t151.5 -24q64 0 120.5 14t111 49t93.5 88.5t63 139.5t24 195v964h-180v-947q0 -174 -64 -251.5t-168 -77.5 q-105 0 -167.5 77t-62.5 252z" />
<glyph unicode="&#x1dc;" d="M248 1612h189l118 -288h-126zM189 1118v158h159v-158h-159zM455 1118v158h160v-158h-160zM567 1024h154v-1024h-112l-20 119q-71 -137 -232 -137q-54 0 -100.5 18t-87.5 57.5t-65 112.5t-24 172v682h154v-606q0 -86 12.5 -146t36.5 -92t52.5 -45.5t65.5 -13.5 q77 0 121.5 58t44.5 201v644z" />
<glyph unicode="&#x218;" horiz-adv-x="997" d="M902 996h-174q0 139 -63.5 210t-156.5 71t-153 -57t-60 -163q1 -26 6.5 -49.5t12.5 -41.5t21.5 -34t25 -27t31 -22t32 -16.5t35 -13t32.5 -10t32.5 -8.5t28.5 -7q193 -47 280.5 -151t87.5 -264q0 -95 -22.5 -169.5t-61 -122.5t-93.5 -79.5t-115.5 -44.5t-130.5 -13 q-62 0 -119.5 14t-112.5 47.5t-95.5 84t-65 129.5t-25.5 178h175q0 -73 21 -129t56.5 -87.5t77.5 -47t88 -15.5q114 0 178 61t64 178q0 61 -17.5 105t-55.5 73.5t-83 48t-113 36.5q-37 9 -63 17.5t-66 25t-68.5 35t-60.5 48.5t-52 65.5t-33 86t-13 109.5q0 88 22.5 158.5 t60 116t89.5 75.5t106.5 42.5t115.5 12.5q60 0 114.5 -14t106.5 -48t89.5 -85t60.5 -130.5t23 -178.5zM414 -317v170h172v-170l-66 -169h-64l30 169h-72z" />
<glyph unicode="&#x219;" horiz-adv-x="763" d="M215 311v-21q3 -88 51 -127.5t116 -39.5q77 0 122 38t45 120q0 85 -47.5 129.5t-144.5 69.5q-273 60 -273 280q0 142 85 212t217 70q79 0 145.5 -31t111.5 -100.5t48 -167.5v-20h-154v19q-4 84 -46.5 122.5t-103.5 38.5q-150 0 -150 -134q1 -38 17 -66.5t45.5 -46.5 t51 -26.5t54.5 -17.5q162 -39 229.5 -120.5t67.5 -202.5q0 -154 -88.5 -229.5t-231.5 -75.5q-58 0 -113 18.5t-101 54t-75 95t-31 134.5v25h153zM296 -147h172v-170l-65 -169h-64l30 169h-73v170z" />
<glyph unicode="&#x21a;" horiz-adv-x="905" d="M84 1434h738v-175h-279v-1259h-180v1259h-279v175zM367 -147h172v-170l-65 -169h-64l30 169h-73v170z" />
<glyph unicode="&#x21b;" horiz-adv-x="626" d="M363 886v-490q0 -91 8 -144.5t30 -83t51 -38.5t80 -10h27v-138h-66q-54 0 -94 8.5t-77.5 32t-60.5 64t-37 107.5t-14 159v533h-141v138h141v313h153v-313h196v-138h-196zM265 -147h172v-170l-66 -169h-63l29 169h-72v170z" />
<glyph unicode="&#x2c6;" horiz-adv-x="811" d="M320 1440h171l192 -291h-124l-153 167l-153 -167h-124z" />
<glyph unicode="&#x2c7;" horiz-adv-x="811" d="M559 1440h124l-192 -291h-170l-192 291h124l153 -167z" />
<glyph unicode="&#x2d8;" horiz-adv-x="753" d="M249 1434h-134q11 -98 86 -164.5t176 -66.5t175.5 66.5t85.5 164.5h-133q-11 -42 -47 -70t-81 -28q-46 0 -81.5 27.5t-46.5 70.5z" />
<glyph unicode="&#x2d9;" horiz-adv-x="376" d="M109 1276v158h159v-158h-159z" />
<glyph unicode="&#x2da;" horiz-adv-x="665" d="M332 1497q86 0 148 -61.5t62 -146.5q0 -87 -62 -149t-148 -62q-87 0 -147.5 61.5t-60.5 149.5q0 85 60.5 146.5t147.5 61.5zM332 1384q-40 0 -67.5 -28t-27.5 -67q0 -41 27.5 -69.5t67.5 -28.5t68.5 29t28.5 69q0 38 -28.5 66.5t-68.5 28.5z" />
<glyph unicode="&#x2db;" horiz-adv-x="454" d="M222 0h119q-28 -24 -40.5 -36t-32.5 -34.5t-28 -45t-7 -46.5q1 -38 24.5 -54.5t67.5 -18.5h28v-116h-31q-208 3 -219 144q-1 19 2 37.5t7.5 33t15 31t17 26.5t20.5 24.5t19.5 20t20.5 19t17 15.5z" />
<glyph unicode="&#x2dc;" horiz-adv-x="749" d="M548 1439h117q0 -272 -157 -272q-36 0 -68 16.5t-84 63.5q-32 31 -52.5 40t-44.5 7q-32 -2 -44.5 -32t-12.5 -95h-117q0 272 156 272q40 0 70.5 -18t82.5 -63q50 -51 99 -45q31 2 43 32t12 94z" />
<glyph unicode="&#x2dd;" horiz-adv-x="815" d="M237 1453h177l-182 -288h-113zM498 1453h176l-181 -288h-113z" />
<glyph unicode="&#x326;" horiz-adv-x="0" d="M110 -154h159v-158l-61 -156h-59l28 156h-67v158z" />
<glyph unicode="&#x394;" horiz-adv-x="987" d="M914 188v-188h-842v187l307 1247h227zM241 178h505l-252 1044z" />
<glyph unicode="&#x3a9;" horiz-adv-x="1038" d="M101 545v411q0 110 24 197t64 142t95 91t112.5 51t122.5 15q64 0 121.5 -14.5t113 -50.5t96 -91t65 -142.5t24.5 -197.5v-411q0 -258 -143 -369h167v-176h-361v176q153 90 153 381v383q0 92 -18.5 159.5t-52.5 105t-75 55t-90 17.5q-105 0 -168.5 -79t-63.5 -258v-383 q0 -292 150 -380v-177h-361v176h170q-145 114 -145 369z" />
<glyph unicode="&#x3bc;" horiz-adv-x="970" d="M575 1025h153v-648q4 -254 183 -256v-139h-22q-69 3 -127.5 37t-90.5 104q-31 -73 -89 -106.5t-130 -33.5q-147 0 -211 120v-437h-153v1359h153v-644q0 -143 45 -201t122 -58q37 0 65.5 13.5t52.5 45.5t36.5 92t12.5 146v606z" />
<glyph unicode="&#x3c0;" horiz-adv-x="1099" d="M62 1024h977v-142h-183v-505q4 -254 183 -256v-139h-50q-55 2 -103 21t-90.5 58t-67.5 110t-25 167v544h-306v-882h-153v882h-182v142z" />
<glyph unicode="&#x410;" horiz-adv-x="1079" d="M814 0l-99 396h-351l-100 -396h-180l341 1434h227l343 -1434h-181zM387 578h304l-152 643z" />
<glyph unicode="&#x411;" horiz-adv-x="960" d="M112 1444h689v-175h-509v-447h174q217 -4 327.5 -109.5t110.5 -295.5v-28q-2 -189 -113 -292.5t-333 -105.5h-346v1453zM474 638h-182v-463h182q118 0 185 55t68 165l1 16q0 112 -68 169.5t-186 57.5z" />
<glyph unicode="&#x412;" horiz-adv-x="960" d="M112 1444h360q78 0 148.5 -19t130 -58t95 -107t35.5 -158v-65q0 -110 -53 -184.5t-144 -111.5q105 -39 162.5 -122t57.5 -204v-57q0 -176 -115 -271.5t-315 -95.5h-362v1453zM705 1037v14q0 61 -20 105t-55 68t-74.5 34.5t-86.5 10.5h-177v-450h177q46 0 86 11.5 t74.5 35.5t55 68t20.5 103zM721 402v14q0 119 -68.5 178t-182.5 59h-178v-488h178q117 0 184 58.5t67 178.5z" />
<glyph unicode="&#x413;" horiz-adv-x="884" d="M801 1434v-176h-509v-1258h-180v1434h689z" />
<glyph unicode="&#x414;" horiz-adv-x="1241" d="M1073 175h112v-421h-180v246h-768v-246h-181v421h71q85 21 136 100t51 228v931h759v-1259zM379 175h514v1083h-398v-772q0 -213 -116 -311z" />
<glyph unicode="&#x415;" horiz-adv-x="788" d="M732 1259h-440v-440h420v-174h-420v-470h440v-175h-620v1434h620v-175z" />
<glyph unicode="&#x416;" horiz-adv-x="1630" d="M1547 0h-198l-441 587v-587h-186v587l-440 -587h-198l498 731l-465 703h198l407 -555v555h186v-555l408 555h198l-465 -703z" />
<glyph unicode="&#x417;" horiz-adv-x="964" d="M473 1452h41q65 -2 128 -23t121.5 -63.5t95.5 -120.5t39 -180v-35q0 -113 -52.5 -190.5t-134.5 -106.5q90 -29 144.5 -112t54.5 -201v-30q-1 -103 -35 -182.5t-91 -127t-126 -71.5t-147 -25h-38q-73 2 -139.5 24.5t-126.5 69.5t-100.5 131t-49.5 196l-1 13h180 q15 -130 85.5 -195t161.5 -65h19q94 2 158.5 65.5t64.5 171.5v12q0 116 -67.5 177.5t-189.5 61.5h-123v172h123q107 0 176 56t69 169v12q0 56 -20.5 100t-53 69t-67.5 38.5t-70 14.5h-19q-88 0 -156 -61t-87 -184h-182l2 14q9 87 38 156.5t69 115t92 76t104.5 44t109.5 14.5 z" />
<glyph unicode="&#x418;" horiz-adv-x="1042" d="M755 1434h178v-1434h-181v1055l-464 -1055h-178v1434h180v-1055z" />
<glyph unicode="&#x419;" horiz-adv-x="1042" d="M655 1770h133q-11 -98 -85.5 -164t-175.5 -66t-176 66t-86 164h134q11 -43 46.5 -70t81.5 -27q45 0 81 27.5t47 69.5zM755 1434h178v-1434h-181v1055l-464 -1055h-178v1434h180v-1055z" />
<glyph unicode="&#x41a;" horiz-adv-x="1019" d="M937 0h-199l-440 587v-587h-186v1434h186v-555l407 555h199l-466 -703z" />
<glyph unicode="&#x41b;" horiz-adv-x="1179" d="M310 1434h759v-1434h-181v1258h-398v-779q0 -108 -23 -193.5t-60.5 -140.5t-90 -91.5t-106.5 -52t-114 -17.5h-39v174q51 0 94 17t80 54t58 105.5t21 161.5v938z" />
<glyph unicode="&#x41c;" horiz-adv-x="1271" d="M942 1434h219v-1434h-180v1001l-287 -1001h-117l-287 1001v-1001h-180v1434h219l307 -1133z" />
<glyph unicode="&#x41d;" horiz-adv-x="999" d="M708 1434h180v-1434h-180v645h-416v-645h-180v1434h180v-615h416v615z" />
<glyph unicode="&#x41e;" horiz-adv-x="1046" d="M104 479v477q0 110 24 197t64 142t95 91t112.5 51t122.5 15q64 0 121.5 -14.5t113 -50.5t96 -91t65 -142.5t24.5 -197.5v-477q0 -110 -24.5 -197t-65 -142t-96 -91t-113 -50.5t-121.5 -14.5q-65 0 -122.5 14.5t-113 51t-95 91.5t-63.5 141.5t-24 196.5zM757 496v444 q0 178 -65.5 257.5t-169.5 79.5q-106 0 -169.5 -79t-63.5 -258v-444q0 -179 63.5 -258.5t169.5 -79.5q104 0 169.5 80t65.5 258z" />
<glyph unicode="&#x41f;" horiz-adv-x="999" d="M112 1434h776v-1434h-180v1258h-416v-1258h-180v1434z" />
<glyph unicode="&#x420;" horiz-adv-x="976" d="M112 1433h321q66 0 126.5 -11.5t119 -39t101 -70t68.5 -108.5t26 -150v-81q0 -79 -24.5 -143.5t-65 -107t-96 -71.5t-114 -42t-122.5 -15h-160v-594h-180v1433zM698 999v30q0 65 -20.5 112t-56 72t-76 36t-87.5 11h-166v-492h166q47 0 87 11.5t76 36.5t56.5 72t20.5 111z " />
<glyph unicode="&#x421;" horiz-adv-x="993" d="M110 479v477q0 110 24 197t64 142t95 91t112.5 51t122.5 15q62 0 117.5 -14t109 -48.5t92.5 -87t64 -135.5t27 -188v-33h-181l-1 31q-8 158 -69.5 229t-158.5 71q-106 0 -169.5 -79t-63.5 -258v-444q0 -179 63.5 -258.5t169.5 -79.5q98 0 159.5 72t69.5 233v27h181v-32 q-2 -106 -27 -189t-64 -135.5t-92.5 -87t-109 -48.5t-117.5 -14q-65 0 -122.5 14.5t-113 51t-95 91.5t-63.5 141.5t-24 196.5z" />
<glyph unicode="&#x422;" horiz-adv-x="905" d="M822 1434v-175h-279v-1259h-180v1259h-279v175h738z" />
<glyph unicode="&#x423;" horiz-adv-x="1064" d="M792 1434h190l-355 -864v-570h-186v569l-357 865h189l260 -655z" />
<glyph unicode="&#x424;" horiz-adv-x="1480" d="M831 1444v-157h122q196 -5 310 -105t114 -294v-26q0 -191 -113.5 -292t-310.5 -106h-122v-464h-181v464h-123q-198 6 -310.5 106.5t-112.5 291.5v26q0 194 113.5 294t309.5 105h123v157h181zM1201 868v14q0 62 -20 106.5t-55.5 68.5t-76.5 34.5t-90 10.5h-128v-453h128 q104 0 172.5 51.5t69.5 167.5zM650 648v455h-128q-49 0 -90 -11t-76.5 -35t-55.5 -68.5t-20 -106.5v-14q1 -116 69.5 -168t172.5 -52h128z" />
<glyph unicode="&#x425;" horiz-adv-x="1042" d="M952 1434l-313 -705l321 -729h-189l-249 551l-250 -551h-188l318 727l-309 707h188l241 -540l241 540h189z" />
<glyph unicode="&#x426;" horiz-adv-x="1067" d="M888 178h124v-400h-182v222h-718v1434h180v-1259h416v1259h180v-1256z" />
<glyph unicode="&#x427;" horiz-adv-x="927" d="M659 1434h181v-1434h-181v624q-67 -123 -250 -123q-346 0 -346 360v573h181v-452q0 -86 14.5 -145t43.5 -90.5t64.5 -44.5t84.5 -13t84.5 11.5t64.5 40t44 82t15 132.5v479z" />
<glyph unicode="&#x428;" horiz-adv-x="1595" d="M1304 1434h180v-1434h-1372v1434h180v-1259h416v1259h180v-1259h416v1259z" />
<glyph unicode="&#x429;" horiz-adv-x="1662" d="M1484 178h124v-400h-181v222h-1315v1434h180v-1259h416v1259h180v-1259h416v1259h180v-1256z" />
<glyph unicode="&#x42a;" horiz-adv-x="1130" d="M421 822h171q217 -5 325.5 -109.5t109.5 -293.5v-23q0 -193 -116 -299t-342 -106h-328v1275h-162v178h342v-622zM851 401v10q0 112 -68 169.5t-186 57.5h-176v-463h176q120 0 187 57t67 169z" />
<glyph unicode="&#x42b;" horiz-adv-x="1357" d="M292 1444v-622h170q217 -5 326 -109.5t110 -293.5v-23q0 -193 -116.5 -299t-342.5 -106h-327v1453h180zM1060 1434h186v-1434h-186v1434zM292 175h175q120 0 187.5 57t67.5 169v11q0 111 -68.5 168.5t-186.5 57.5h-175v-463z" />
<glyph unicode="&#x42c;" horiz-adv-x="1001" d="M292 1444v-622h170q217 -5 326 -109.5t110 -293.5v-23q0 -193 -116.5 -299t-342.5 -106h-327v1453h180zM292 175h175q120 0 187 57t67 169v11q0 112 -68 169t-186 57h-175v-463z" />
<glyph unicode="&#x42d;" horiz-adv-x="993" d="M56 964v11q2 106 26.5 189.5t63.5 136.5t92.5 88t109.5 49t118 14q65 0 122.5 -15t112.5 -51t95 -91t64 -142t24 -197v-477q0 -110 -24 -196.5t-63.5 -141.5t-95 -91.5t-113 -51t-122.5 -14.5q-62 0 -118 14t-109.5 49t-92.5 88t-63.5 137t-26.5 190v11h180 q6 -166 68 -240.5t162 -74.5q106 0 169.5 79.5t63.5 258.5v136h-374v178h374v130q0 179 -63.5 258t-169.5 79q-100 0 -162 -74t-68 -239h-180z" />
<glyph unicode="&#x42e;" horiz-adv-x="1427" d="M485 809v147q0 110 24 197t64 142t95 91t112.5 51t122.5 15q64 0 121.5 -14.5t113 -50.5t96 -91t65 -142.5t24.5 -197.5v-477q0 -110 -24.5 -197t-65 -142t-96 -91t-113 -50.5t-121.5 -14.5q-65 0 -122.5 14.5t-113 51t-95 91.5t-63.5 141.5t-24 196.5v153h-193v-632 h-180v1434h180v-625h193zM1139 496v444q0 178 -66 257.5t-170 79.5q-106 0 -169.5 -79t-63.5 -258v-444q0 -179 63.5 -258.5t169.5 -79.5q104 0 170 80t66 258z" />
<glyph unicode="&#x42f;" horiz-adv-x="989" d="M544 1444h333v-1444h-181v617h-191l-228 -617h-193l255 671q-105 34 -170.5 114t-65.5 210v70q0 84 26 150.5t68.5 108.5t101 70t119 39t126.5 11zM696 790v480h-178q-47 0 -87 -11t-75.5 -36t-56 -72t-20.5 -112v-18q0 -65 20.5 -111.5t56 -71.5t75.5 -36.5t87 -11.5 h178z" />
<glyph unicode="&#x430;" horiz-adv-x="798" d="M603 1024h112v-1024h-112l-17 119q-70 -135 -231 -135q-54 0 -101 18t-89 57.5t-66.5 112.5t-24.5 172v338q0 99 24.5 172t66.5 112.5t89 57.5t101 18q160 0 230 -131zM228 606v-186q0 -86 12.5 -145.5t36 -91.5t52 -46t67.5 -14t67.5 13.5t51.5 46t34.5 92t11.5 145.5 v186q0 166 -43.5 231.5t-122.5 65.5q-37 0 -65.5 -13.5t-52.5 -45.5t-36.5 -92t-12.5 -146z" />
<glyph unicode="&#x431;" horiz-adv-x="798" d="M86 344v753q1 97 29 168.5t75 111t100.5 57.5t113.5 18q52 0 99 -13.5t90.5 -42.5t74 -82t40.5 -125l3 -20h-153q-34 143 -153 143q-77 0 -121 -54t-45 -187v-140q31 52 81.5 80t109.5 28q56 0 105.5 -18t93.5 -57t70 -111.5t26 -170.5v-338q0 -80 -19 -143t-50 -103 t-73.5 -66.5t-86.5 -37t-92 -10.5q-61 0 -114.5 19t-100 59.5t-74.5 113t-29 168.5zM572 420v186q0 165 -45 231t-122 66q-166 0 -166 -297v-186q1 -166 43.5 -231.5t123.5 -65.5q79 0 123 66t43 231z" />
<glyph unicode="&#x432;" horiz-adv-x="778" d="M88 1035h250q354 0 354 -297q0 -151 -115 -207q139 -65 139 -239q0 -143 -85.5 -222t-282.5 -79h-260v1044zM242 592h89q119 1 163.5 33.5t44.5 110.5q0 83 -43.5 118.5t-164.5 36.5h-89v-299zM242 130h89q132 1 183 36.5t51 124.5q0 88 -51 124t-183 37h-89v-322z" />
<glyph unicode="&#x433;" horiz-adv-x="708" d="M644 1024v-139h-402v-885h-154v1024h556z" />
<glyph unicode="&#x434;" horiz-adv-x="1009" d="M241 1024h613v-885h93v-352h-153v213h-579v-213h-153v352h55q61 15 92 73.5t32 172.5v639zM701 139l-1 746h-305v-539q-1 -136 -72 -207h378z" />
<glyph unicode="&#x435;" horiz-adv-x="784" d="M75 344l-1 338q0 98 28 171t75.5 112.5t101 58t114.5 18.5q48 0 91.5 -10.5t86 -37t73.5 -66.5t50 -103t19 -143v-231h-485v-77q0 -139 44 -195t123 -56q156 0 165 212h153q-1 -96 -30 -167.5t-76.5 -109.5t-100.5 -56t-113 -18q-48 0 -91.5 11t-85.5 37.5t-73 66.5 t-49.5 103t-18.5 142zM559 567v95q-1 131 -47 186t-118 55q-165 0 -166 -241v-95h331z" />
<glyph unicode="&#x436;" horiz-adv-x="1220" d="M1143 0h-162l-296 443v-443h-154v444l-296 -444h-162l323 525l-306 499h163l278 -417v417h154v-416l278 416h163l-306 -499z" />
<glyph unicode="&#x437;" d="M383 1042h36q146 -1 223 -78.5t77 -212.5q0 -83 -40 -144t-130 -83q192 -39 192 -260q0 -133 -93 -205.5t-230 -74.5h-36q-42 2 -82.5 12t-82 32t-72 55t-50 85t-19.5 116h151q0 -37 11.5 -66t29 -46.5t41 -29t45 -15.5t43.5 -4h8q88 0 137 43.5t48 124.5 q1 80 -51.5 119.5t-151.5 39.5h-95v140h91q101 1 147 36.5t46 110.5q-1 78 -44.5 122.5t-126.5 44.5h-7q-28 0 -55.5 -7.5t-54 -24.5t-43.5 -50.5t-17 -79.5h-152q0 64 19.5 116t50.5 85t72.5 55.5t82 32t82.5 11.5z" />
<glyph unicode="&#x438;" horiz-adv-x="821" d="M580 1024h154v-1024h-154v706l-338 -706h-154v1024h154v-704z" />
<glyph unicode="&#x439;" horiz-adv-x="821" d="M536 1434h135q-11 -98 -86.5 -164.5t-176.5 -66.5t-176 66.5t-86 164.5h135q11 -43 46.5 -70.5t80.5 -27.5q46 0 81.5 27.5t46.5 70.5zM580 1024h154v-1024h-154v706l-338 -706h-154v1024h154v-705z" />
<glyph unicode="&#x43a;" horiz-adv-x="765" d="M701 0h-163l-295 443v-443h-154v1024h154v-416l278 416h162l-305 -499z" />
<glyph unicode="&#x43b;" horiz-adv-x="944" d="M243 1024h614v-1024h-154v885h-305v-547q0 -78 -17 -139.5t-44.5 -100.5t-65.5 -65.5t-77 -37.5t-83 -13h-49v139q177 2 181 256v647z" />
<glyph unicode="&#x43c;" horiz-adv-x="937" d="M688 1024h162v-1024h-140v675l-203 -675h-77l-202 675v-675h-140v1024h162l219 -770z" />
<glyph unicode="&#x43d;" horiz-adv-x="813" d="M571 1024h154v-1024h-154v458h-329v-458h-154v1024h154v-426h329v426z" />
<glyph unicode="&#x43e;" horiz-adv-x="788" d="M75 344v338q0 79 18.5 142t49.5 103t73 66.5t85.5 37.5t91.5 11t92 -10.5t86.5 -37t73.5 -66.5t50 -103t19 -143v-338q0 -80 -19 -143t-50 -103t-73.5 -66.5t-86.5 -37t-92 -10.5t-91.5 11t-85.5 37.5t-73 66.5t-49.5 103t-18.5 142zM561 420v186q0 165 -45 231t-122 66 q-38 0 -66.5 -13.5t-52 -45.5t-35.5 -92t-12 -146v-186q1 -166 43.5 -231.5t123.5 -65.5q79 0 123 66t43 231z" />
<glyph unicode="&#x43f;" horiz-adv-x="813" d="M88 1024h637v-1024h-154v885h-329v-885h-154v1024z" />
<glyph unicode="&#x440;" d="M198 1025l18 -121q71 137 234 137q54 0 100.5 -18t87.5 -57.5t65 -112.5t24 -172v-338q0 -99 -24 -172t-65 -112.5t-87.5 -58t-100.5 -18.5q-144 0 -210 116v-432h-153v1359h111zM573 418v187q0 86 -12.5 145.5t-36 91.5t-52 46t-67.5 14t-67.5 -13.5t-51 -46.5t-34 -92 t-11.5 -145v-187q0 -86 12 -145.5t35.5 -91.5t51.5 -45.5t66 -13.5q37 0 65.5 13.5t52.5 45t36.5 91.5t12.5 146z" />
<glyph unicode="&#x441;" horiz-adv-x="782" d="M75 344l-1 338q0 98 28 171t75.5 112.5t101 58t114.5 18.5q60 0 112.5 -17.5t99.5 -55.5t75.5 -108.5t30.5 -166.5v-38h-150q-5 247 -167 247q-38 0 -66.5 -13.5t-52 -45.5t-35.5 -92t-12 -146v-186q1 -166 43.5 -231.5t123.5 -65.5q162 0 166 247h150v-38 q-2 -96 -30.5 -166.5t-75.5 -108.5t-99.5 -55.5t-112.5 -17.5q-48 0 -91.5 11t-85.5 37.5t-73 66.5t-49.5 103t-18.5 142z" />
<glyph unicode="&#x442;" horiz-adv-x="790" d="M66 1024h659v-139h-252v-885h-154v884h-253v140z" />
<glyph unicode="&#x443;" horiz-adv-x="772" d="M553 1025h153v-1037q-3 -93 -31.5 -161.5t-75.5 -106t-99.5 -55t-111.5 -17.5q-51 0 -97.5 12.5t-90 40t-75.5 76.5t-45 116h158q35 -106 149 -106q166 0 166 234v98q-65 -119 -211 -119q-42 0 -80 10.5t-74.5 37t-63 66.5t-42.5 103t-16 143v664h153v-588 q0 -86 12.5 -146t36.5 -92t52.5 -45.5t65.5 -13.5q38 0 66 13.5t52 45.5t36.5 92t12.5 146v589z" />
<glyph unicode="&#x444;" horiz-adv-x="1275" d="M561 1434h153v-511q65 118 211 118q42 0 80 -10.5t74.5 -37t63 -66.5t42.5 -103t16 -143v-338q0 -99 -23.5 -172t-64.5 -112.5t-87.5 -58t-100.5 -18.5q-145 0 -211 116v-432h-153v432q-66 -116 -210 -116q-54 0 -100.5 18.5t-87.5 58t-64.5 112.5t-23.5 172v338 q0 80 16 143t42.5 103t63 66.5t74.5 37t80 10.5q145 0 210 -118v511zM561 418v187q0 166 -42.5 231.5t-122.5 65.5q-80 1 -123.5 -65.5t-44.5 -231.5v-187q0 -86 12.5 -146t36.5 -91.5t52.5 -45t65.5 -13.5q79 0 122.5 65t43.5 231zM1047 418v187q-1 165 -44 231t-123 66 q-39 0 -67.5 -13.5t-51.5 -46t-34.5 -92t-11.5 -145.5v-187q0 -166 43.5 -231t122.5 -65q37 0 65.5 13.5t52 45t36 91.5t12.5 146z" />
<glyph unicode="&#x445;" horiz-adv-x="827" d="M757 1024l-226 -504l231 -520h-159l-189 391l-189 -391h-159l231 518l-225 506h160l182 -416l183 416h160z" />
<glyph unicode="&#x446;" horiz-adv-x="884" d="M725 139h98v-327h-154v188h-581v1024h154v-885h329v885h154v-885z" />
<glyph unicode="&#x447;" horiz-adv-x="808" d="M567 1024h154v-1024h-154v422q-64 -120 -210 -120q-54 0 -100.5 18t-87.5 57.5t-65 112.5t-24 172v362h154v-286q0 -86 12.5 -146t36.5 -92t52.5 -45.5t65.5 -13.5q77 0 121.5 58t44.5 202v323z" />
<glyph unicode="&#x448;" horiz-adv-x="1294" d="M1054 1024h153v-1024h-1119v1024h154v-885h329v885h154v-885h329v885z" />
<glyph unicode="&#x449;" horiz-adv-x="1368" d="M1208 139h98v-327h-153v188h-1065v1024h154v-885h329v885h154v-885h329v885h154v-885z" />
<glyph unicode="&#x44a;" horiz-adv-x="854" d="M330 598h97q195 0 281 -74.5t86 -213.5v-36q-2 -138 -89.5 -210.5t-279.5 -72.5h-248v893h-115v140h268v-426zM641 285v7q0 89 -50.5 125t-181.5 37h-78v-324h78q129 1 179.5 35t52.5 120z" />
<glyph unicode="&#x44b;" horiz-adv-x="1087" d="M88 1024h154v-426h95q196 0 282 -74.5t86 -213.5v-36q-2 -137 -89.5 -210t-279.5 -73h-248v1033zM845 0v1024h154v-1024h-154zM553 285v7q0 89 -51 125t-182 37h-78v-324h78q129 1 180 35t53 120z" />
<glyph unicode="&#x44c;" horiz-adv-x="765" d="M88 1024h154v-426h95q196 0 282 -74.5t86 -213.5v-36q-2 -137 -89.5 -210t-279.5 -73h-248v1033zM553 285v7q0 89 -51 125t-182 37h-78v-324h78q129 1 180 35t53 120z" />
<glyph unicode="&#x44d;" horiz-adv-x="782" d="M222 682h-151q0 80 18.5 143t49.5 103t73 66.5t85.5 37t91.5 10.5t91.5 -11t85.5 -37.5t73 -66.5t49.5 -103t18.5 -142v-338q0 -79 -18.5 -142t-49.5 -103t-73 -66.5t-85.5 -37.5t-91.5 -11t-91.5 10.5t-85.5 37t-73 66.5t-49.5 103t-18.5 143h150q5 -221 166 -221 q167 0 167 236v88h-242v138h241v86q-1 232 -165 232q-160 0 -166 -221z" />
<glyph unicode="&#x44e;" horiz-adv-x="1126" d="M413 586v96q0 98 28 171t75.5 112.5t101 58t114.5 18.5q48 0 92 -10.5t86.5 -37t73.5 -66.5t50 -103t19 -143v-338q0 -80 -19 -143t-50 -103t-73.5 -66.5t-86.5 -37t-92 -10.5q-61 0 -114.5 18.5t-101 58t-75.5 112.5t-28 171v105h-171v-449h-154v1024h154v-438h171z M899 420v186q0 165 -45 231t-122 66q-79 0 -122 -65.5t-43 -231.5v-186q1 -166 43 -231.5t123 -65.5q79 0 123 66t43 231z" />
<glyph unicode="&#x44f;" horiz-adv-x="770" d="M421 1035h261v-1035h-154v440l-147 -12l-164 -428h-155l175 478q-91 28 -129.5 86t-39.5 148v37q0 138 82 212t271 74zM434 584h94v311h-93q-125 -1 -170 -38t-45 -123q0 -82 44.5 -115.5t169.5 -34.5z" />
<glyph unicode="&#x1e80;" horiz-adv-x="1622" d="M659 1864h189l118 -288h-126zM1356 1434h183l-298 -1434h-210l-220 1000l-221 -1000h-210l-296 1434h182l230 -1129l230 1129h170l230 -1129z" />
<glyph unicode="&#x1e81;" horiz-adv-x="1335" d="M514 1454h189l118 -287h-126zM1115 1024h155l-235 -1024h-185l-182 727l-182 -727h-185l-235 1024h155l183 -814l198 814h132l197 -814z" />
<glyph unicode="&#x1e82;" horiz-adv-x="1622" d="M777 1862h189l-182 -288h-125zM1356 1434h183l-298 -1434h-210l-220 1000l-221 -1000h-210l-296 1434h182l230 -1129l230 1129h170l230 -1129z" />
<glyph unicode="&#x1e83;" horiz-adv-x="1335" d="M632 1453h189l-181 -288h-126zM1115 1024h155l-235 -1024h-185l-182 727l-182 -727h-185l-235 1024h155l183 -814l198 814h132l197 -814z" />
<glyph unicode="&#x1e84;" horiz-adv-x="1622" d="M600 1843h159v-158h-159v158zM866 1843h160v-158h-160v158zM1356 1434h183l-298 -1434h-210l-220 1000l-221 -1000h-210l-296 1434h182l230 -1129l230 1129h170l230 -1129z" />
<glyph unicode="&#x1e85;" horiz-adv-x="1335" d="M455 1434h159v-158h-159v158zM722 1434h159v-158h-159v158zM1115 1024h155l-235 -1024h-185l-182 727l-182 -727h-185l-235 1024h155l183 -814l198 814h132l197 -814z" />
<glyph unicode="&#x1ef2;" horiz-adv-x="1054" d="M375 1864h188l118 -288h-125zM782 1434h190l-354 -856v-578h-186v577l-348 857h188l253 -650z" />
<glyph unicode="&#x1ef3;" horiz-adv-x="772" d="M233 1454h189l118 -287h-125zM553 1025h153v-1037q-3 -93 -31.5 -161.5t-75.5 -106t-99.5 -55t-111.5 -17.5q-51 0 -97.5 12.5t-90 40t-75.5 76.5t-45 116h158q35 -106 149 -106q77 0 121.5 53t44.5 182v97q-65 -119 -211 -119q-42 0 -80 10.5t-74.5 37t-63 66.5 t-42.5 103t-16 143v664h153v-588q0 -86 12.5 -146t36.5 -92t52.5 -45.5t65.5 -13.5q38 0 66 13.5t52 45.5t36.5 92t12.5 146v589z" />
<glyph unicode="&#x2000;" horiz-adv-x="1012" />
<glyph unicode="&#x2001;" horiz-adv-x="2025" />
<glyph unicode="&#x2002;" horiz-adv-x="1012" />
<glyph unicode="&#x2003;" horiz-adv-x="2025" />
<glyph unicode="&#x2004;" horiz-adv-x="675" />
<glyph unicode="&#x2005;" horiz-adv-x="506" />
<glyph unicode="&#x2006;" horiz-adv-x="337" />
<glyph unicode="&#x2007;" horiz-adv-x="337" />
<glyph unicode="&#x2008;" horiz-adv-x="253" />
<glyph unicode="&#x2009;" horiz-adv-x="405" />
<glyph unicode="&#x200a;" horiz-adv-x="112" />
<glyph unicode="&#x2010;" horiz-adv-x="712" d="M102 638h508v-176h-508v176z" />
<glyph unicode="&#x2011;" horiz-adv-x="712" d="M102 638h508v-176h-508v176z" />
<glyph unicode="&#x2012;" horiz-adv-x="712" d="M102 638h508v-176h-508v176z" />
<glyph unicode="&#x2013;" horiz-adv-x="966" d="M102 638h762v-177h-762v177z" />
<glyph unicode="&#x2014;" horiz-adv-x="1310" d="M102 638h1106v-176h-1106v176z" />
<glyph unicode="&#x2018;" horiz-adv-x="376" d="M202 1264h72v-170h-172v170l66 170h64z" />
<glyph unicode="&#x2019;" horiz-adv-x="376" d="M102 1434h172v-171l-65 -169h-64l30 169h-73v171z" />
<glyph unicode="&#x201a;" horiz-adv-x="376" d="M102 171h172v-171l-65 -169h-64l30 169h-73v171z" />
<glyph unicode="&#x201c;" horiz-adv-x="690" d="M232 1434l-30 -170h72v-170h-172v170l66 170h64zM516 1264h72v-170h-172v170l66 170h64z" />
<glyph unicode="&#x201d;" horiz-adv-x="690" d="M102 1263v171h172v-171l-65 -169h-64l30 169h-73zM416 1434h172v-171l-65 -169h-64l30 169h-73v171z" />
<glyph unicode="&#x201e;" horiz-adv-x="376" d="M102 171h172v-171l-65 -169h-64l30 169h-73v171z" />
<glyph unicode="&#x2020;" horiz-adv-x="804" d="M309 1434h186v-411h207v-177h-207v-969h-186v969h-207v177h207v411z" />
<glyph unicode="&#x2021;" horiz-adv-x="804" d="M309 1434h186v-411h207v-177h-207v-447h207v-176h-207v-346h-186v346h-207v176h207v447h-207v177h207v411z" />
<glyph unicode="&#x2022;" horiz-adv-x="737" d="M368 909q122 0 208 -85.5t86 -206.5q0 -122 -86 -208t-208 -86t-207.5 86t-85.5 208t85.5 207t207.5 85z" />
<glyph unicode="&#x2026;" horiz-adv-x="978" d="M102 0v171h172v-171h-172zM404 0v171h172v-171h-172zM705 0v171h172v-171h-172z" />
<glyph unicode="&#x202f;" horiz-adv-x="405" />
<glyph unicode="&#x2030;" horiz-adv-x="1931" d="M102 945v280q0 62 24 108.5t61.5 70t73.5 34.5t69 11q36 0 73 -12t73.5 -36t59.5 -70t23 -106v-280q0 -48 -15.5 -87.5t-40 -63.5t-55.5 -41t-60.5 -23.5t-57.5 -7.5q-33 0 -69 11t-73.5 34t-61.5 69.5t-24 108.5zM1007 1434h132l-744 -1434h-132zM441 942v287 q0 54 -35 81t-76 27q-39 0 -74.5 -26t-35.5 -82v-287q0 -56 35.5 -82t74.5 -26q42 1 76.5 27.5t34.5 80.5zM844 209v280q0 62 24 108.5t61.5 69.5t73.5 34t69 11q36 0 73 -11.5t73 -36t59 -70t23 -105.5v-280q0 -60 -23 -105.5t-59 -69.5t-73 -36t-73 -12q-33 0 -69 11 t-73.5 34t-61.5 69.5t-24 108.5zM1374 209v280q0 62 24 108.5t61.5 69.5t73.5 34t69 11q36 0 73 -11.5t73.5 -36t59.5 -70t23 -105.5v-280q0 -60 -23 -105.5t-59.5 -69.5t-73.5 -36t-73 -12q-33 0 -69 11t-73.5 34t-61.5 69.5t-24 108.5zM1182 205v287q0 54 -34.5 81 t-75.5 27q-39 0 -75 -26t-36 -82v-287q0 -55 35.5 -81t75.5 -27q41 0 75.5 27t34.5 81zM1713 205v287q0 54 -35 81t-76 27q-39 0 -74.5 -26t-35.5 -82v-287q0 -55 35 -81t75 -27q41 0 76 27t35 81z" />
<glyph unicode="&#x2039;" horiz-adv-x="489" d="M102 643l284 244v-184l-182 -152l182 -151v-184l-284 244v183z" />
<glyph unicode="&#x203a;" horiz-adv-x="489" d="M102 703v184l284 -245v-182l-284 -244v184l182 151z" />
<glyph unicode="&#x2044;" horiz-adv-x="905" d="M68 0l627 1434h142l-628 -1434h-141z" />
<glyph unicode="&#x205f;" horiz-adv-x="506" />
<glyph unicode="&#x20ac;" horiz-adv-x="1067" d="M171 848v108q0 110 24 197t64 142t95 91t112.5 51t122.5 15q62 0 117.5 -14t108.5 -48.5t92.5 -86.5t64 -134.5t27.5 -187.5v-35h-181l-1 30q-8 159 -69.5 230t-158.5 71q-106 0 -170 -79t-64 -258v-92h502l-83 -83h-419v-96h323l-83 -83h-240v-90q0 -179 64 -258.5 t170 -79.5q98 0 159.5 71.5t69.5 232.5v28h181v-33q-2 -105 -27 -188t-64 -135.5t-92.5 -87t-109 -48.5t-117.5 -14q-65 0 -122.5 14.5t-113 51t-95 91.5t-63.5 141.5t-24 196.5v107h-102v83h102v96h-102v83h102z" />
<glyph unicode="&#x2122;" horiz-adv-x="1257" d="M31 1309v125h462v-125h-163v-706h-136v706h-163zM1056 1434h170v-831h-136v573l-169 -378h-87l-170 378v-573h-136v831h170l178 -412z" />
<glyph unicode="&#x2202;" horiz-adv-x="1228" />
<glyph unicode="&#x2205;" horiz-adv-x="1253" d="M1156 914l-103 -103q101 -131 101 -298q0 -144 -71 -266t-193 -192.5t-265 -70.5q-165 0 -296 101l-104 -103l-125 124l102 102q-106 135 -106 305q0 143 70.5 265t192.5 193t266 71q171 0 305 -104l101 101zM625 133q159 0 268 111t109 269q0 157 -109 268.5t-268 111.5 q-160 0 -268.5 -111t-108.5 -269t108.5 -269t268.5 -111z" />
<glyph unicode="&#x220f;" horiz-adv-x="1228" />
<glyph unicode="&#x2211;" horiz-adv-x="1228" />
<glyph unicode="&#x2212;" horiz-adv-x="1116" d="M102 752h913v-176h-913v176z" />
<glyph unicode="&#x221a;" horiz-adv-x="1228" />
<glyph unicode="&#x221e;" horiz-adv-x="1228" />
<glyph unicode="&#x222b;" horiz-adv-x="743" d="M490 1492h151v-174h-83q-93 0 -93 -137v-1223q0 -120 -61 -181.5t-150 -61.5h-152v176h84q93 0 93 137v1221q0 120 61 181.5t150 61.5z" />
<glyph unicode="&#x2248;" horiz-adv-x="1136" d="M898 840h137q0 -90 -24 -161t-77.5 -116t-130.5 -45q-32 0 -60.5 5.5t-57.5 19t-47 23.5t-53.5 33t-51.5 33q-94 61 -162 57q-63 -2 -97.5 -48.5t-34.5 -118.5h-136q0 147 63.5 242.5t183.5 95.5q54 0 98.5 -17t110.5 -56q7 -4 35 -23.5t37 -25.5t33.5 -19.5t39 -18 t36.5 -8.5t44 -3q56 2 85 43.5t29 107.5zM898 449h137q0 -90 -24 -161t-77.5 -116t-130.5 -45q-40 0 -80.5 12.5t-58 21t-70.5 42t-62 39.5q-92 60 -162 56q-62 -2 -96.5 -48.5t-34.5 -117.5h-136q0 147 63.5 242t183.5 95q54 0 97.5 -17t111.5 -56q8 -5 30 -20.5 t31.5 -21.5t29 -18t32.5 -17t31 -11.5t35.5 -8.5t36.5 -1q55 2 84 44t29 107z" />
<glyph unicode="&#x2260;" horiz-adv-x="1064" d="M989 711h-327l-65 -168h392v-176h-460l-180 -465h-189l180 465h-264v176h333l65 168h-398v176h466l174 449h189l-174 -449h258v-176z" />
<glyph unicode="&#x2264;" horiz-adv-x="970" d="M102 722l767 402v-183l-463 -254l463 -252v-183l-767 401v69zM103 125h766v-176h-766v176z" />
<glyph unicode="&#x2265;" horiz-adv-x="970" d="M102 941v183l767 -402v-69l-767 -401v183l464 252zM102 125h767v-176h-767v176z" />
<glyph unicode="&#x25ca;" horiz-adv-x="1228" />
<glyph unicode="&#x25fc;" horiz-adv-x="1024" d="M0 1024h1024v-1024h-1024v1024z" />
<glyph horiz-adv-x="917" d="M623 1434h191l-339 -640q137 -15 190.5 -34t93.5 -73q76 -110 76 -340v-347h-182v358q0 184 -65 255q-52 56 -172 56h-134v-669h-179v1434h180v-607z" />
<glyph horiz-adv-x="966" d="M112 0v1444h316q209 0 327.5 -99t118.5 -296v-28q-1 -221 -180 -317q68 -30 111 -88q77 -108 77 -311v-305h-181v321q0 158 -59 235q-56 74 -179 74h-172v-630h-179zM456 1260h-164v-446h164q45 0 85.5 11t76.5 34.5t57.5 67t21.5 101.5v15q0 60 -20 103.5t-55 67.5 t-76 35t-90 11z" />
<glyph horiz-adv-x="505" d="M381 1452h56v-139h-18q-70 0 -105 -17t-53.5 -72t-18.5 -164v-36h195v-140h-195v-884h-154v1091q0 110 20.5 183t62 111t90.5 52.5t120 14.5z" />
<glyph horiz-adv-x="765" d="M507 1024h162l-260 -456q79 -8 122.5 -23t77.5 -47q92 -94 92 -330v-168h-153v178q0 202 -78 265q-48 40 -158 40h-72v-483h-153v1434h154v-873z" />
<glyph horiz-adv-x="505" d="M242 886v-490q0 -87 8.5 -138.5t31.5 -80t53.5 -37.5t84.5 -9h17v-139h-55q-71 0 -120.5 14.5t-91 52t-62 111t-20.5 183.5v984h154v-313h195v-138h-195z" />
<glyph horiz-adv-x="966" d="M538 1444h316v-1444h-179v630h-173q-118 0 -175 -69q-62 -75 -62 -240v-321h-181v306q0 194 73 300q46 65 115 97q-179 95 -180 318v28q0 197 118.5 296t327.5 99zM674 814v445h-164q-49 0 -90 -10.5t-76 -34t-55 -67t-20 -103.5v-16q0 -58 21.5 -101.5t57.5 -67 t76.5 -34.5t85.5 -11h164z" />
<glyph horiz-adv-x="1449" d="M1345 1434l-338 -639q127 -13 176.5 -28.5t88.5 -55.5q95 -108 95 -364v-347h-182v358q0 202 -79 268q-52 43 -158 43h-133v-669h-180v669h-133q-116 0 -168 -53q-69 -71 -69 -258v-358h-181v347q0 242 82 353q40 48 92.5 65t185.5 30l-340 639h192l339 -607v607h180 v-607l340 607h190z" />
<glyph horiz-adv-x="763" d="M678 1035v-1035h-154v441h-71q-67 0 -110.5 -12t-71.5 -48q-54 -68 -54 -236v-145h-153v135q0 189 57 284q30 51 77 81q-71 29 -102 81t-32 131v37q0 138 82 212t271 74h261zM525 895h-94q-125 -1 -170 -38t-45 -123q0 -78 40 -112t150 -38h119v311z" />
<glyph horiz-adv-x="765" d="M507 1024h162l-260 -456q84 -9 131 -25.5t81 -54.5q80 -96 80 -320v-168h-153v178q0 191 -70 258q-48 47 -166 47h-72v-483h-153v1024h154v-463z" />
<glyph horiz-adv-x="1208" d="M1110 1024l-261 -456q90 -10 135.5 -26.5t79.5 -56.5q78 -97 78 -318v-167h-153v178q0 184 -65 252q-30 32 -71.5 42.5t-100.5 10.5h-71v-483h-154v483h-71q-118 0 -167 -47q-70 -65 -70 -258v-178h-153v167q0 231 87 326q34 35 78 49.5t128 25.5l-261 456h162l267 -463 v463h154v-463l266 463h163z" />
<glyph horiz-adv-x="491" d="M241 697h21q39 0 74.5 -12t66 -36t49 -66t19.5 -96v-6q0 -55 -27 -99.5t-67 -74.5t-81 -57t-74.5 -62.5t-41.5 -76.5h284v-111h-438v60q0 52 18 95t46.5 71.5t63.5 53.5t70 46t63.5 42.5t46.5 50t18 62.5q0 54 -28.5 80t-64.5 27h-7q-40 0 -70.5 -26t-40.5 -79h-119l1 7 q5 54 27 95t54 64t66 34.5t71 13.5z" />
<glyph horiz-adv-x="526" d="M214 692h122l-191 -451h182v282h121v-282h57v-110h-57v-131h-119v131h-309v120z" />
<glyph horiz-adv-x="262" d="M38 1434h186v-692h-120v581h-66v111z" />
<glyph horiz-adv-x="524" d="M254 1442l23 -1q36 0 70 -10t64.5 -30.5t49.5 -57.5t19 -86v-13q0 -50 -27 -89t-65 -50q43 -18 69.5 -60t27.5 -98v-13q-1 -94 -61.5 -142t-148.5 -49h-21q-49 0 -94 19t-80.5 66t-41.5 115v5h113q8 -47 38.5 -70.5t68.5 -24.5h13q37 0 65.5 22.5t29.5 62.5v8 q0 47 -31 75.5t-80 28.5h-63v112h63q41 0 73 20.5t33 60.5v7q0 39 -28 60t-62 21h-12q-37 0 -66.5 -22t-38.5 -66h-114v5q10 94 72.5 143.5t141.5 50.5z" />
</font>
</defs>
</svg>
