<?xml version="1.0" standalone="no"?>
<!DOCTYPE svg PUBLIC "-//W3C//DTD SVG 1.1//EN" "http://www.w3.org/Graphics/SVG/1.1/DTD/svg11.dtd" >
<svg xmlns="http://www.w3.org/2000/svg">
<metadata></metadata>
<defs>
<font id="neusaextrabold" horiz-adv-x="782" >
<font-face units-per-em="2048" ascent="1536" descent="-512" />
<missing-glyph horiz-adv-x="614" />
<glyph unicode="fi" horiz-adv-x="985" d="M439 1452h104v-242h-29q-58 0 -79 -33.5t-23 -120.5v-32h131v-242h-131v-782h-268v782h-99v242h98v67q0 101 24 174t67 112t93 57t112 18zM643 1411h289v-263h-289v263zM653 1024h269v-1024h-269v1024z" />
<glyph unicode="fl" horiz-adv-x="958" d="M439 1452h104v-242h-30q-58 0 -78.5 -34t-22.5 -125v-27h131v-242h-131v-782h-268v782h-99v242h98v67q0 101 24 174t67 112t93 57t112 18zM643 1434h269v-1434h-269v1434z" />
<glyph unicode=" "  horiz-adv-x="614" />
<glyph unicode="&#x09;" horiz-adv-x="614" />
<glyph unicode="&#xa0;" horiz-adv-x="614" />
<glyph unicode="!" horiz-adv-x="493" d="M107 1434h280v-492l-37 -511h-206l-37 508v495zM102 0v285h290v-285h-290z" />
<glyph unicode="&#x22;" horiz-adv-x="759" d="M50 1434h288l-45 -602h-198zM423 1434h288l-45 -602h-198z" />
<glyph unicode="#" horiz-adv-x="1384" d="M1259 749h-154l-27 -105h154l-90 -312h-158l-95 -332h-337l94 332h-125l-94 -332h-337l94 332h-152l95 312h151l27 105h-151l94 313h152l106 372h338l-106 -372h124l106 372h338l-106 -372h153zM741 644l27 105h-125l-27 -105h125z" />
<glyph unicode="$" horiz-adv-x="923" d="M866 974h-308q0 166 -91 166q-46 0 -67 -39t-21 -101q0 -34 11 -56t35.5 -34.5t46.5 -18.5t64 -12q98 -15 169.5 -57t110 -101t56 -122.5t17.5 -134.5q0 -188 -69.5 -297.5t-189.5 -151.5v-117h-332v114q-117 39 -189 148t-74 297h311q2 -162 112 -162t110 136 q0 73 -39 100.5t-156 47.5q-42 7 -81 21t-83 44t-76 72t-53.5 110t-21.5 153q0 179 65.5 286t174.5 151v120h332v-118q107 -42 171.5 -150t64.5 -294z" />
<glyph unicode="%" horiz-adv-x="1513" d="M102 881v316q0 57 18.5 102.5t46.5 72.5t64 45t68 25t61 7q40 0 82 -13t83 -40.5t67 -79t26 -119.5v-316q0 -68 -26 -119t-67 -78.5t-82.5 -41t-82.5 -14.5q-29 0 -61 7t-68 25t-64 45.5t-46.5 73t-18.5 102.5zM946 1434h217l-597 -1434h-216zM423 873v332q0 31 -19.5 46 t-43.5 15q-22 0 -42.5 -15t-20.5 -46v-332q0 -31 20.5 -46t42.5 -15q24 1 43.5 16t19.5 45zM896 238v316q0 57 18.5 102.5t46.5 72.5t64 45t67.5 25t60.5 7q40 0 82 -13t83 -40.5t67 -79t26 -119.5v-316q0 -68 -26 -119t-67 -78.5t-82.5 -40.5t-82.5 -14q-29 0 -60.5 7 t-67.5 25t-64 45t-46.5 72.5t-18.5 102.5zM1216 230v332q0 31 -19.5 46t-43.5 15q-22 0 -42.5 -15t-20.5 -46v-332q0 -32 20.5 -47t42.5 -15q24 1 43.5 16t19.5 46z" />
<glyph unicode="&#x26;" horiz-adv-x="1107" d="M1060 874v-305h-67v-107q0 -113 -24.5 -198t-65.5 -137.5t-102 -85.5t-126.5 -45.5t-146.5 -12.5h-14q-464 4 -469 453v13q0 96 35.5 171.5t87.5 100.5q-49 25 -84.5 100t-35.5 171v12q5 449 457 447h78v-311h-78q-128 0 -128 -131v-9q0 -55 32 -90.5t99 -35.5h164v228 h321v-228h67zM672 471v98h-164q-131 0 -134 -127v-12q0 -53 36 -94t111 -41h11q80 1 110 43t30 133z" />
<glyph unicode="'" horiz-adv-x="491" d="M102 1434h288l-45 -602h-198z" />
<glyph unicode="(" horiz-adv-x="681" d="M473 1536h106v-312h-43q-42 0 -73 -32.5t-31 -82.5v-968q0 -50 30.5 -82t73.5 -32h43v-312h-106q-169 0 -270 98.5t-101 274.5v1075q0 176 101 274.5t270 98.5z" />
<glyph unicode=")" horiz-adv-x="681" d="M102 1536h106q169 0 270 -98.5t101 -274.5v-1076q0 -176 -101 -274t-270 -98h-106v312h43q43 0 73.5 32t30.5 82v968q0 50 -31 82.5t-73 32.5h-43v312z" />
<glyph unicode="*" horiz-adv-x="1038" d="M381 1468h288l-17 -250l233 93l89 -274l-243 -61l160 -193l-233 -169l-133 212l-134 -212l-233 169l161 193l-243 61l89 274l232 -93z" />
<glyph unicode="+" horiz-adv-x="1179" d="M425 1019h332v-322h322v-313h-322v-322h-332v322h-323v313h323v322z" />
<glyph unicode="," horiz-adv-x="493" d="M102 285h290v-285l-103 -292h-113l49 292h-123v285z" />
<glyph unicode="-" horiz-adv-x="712" d="M102 705h508v-313h-508v313z" />
<glyph unicode="." horiz-adv-x="493" d="M102 0v285h290v-285h-290z" />
<glyph unicode="/" horiz-adv-x="868" d="M32 0l466 1434h338l-466 -1434h-338z" />
<glyph unicode="0" horiz-adv-x="946" d="M49 479v394q0 110 24.5 197t65 142t96.5 91t114 51t123 15q64 0 122 -14.5t114 -50.5t97 -91t66 -142.5t25 -197.5v-394q0 -110 -25 -197t-66 -142t-97 -91t-114 -50.5t-122 -14.5q-82 0 -153.5 25t-134 79.5t-99 154.5t-36.5 236zM567 493v368q0 196 -95 196 q-50 0 -71.5 -48t-21.5 -148v-368q0 -100 21.5 -149t71.5 -49q95 0 95 198z" />
<glyph unicode="1" horiz-adv-x="534" d="M31 1352h452v-1352h-331v1040h-121v312z" />
<glyph unicode="2" horiz-adv-x="907" d="M452 1368h12q77 -2 147 -26t131 -74t97.5 -138.5t36.5 -206.5v-6q0 -74 -20 -136t-53 -107t-73.5 -83t-86 -71t-86.5 -63.5t-78.5 -68.5t-59.5 -77h446v-311h-831v154q0 82 17.5 152.5t47 122t68 96.5t81 78.5t85 64t81 58.5t68 55.5t47 61.5t17.5 71q0 62 -23.5 102.5 t-65.5 40.5h-8q-77 -5 -88 -173h-330l1 12q2 104 28 186t66.5 134.5t95 87.5t111.5 49.5t119 14.5z" />
<glyph unicode="3" horiz-adv-x="903" d="M445 1370h11q61 -1 116.5 -13t110 -41.5t94.5 -75t65 -117.5t26 -164v-12q0 -93 -35.5 -167t-84.5 -99q51 -25 87 -100t36 -170v-9q-1 -91 -25 -163.5t-63 -119t-93 -77.5t-111 -44t-121 -14h-12q-61 0 -117.5 14t-111 47t-94.5 82.5t-65 126.5t-27 172v10h321 q4 -75 28 -107.5t68 -32.5h8q41 1 63.5 29t22.5 67v7q0 58 -32 93.5t-101 35.5h-111v305h111q65 0 97.5 34t32.5 91v7q0 34 -25 63.5t-62 29.5h-7q-82 -3 -92 -137h-321v11q2 94 27.5 170t65.5 125t93.5 82t109.5 47t117 14z" />
<glyph unicode="4" horiz-adv-x="991" d="M960 514v-312h-72v-202h-329v202h-509v380l190 787h323l-186 -855h182v510h329v-510h72z" />
<glyph unicode="5" horiz-adv-x="903" d="M76 1369h718v-312h-389v-218l80 6q70 2 119 -7q75 -14 129.5 -54.5t83.5 -99.5t42.5 -122t13.5 -134v-36q-3 -87 -27.5 -157t-63.5 -115.5t-92 -76.5t-109 -44.5t-118 -14.5h-16q-61 0 -117.5 14t-110.5 47t-94 82.5t-65 126t-27 171.5l-1 10h321q4 -75 28.5 -108 t68.5 -33h9q84 3 84 136v31q0 67 -34 87.5t-130 20.5h-303v800z" />
<glyph unicode="6" horiz-adv-x="919" d="M32 466v410q0 110 25 196.5t65.5 141.5t96.5 91.5t114.5 51t123.5 14.5q61 0 117 -13.5t111 -46t95.5 -82.5t67 -129.5t29.5 -179.5h-329q-1 68 -25 104t-66 36q-107 0 -107 -195v-97q61 58 161 61h22q83 3 147 -22t103 -66.5t63.5 -99.5t33.5 -115.5t9 -120.5 q0 -67 -11 -124.5t-40 -113.5t-74 -95.5t-117.5 -63.5t-166.5 -24h-35q-71 1 -129 14.5t-112.5 47t-91 86.5t-58.5 137.5t-22 196.5zM452 295h17q45 0 68 25.5t23 84.5q0 112 -91 112h-17q-89 0 -89 -112q0 -59 22.5 -84.5t66.5 -25.5z" />
<glyph unicode="7" horiz-adv-x="894" d="M40 1369h823v-251l-433 -1118h-333l410 1056h-467v313z" />
<glyph unicode="8" horiz-adv-x="923" d="M445 1369h32q100 0 180 -34.5t129 -93t75 -130t27 -149.5v-9q0 -174 -121 -275q125 -85 125 -262v-10q0 -86 -25 -160.5t-74 -133t-129.5 -92t-184.5 -33.5h-32q-104 0 -185 33.5t-130 92t-74 133t-25 160.5v10q3 177 123 260q-122 101 -122 277v9q1 78 27 149.5t75 130 t129 93t180 34.5zM558 954v7q-1 31 -9.5 51.5t-23 30t-28.5 12.5t-31 3h-13q-36 1 -62 -19t-27 -78v-7q0 -32 7.5 -53t22.5 -30.5t28.5 -12.5t33.5 -3h7q44 0 69.5 19t25.5 80zM563 412v10q0 72 -25.5 97t-72.5 25h-7q-45 0 -70.5 -25t-25.5 -97v-10q1 -68 26 -90.5 t67 -22.5h13q43 0 68.5 22.5t26.5 90.5z" />
<glyph unicode="9" horiz-adv-x="917" d="M888 889v-410q0 -110 -24.5 -196.5t-65 -141.5t-96.5 -91.5t-114.5 -51t-123.5 -14.5q-61 0 -117 13.5t-111 46t-96 82.5t-67.5 129.5t-29.5 179.5h330q1 -68 25.5 -104t65.5 -36q56 0 81.5 48t25.5 146v99q-59 -59 -160 -62h-23q-83 -3 -147 22t-103 66.5t-64 100 t-34 115.5t-9 120q0 67 11 124.5t40 113.5t74 96t117.5 64t166.5 24h35q71 -1 129 -14.5t112.5 -47t91 -86.5t58.5 -138t22 -197zM468 1060h-17q-45 0 -68 -25.5t-23 -84.5q0 -112 91 -112h17q89 0 89 112q0 59 -22.5 84.5t-66.5 25.5z" />
<glyph unicode=":" horiz-adv-x="493" d="M102 698v284h290v-284h-290zM102 0v285h290v-285h-290z" />
<glyph unicode=";" horiz-adv-x="493" d="M102 982h290v-284h-290v284zM102 0v285h290v-285l-103 -292h-113l49 292h-123z" />
<glyph unicode="&#x3c;" horiz-adv-x="1144" d="M102 615l942 432v-314l-372 -161l372 -159v-314l-942 430v86z" />
<glyph unicode="=" horiz-adv-x="1181" d="M102 879h978v-312h-978v312zM102 488h978v-313h-978v313z" />
<glyph unicode="&#x3e;" horiz-adv-x="1144" d="M102 733v314l941 -432v-86l-941 -430v314l372 159z" />
<glyph unicode="?" horiz-adv-x="1050" d="M514 1438h14q61 0 119 -14t113 -47.5t96 -83.5t66 -127.5t25 -173.5v-3q0 -81 -19 -141.5t-49 -96.5t-65.5 -63t-71.5 -49.5t-65.5 -48t-48 -66.5t-18.5 -96h-266q0 87 15 153t39.5 105t53.5 68t58 50.5t53.5 43.5t39.5 55.5t15 79.5q0 61 -23.5 102t-66.5 41h-6 q-79 -5 -90 -172h-330l1 10q2 103 27.5 184.5t64.5 134.5t93 88t109.5 50.5t116.5 16.5zM333 285h290v-285h-290v285z" />
<glyph unicode="@" horiz-adv-x="1771" d="M1132 -360h-287q-743 0 -743 899q-1 195 34.5 346.5t101 253.5t164.5 167.5t217.5 94t266.5 27.5q136 -1 246.5 -20t191.5 -53t141.5 -85.5t99 -111.5t62 -138t33 -158t9.5 -178v-351q0 -151 -88.5 -247.5t-263.5 -96.5q-195 -3 -292 102q-71 -103 -213 -103 q-49 0 -92.5 18.5t-83 58t-63 113t-23.5 171.5v337q0 98 23.5 171.5t63 113t83 58t92.5 18.5q132 0 202 -89l36 70h185v-696q0 -49 17.5 -75t61.5 -26q45 0 65.5 25.5t20.5 83.5v368q0 66 -5 117t-19 102.5t-37 88.5t-61.5 70t-91.5 53.5t-126.5 32.5t-166.5 13 q-109 0 -186 -14.5t-145.5 -55.5t-109 -112.5t-64 -186.5t-22.5 -277q0 -343 120 -500t361 -157h285v-242zM819 551v-67q2 -154 15.5 -203.5t59.5 -49.5q31 0 46 22.5t20.5 75t4.5 155.5v67q0 102 -7 155.5t-22 75.5t-44 22q-44 0 -58.5 -51t-14.5 -202z" />
<glyph unicode="A" horiz-adv-x="1024" d="M659 0l-47 278h-199l-48 -278h-321l261 1434h412l263 -1434h-321zM446 599h130l-64 475z" />
<glyph unicode="B" horiz-adv-x="913" d="M59 1434h388q78 0 148.5 -19t130 -57.5t95 -106t35.5 -155.5v-93q0 -175 -139 -264q168 -92 168 -299v-78q0 -174 -115 -268t-315 -94h-396v1434zM544 992v14q0 58 -29.5 86.5t-73.5 28.5h-62v-244h62q44 0 73.5 28.5t29.5 86.5zM558 439v15q0 64 -30.5 96.5t-81.5 32.5 h-67v-272h67q51 0 81.5 31.5t30.5 96.5z" />
<glyph unicode="C" horiz-adv-x="921" d="M55 479v477q0 110 24.5 197t65 142t96.5 91t114 51t123 15q63 0 120 -14.5t111 -50t93.5 -89.5t64 -140t25.5 -195v-48h-321v40q-2 93 -24 139t-69 46q-50 0 -71.5 -48t-21.5 -147v-452q0 -100 21.5 -149t71.5 -49q47 0 68.5 46.5t24.5 140.5v40h321v-49 q-1 -109 -25 -195t-63.5 -140t-94 -89.5t-111.5 -50t-120 -14.5q-82 0 -153.5 25t-134 79.5t-99 154.5t-36.5 236z" />
<glyph unicode="D" horiz-adv-x="933" d="M59 1434h404q65 0 121 -13t112 -47.5t95 -88.5t63.5 -143t24.5 -204v-442q0 -115 -24.5 -204t-63.5 -143t-95 -88.5t-112 -47.5t-121 -13h-404v1434zM558 509v417q0 196 -95 196h-83v-810h83q95 0 95 197z" />
<glyph unicode="E" horiz-adv-x="708" d="M679 1122h-299v-245h279v-311h-279v-254h299v-312h-620v1434h620v-312z" />
<glyph unicode="F" horiz-adv-x="690" d="M660 1122h-280v-268h260v-312h-260v-542h-321v1434h601v-312z" />
<glyph unicode="G" horiz-adv-x="931" d="M55 479v477q0 110 23.5 197t63 142t93.5 91t111.5 51t122.5 15q63 0 119.5 -14.5t110 -50.5t92 -90.5t62 -141t23.5 -196.5v-22h-312v13q-3 190 -95 190q-50 0 -71.5 -48t-21.5 -147v-452q0 -100 21.5 -149t71.5 -49q95 0 95 185v43h-98v311h412v-355q0 -110 -23.5 -197 t-62.5 -142t-92.5 -91t-110.5 -50.5t-120 -14.5q-65 0 -122.5 14.5t-111.5 51t-93.5 91.5t-63 141.5t-23.5 196.5z" />
<glyph unicode="H" horiz-adv-x="933" d="M554 1434h321v-1434h-321v566h-174v-566h-321v1434h321v-557h174v557z" />
<glyph unicode="I" horiz-adv-x="448" d="M59 0v1434h332v-1434h-332z" />
<glyph unicode="J" horiz-adv-x="649" d="M271 1434h320v-955q0 -109 -24 -195.5t-63 -141.5t-93 -91t-110 -51t-118 -16h-139v311h78q149 2 149 198v941z" />
<glyph unicode="K" horiz-adv-x="1019" d="M977 0h-370l-216 570v-570h-332v1434h332v-543l194 544h362l-265 -711z" />
<glyph unicode="L" horiz-adv-x="704" d="M380 312h280v-312h-601v1434h321v-1122z" />
<glyph unicode="M" horiz-adv-x="1265" d="M810 1434h398v-1434h-311v696l-170 -696h-192l-170 696v-696h-311v1434h398l179 -746z" />
<glyph unicode="N" horiz-adv-x="1015" d="M652 1434h310v-1434h-316l-281 694v-694h-311v1434h316l282 -694v694z" />
<glyph unicode="O" horiz-adv-x="952" d="M52 479v477q0 110 24.5 197t65 142t96.5 91t114 51t123 15q64 0 122 -14.5t114 -50.5t97 -91t66 -142.5t25 -197.5v-477q0 -110 -25 -197t-66 -142t-97 -91t-114 -50.5t-122 -14.5q-82 0 -153.5 25t-134 79.5t-99 154.5t-36.5 236zM570 493v452q0 195 -95 195 q-50 0 -71.5 -48t-21.5 -147v-452q0 -100 21.5 -149t71.5 -49q95 0 95 198z" />
<glyph unicode="P" horiz-adv-x="917" d="M59 1433h334q71 0 135.5 -11.5t127 -40.5t108 -74t73.5 -117t28 -163v-99q0 -84 -24.5 -151.5t-65 -112t-96.5 -76t-115.5 -47t-125.5 -19.5h-58v-522h-321v1433zM553 969v17q0 71 -31 104t-78 33h-64v-291h64q46 0 77.5 33t31.5 104z" />
<glyph unicode="Q" horiz-adv-x="1009" d="M955 296v-311h-444q-14 -1 -42 -1q-65 0 -122.5 14.5t-111.5 51t-93.5 91.5t-63 141.5t-23.5 196.5v477q0 110 23.5 197t63 142t93.5 91t111.5 51t122.5 15q64 0 121 -14.5t112 -50.5t94.5 -91t64 -142.5t24.5 -197.5v-477q0 -101 -20 -183h90zM376 945v-452 q0 -100 21.5 -149t71.5 -49q8 0 12 1h1q82 12 82 197v452q0 195 -95 195q-50 0 -71.5 -48t-21.5 -147z" />
<glyph unicode="R" horiz-adv-x="944" d="M59 1433h337q71 0 135.5 -11.5t127 -40.5t108 -74t73.5 -116.5t28 -163.5v-96q0 -200 -146 -303l178 -628h-338l-122 525h-60v-525h-321v1433zM556 972v14q0 71 -31.5 104t-78.5 33h-66v-288h66q46 0 78 33t32 104z" />
<glyph unicode="S" horiz-adv-x="923" d="M35 457h311q2 -162 112 -162t110 134q0 75 -39 102.5t-156 47.5q-42 7 -81 20.5t-83 44t-76 72.5t-53.5 110t-21.5 153q0 104 23.5 187t62 135.5t92.5 87t110.5 49t120.5 14.5q62 0 117 -13.5t108 -48t90.5 -87.5t60.5 -137t23 -192h-308q0 166 -91 166q-46 0 -67 -39 t-21 -101q0 -28 9 -48t20 -31.5t35 -20t41.5 -12.5t51.5 -9q79 -12 141 -42.5t101.5 -70.5t65 -91.5t35.5 -103t10 -108.5q0 -106 -23.5 -189.5t-63 -137t-95.5 -88.5t-117 -49.5t-132 -14.5q-67 0 -125.5 14t-113.5 48.5t-94.5 87.5t-64 135.5t-25.5 187.5z" />
<glyph unicode="T" horiz-adv-x="843" d="M800 1434v-312h-217v-1122h-321v1122h-218v312h756z" />
<glyph unicode="U" horiz-adv-x="940" d="M380 475v959h-321v-972q0 -110 23.5 -194.5t62.5 -137.5t93.5 -86.5t111.5 -46.5t122 -13q64 0 120.5 13t112 46.5t94.5 86t63.5 137.5t24.5 195v972h-321v-959q0 -96 -22.5 -138t-71.5 -42q-51 0 -71.5 41t-20.5 139z" />
<glyph unicode="V" horiz-adv-x="1028" d="M659 1434h324l-261 -1434h-419l-259 1434h324l146 -925z" />
<glyph unicode="W" horiz-adv-x="1550" d="M1182 1434h324l-247 -1434h-380l-105 642l-105 -642h-380l-245 1434h324l133 -906l125 906h298l125 -906z" />
<glyph unicode="X" horiz-adv-x="1052" d="M992 1434l-252 -696l268 -738h-332l-148 428l-151 -428h-333l265 738l-246 696h333l131 -408l132 408h333z" />
<glyph unicode="Y" horiz-adv-x="1071" d="M695 1434h333l-326 -891v-543h-333v542l-325 892h333l159 -523z" />
<glyph unicode="Z" horiz-adv-x="894" d="M382 312h477v-312h-824v258l473 864h-457v312h800v-265z" />
<glyph unicode="[" horiz-adv-x="667" d="M566 1224h-133v-1197h133v-314h-464v1823h464v-312z" />
<glyph unicode="\" horiz-adv-x="868" d="M32 1434h338l466 -1434h-337z" />
<glyph unicode="]" horiz-adv-x="667" d="M102 1536h464v-1823h-464v314h134v1197h-134v312z" />
<glyph unicode="^" horiz-adv-x="909" d="M102 987l353 442l352 -442h-228l-124 146l-125 -146h-228z" />
<glyph unicode="_" horiz-adv-x="1052" d="M102 -3h848v-312h-848v312z" />
<glyph unicode="`" horiz-adv-x="647" d="M121 1475h293l113 -350h-207z" />
<glyph unicode="a" d="M547 1024h184v-1024h-184l-35 75q-70 -91 -203 -91q-49 0 -93 18.5t-83.5 57.5t-63 112.5t-23.5 171.5v338q0 98 23.5 171.5t63 112.5t83.5 57.5t93 18.5q132 0 201 -88zM315 547v-68q2 -154 15.5 -203.5t59.5 -49.5q31 0 46 22.5t20.5 75t4.5 155.5v68q0 102 -7 155.5 t-22 75.5t-44 22q-44 0 -58.5 -51t-14.5 -202z" />
<glyph unicode="b" d="M321 1434v-448q60 56 163 56q48 0 91 -18.5t81 -58t60 -112t22 -171.5v-338q0 -99 -22 -171.5t-60 -112t-81 -58t-91 -18.5q-137 0 -210 94l-37 -78h-184v1434h268zM469 479v68q0 151 -14.5 202t-58.5 51q-29 0 -44 -22t-22 -75.5t-7 -155.5v-68q-1 -103 4.5 -155.5 t20.5 -75t46 -22.5q46 0 59.5 49.5t15.5 203.5z" />
<glyph unicode="c" horiz-adv-x="765" d="M46 344v338q0 79 20.5 142.5t54 103t79 66t92 37.5t95.5 11q63 0 119 -18t106.5 -57t80.5 -111t30 -170v-57h-262q-1 96 -18.5 133.5t-54.5 37.5q-44 0 -58.5 -51t-14.5 -202v-68q2 -154 15.5 -203.5t59.5 -49.5q39 0 55.5 37t16.5 134h261v-56q0 -79 -20.5 -142 t-53 -102.5t-77 -65.5t-90.5 -36.5t-95 -10.5t-95.5 11t-92 37.5t-79 66t-54 103t-20.5 142.5z" />
<glyph unicode="d" d="M463 1434h268v-1434h-184l-38 78q-73 -94 -209 -94q-48 0 -91 18.5t-81 58t-60 112t-22 171.5v338q0 99 22 171.5t60 112t81 58t91 18.5q103 0 163 -56v448zM315 547v-68q2 -154 15.5 -203.5t59.5 -49.5q31 0 46 22.5t20.5 75t4.5 155.5v68q0 102 -7 155.5t-22 75.5 t-44 22q-44 0 -58.5 -51t-14.5 -202z" />
<glyph unicode="e" horiz-adv-x="774" d="M46 344v338q0 79 20.5 142.5t54 103t79 66t92 37.5t95.5 11q63 0 120 -18t108.5 -57.5t82.5 -112.5t31 -172v-262h-413v-32q0 -92 16.5 -126.5t57.5 -35.5q34 0 52 26.5t20 89.5h268q0 -79 -21 -142.5t-55 -103t-79.5 -65.5t-91.5 -36.5t-96 -10.5q-49 0 -95.5 11 t-92 37.5t-79 66t-54 103t-20.5 142.5zM460 617v40q-1 79 -19 110.5t-53 32.5q-38 -1 -55 -32t-18 -113v-38h145z" />
<glyph unicode="f" horiz-adv-x="587" d="M438 1452h105v-241h-30q-59 0 -79 -35t-22 -129v-23h131v-242h-131v-782h-268v782h-99v242h98v67q0 101 24 173.5t66.5 112t92.5 57.5t112 18z" />
<glyph unicode="g" horiz-adv-x="784" d="M46 360v322q0 99 22 171.5t60 112t81 58t91 18.5q134 0 209 -94l38 77h185v-1018q0 -79 -20.5 -142t-54 -103t-79 -66.5t-92 -37t-95.5 -10.5q-56 0 -108.5 14.5t-101 46t-82.5 89t-44 135.5h272q14 -42 62 -42q39 0 56 28.5t17 101.5l1 36q-61 -57 -163 -57 q-48 0 -91 18.5t-81 58t-60 112t-22 171.5zM461 482v64q2 150 -12.5 202t-58.5 52q-24 0 -38 -11t-22 -42.5t-11 -76.5t-4 -124v-64q0 -151 14.5 -202.5t58.5 -51.5q42 0 57.5 52.5t15.5 201.5z" />
<glyph unicode="h" horiz-adv-x="786" d="M324 1434v-452q61 60 163 60q48 0 91 -18.5t80.5 -58t59.5 -112t22 -171.5v-682h-269v547q0 151 -14.5 202t-58.5 51q-39 0 -56 -38t-18 -140v-622h-268v1434h268z" />
<glyph unicode="i" horiz-adv-x="397" d="M56 1148v263h289v-263h-289zM66 0v1024h269v-1024h-269z" />
<glyph unicode="j" horiz-adv-x="514" d="M173 1411h289v-263h-289v263zM183 1024h270v-1017q0 -102 -24 -175t-66.5 -112t-93 -56.5t-112.5 -17.5h-104v241h29q63 1 82.5 41.5t18.5 149.5v946z" />
<glyph unicode="k" d="M744 0h-277l-143 384v-384h-270v1434h270v-761l131 351h277l-168 -497z" />
<glyph unicode="l" horiz-adv-x="370" d="M56 0v1434h269v-1434h-269z" />
<glyph unicode="m" horiz-adv-x="1198" d="M237 1024l41 -76q73 94 204 94q133 0 196 -113q75 113 219 113q48 0 91 -18.5t80.5 -58t59.5 -112t22 -171.5v-682h-268v547q0 151 -14.5 202t-58.5 51q-34 0 -51.5 -26t-21.5 -92v-682h-269v547q0 151 -14.5 202t-58.5 51q-38 0 -55 -33.5t-18 -119.5v-647h-268v1024 h184z" />
<glyph unicode="n" horiz-adv-x="784" d="M237 1024l41 -77q74 95 206 95q48 0 91 -18.5t81 -58t60 -112t22 -171.5v-682h-269v547q0 151 -14.5 202t-58.5 51q-40 0 -57 -38.5t-18 -139.5v-622h-268v1024h184z" />
<glyph unicode="o" horiz-adv-x="776" d="M46 344v338q0 79 20.5 142.5t54 103t79 66t92 37.5t95.5 11q63 0 120 -18t109 -57.5t83 -112.5t31 -172v-338q0 -99 -31 -172t-83 -112.5t-109 -57.5t-120 -18q-49 0 -95.5 11t-92 37.5t-79 66t-54 103t-20.5 142.5zM461 479v68q0 149 -15.5 201t-57.5 52 q-44 0 -58.5 -51t-14.5 -202v-68q2 -154 15.5 -203.5t59.5 -49.5q44 0 58.5 51.5t12.5 201.5z" />
<glyph unicode="p" horiz-adv-x="784" d="M239 1025l37 -78q74 95 209 95q48 0 91 -18.5t81 -58t60 -112.5t22 -172v-337q0 -99 -22 -172t-60 -112.5t-81 -58t-91 -18.5q-100 0 -163 57v-374h-268v1359h185zM470 479v67q-2 154 -15.5 203.5t-59.5 49.5q-31 0 -46 -22.5t-20.5 -75t-4.5 -155.5v-67q0 -102 7 -155.5 t22 -75.5t44 -22q44 0 58.5 51t14.5 202z" />
<glyph unicode="q" d="M547 1026h184v-1360h-268v374q-63 -57 -163 -57q-48 0 -91 18.5t-81 58t-60 112.5t-22 172v337q0 99 22 172t60 112.5t81 58t91 18.5q135 0 209 -95zM315 546v-67q0 -151 14.5 -202t58.5 -51q29 0 44 22t22 75.5t7 155.5v67q1 103 -4.5 155.5t-20.5 75t-46 22.5 q-46 0 -59.5 -49.5t-15.5 -203.5z" />
<glyph unicode="r" horiz-adv-x="579" d="M237 1024l51 -104q100 122 253 122v-242q-112 0 -165.5 -55t-54.5 -191v-554h-268v1024h184z" />
<glyph unicode="s" horiz-adv-x="739" d="M300 328v-29q1 -36 20.5 -54t49.5 -18q33 0 52 17.5t19 52.5q0 68 -34.5 94t-114.5 38q-108 13 -180 89t-72 202q0 161 90.5 241.5t236.5 80.5q141 0 235 -82.5t95 -225.5v-19h-268v14q-1 36 -18.5 53.5t-42.5 17.5q-27 0 -44 -15.5t-17 -47.5q2 -68 78 -83 q96 -17 162.5 -51t100.5 -81.5t48 -97.5t14 -112q0 -164 -92.5 -246t-247.5 -82q-137 0 -237.5 82.5t-101.5 226.5v35h269z" />
<glyph unicode="t" horiz-adv-x="587" d="M412 782v-366q0 -112 19 -152t82 -41h29v-241h-104q-62 0 -112 17.5t-92.5 56.5t-66.5 112.5t-24 176.5v437h-98v242h98v313h269v-313h130v-242h-130z" />
<glyph unicode="u" horiz-adv-x="780" d="M464 1024h268v-1024h-184l-41 77q-74 -95 -206 -95q-48 0 -91 18.5t-80.5 58t-59.5 112t-22 171.5v682h269v-546q0 -152 14.5 -203t58.5 -51q39 0 56 38t18 140v622z" />
<glyph unicode="v" horiz-adv-x="874" d="M567 1024h270l-243 -1022h-312l-242 1022h269l129 -607z" />
<glyph unicode="w" horiz-adv-x="1243" d="M936 1024h269l-180 -1024h-328l-75 496l-74 -496h-328l-180 1024h269l96 -670l105 670h225l105 -670z" />
<glyph unicode="x" horiz-adv-x="856" d="M807 1024l-164 -499l175 -525h-276l-113 308l-113 -308h-276l176 525l-164 499h277l101 -360l100 360h277z" />
<glyph unicode="y" horiz-adv-x="763" d="M456 1026h268v-1023q0 -78 -21 -140.5t-54 -102t-78 -65.5t-91 -36.5t-95 -10.5q-56 0 -108.5 14.5t-101.5 46t-83 89t-44 135.5h272q14 -42 62 -42q38 0 55.5 28.5t17.5 99.5l1 38q-61 -57 -163 -57q-48 0 -91 18.5t-80.5 58t-59.5 112t-22 171.5v664h269v-528 q0 -152 14 -203t58 -51q42 0 58 52t17 202v530z" />
<glyph unicode="z" horiz-adv-x="702" d="M335 242h329v-242h-624v196l324 586h-300v242h590v-198z" />
<glyph unicode="{" horiz-adv-x="854" d="M647 1536h106v-312h-43q-42 0 -73 -32.5t-31 -82.5v-160q0 -278 -192 -308q191 -30 191 -267v-233q0 -50 31 -82t74 -32h43v-312h-106q-168 0 -268 98t-105 275v184q-3 72 -11.5 113.5t-30.5 62.5t-47 27.5t-72 8.5h-11v312h11q38 1 60 4.5t43.5 15t32 34t18 59.5t9.5 93 v161q4 177 103.5 275t267.5 98z" />
<glyph unicode="|" horiz-adv-x="534" d="M102 1434h331v-1557h-331v1557z" />
<glyph unicode="}" horiz-adv-x="854" d="M102 1536h106q168 0 268 -98t105 -275v-165q2 -68 10.5 -108t30.5 -60.5t47.5 -26.5t73.5 -7h10v-312h-10q-38 -2 -59.5 -6t-43.5 -16t-32.5 -35t-18 -62t-10.5 -98v-180q-4 -177 -103.5 -274.5t-267.5 -97.5h-106v312h43q43 0 74 32.5t31 82.5v232q0 237 191 267 q-192 30 -192 308v160q0 50 -31 82.5t-73 32.5h-43v312z" />
<glyph unicode="~" horiz-adv-x="1091" d="M336 430h-233q0 109 25 194.5t84.5 141.5t148.5 56q32 0 63.5 -7.5t53 -16t79.5 -32.5q95 -45 142 -37q57 11 59 88h232q0 -108 -24.5 -193t-83.5 -140.5t-146 -55.5q-22 0 -39 2t-40.5 10t-34 12t-46 20t-50.5 23q-73 33 -121 26q-32 -4 -50.5 -27.5t-18.5 -63.5z" />
<glyph unicode="&#xa1;" horiz-adv-x="493" d="M102 1100h290v-285h-290v285zM144 669h206l37 -511v-492h-280v495z" />
<glyph unicode="&#xa2;" horiz-adv-x="768" d="M254 1231h269v-215q89 -32 144 -113t56 -217v-57h-262q-1 96 -18.5 133.5t-54.5 37.5q-44 0 -58.5 -51t-14.5 -202v-68q2 -154 15.5 -203.5t59.5 -49.5q39 0 55.5 37t16.5 134h261v-56q-1 -137 -56 -218t-144 -113v-209h-269v207q-93 32 -150.5 114.5t-57.5 221.5v338 q0 139 58 221.5t150 114.5v213z" />
<glyph unicode="&#xa3;" horiz-adv-x="1034" d="M986 947h-329v6q-2 94 -24.5 140.5t-69.5 46.5q-50 0 -71.5 -48t-21.5 -147v-110h247v-313h-247v-209h463v-313h-885v313h93v209h-93v313h93v123q0 109 25 195.5t65 141.5t95.5 91t114 51t122.5 15q63 0 121 -14.5t113.5 -50t96.5 -90t66 -140.5t26 -195v-15z" />
<glyph unicode="&#xa4;" horiz-adv-x="1228" />
<glyph unicode="&#xa5;" horiz-adv-x="1105" d="M726 1434h334l-177 -437h158v-313h-269l-18 -37l-8 -28h296v-313h-323v-306h-332v306h-321v313h294l-8 28l-18 37h-268v313h157l-176 437h333l173 -517z" />
<glyph unicode="&#xa6;" horiz-adv-x="536" d="M102 1434h333v-656h-333v656zM102 532h333v-655h-333v655z" />
<glyph unicode="&#xa7;" horiz-adv-x="827" d="M335 204l-1 -31q1 -40 24 -61.5t55 -21.5q36 0 57.5 19.5t21.5 57.5q0 40 -10.5 67t-34 43t-51.5 24.5t-72 14.5q-121 14 -201 99t-80 226q0 136 69 226q-69 85 -69 207q0 180 101.5 271t264.5 91q158 0 263.5 -92.5t106.5 -253.5v-20h-301l-1 12q-1 41 -20.5 61.5 t-46.5 20.5q-29 0 -48 -17.5t-19 -52.5q0 -77 87 -94q105 -17 178.5 -54.5t112.5 -90t56 -110t17 -127.5q0 -131 -58 -217q58 -87 58 -216q0 -183 -104 -275.5t-277 -92.5q-98 0 -183 39t-141.5 120t-56.5 190v38h303zM377 735q-53 -18 -53 -75q0 -11 2 -20t6.5 -16.5 t8 -13.5t12 -11.5t13 -8.5t15 -7.5t14.5 -6t16 -5t14 -4.5q41 -14 61 -28q32 24 32 75q0 44 -25.5 67.5t-71.5 38.5q-28 9 -44 15z" />
<glyph unicode="&#xa8;" horiz-adv-x="829" d="M115 1174v260h264v-260h-264zM461 1174v260h264v-260h-264z" />
<glyph unicode="&#xa9;" horiz-adv-x="1290" d="M646 1434q149 0 276 -74.5t200.5 -201.5t73.5 -276q0 -150 -73.5 -276.5t-200.5 -200.5t-276 -74q-150 0 -276.5 74t-200 200.5t-73.5 276.5q0 149 73.5 276t200 201.5t276.5 74.5zM646 1262q-163 0 -266 -111t-103 -269q0 -159 103 -269t266 -110t266.5 110t103.5 269 q0 157 -103.5 268.5t-266.5 111.5zM449 809v160q0 59 17.5 103t46.5 67.5t62 35t69 11.5q78 0 134 -48t59 -154v-28h-142q-3 55 -15 76t-36 21q-28 0 -38 -32t-10 -126v-14q0 -93 10 -125.5t40 -32.5q25 0 36.5 21.5t14.5 77.5h140v-28q-3 -106 -59 -154t-134 -48 q-37 0 -69.5 11t-61.5 35t-46.5 68t-17.5 103z" />
<glyph unicode="&#xaa;" d="M547 1024h184v-1024h-184l-35 75q-70 -91 -203 -91q-49 0 -93 18.5t-83.5 57.5t-63 112.5t-23.5 171.5v338q0 98 23.5 171.5t63 112.5t83.5 57.5t93 18.5q132 0 201 -88zM315 547v-68q2 -154 15.5 -203.5t59.5 -49.5q31 0 46 22.5t20.5 75t4.5 155.5v68q0 102 -7 155.5 t-22 75.5t-44 22q-44 0 -58.5 -51t-14.5 -202z" />
<glyph unicode="&#xab;" horiz-adv-x="931" d="M103 689l330 301v-315l-159 -143l159 -142v-315l-330 299v315zM500 689l330 301v-315l-158 -143l158 -142v-315l-330 299v315z" />
<glyph unicode="&#xac;" horiz-adv-x="1181" d="M1080 330h-330v202h-648v313h978v-515z" />
<glyph unicode="&#xad;" horiz-adv-x="712" d="M102 705h508v-313h-508v313z" />
<glyph unicode="&#xae;" horiz-adv-x="1290" d="M646 1414q150 0 276.5 -74t200 -201t73.5 -276t-73.5 -276t-200 -201t-276.5 -74t-276.5 74t-200 201t-73.5 276t73.5 276t200 201t276.5 74zM646 1243q-163 0 -266.5 -111t-103.5 -269t103.5 -269t266.5 -111t266.5 111t103.5 269t-103.5 269t-266.5 111zM464 1157h182 q96 0 146.5 -47t50.5 -119v-34q-2 -84 -70 -128l80 -248h-153l-59 198h-30v-198h-147v576zM612 930h27q57 0 57 46q0 47 -57 47h-27v-93z" />
<glyph unicode="&#xaf;" horiz-adv-x="759" d="M102 1434h556v-240h-556v240z" />
<glyph unicode="&#xb0;" d="M391 1594q120 0 205 -84.5t85 -204.5t-85 -204.5t-205 -84.5t-204.5 84.5t-84.5 204.5t84.5 204.5t204.5 84.5zM391 1379q-31 0 -52 -21.5t-21 -52.5t21 -52.5t52 -21.5t53 21.5t22 52.5t-22 52.5t-53 21.5z" />
<glyph unicode="&#xb1;" horiz-adv-x="1181" d="M425 1088h332v-144h323v-313h-323v-144h-332v144h-323v313h323v144zM1080 82h-978v312h978v-312z" />
<glyph unicode="&#xb4;" horiz-adv-x="647" d="M234 1472h293l-199 -351h-207z" />
<glyph unicode="&#xb6;" horiz-adv-x="1441" d="M348 1434h1045v-313h-77v-1455h-331v1455h-115v-1455h-330v965h-192q-128 0 -215.5 87t-87.5 216v196q0 121 89 212.5t214 91.5z" />
<glyph unicode="&#xb7;" horiz-adv-x="493" d="M102 610v285h290v-285h-290z" />
<glyph unicode="&#xb8;" horiz-adv-x="526" d="M207 0h216v-47q-3 -171 -65 -242t-229 -75h-27v191h24q47 5 63 35t18 98v40z" />
<glyph unicode="&#xba;" horiz-adv-x="776" d="M46 344v338q0 79 20.5 142.5t54 103t79 66t92 37.5t95.5 11q63 0 120 -18t109 -57.5t83 -112.5t31 -172v-338q0 -99 -31 -172t-83 -112.5t-109 -57.5t-120 -18q-49 0 -95.5 11t-92 37.5t-79 66t-54 103t-20.5 142.5zM461 479v68q0 149 -15.5 201t-57.5 52 q-44 0 -58.5 -51t-14.5 -202v-68q2 -154 15.5 -203.5t59.5 -49.5q44 0 58.5 51.5t12.5 201.5z" />
<glyph unicode="&#xbb;" horiz-adv-x="931" d="M500 675v315l330 -301v-314l-330 -300v315l159 142zM102 675v314l330 -300v-314l-330 -300v315l159 142z" />
<glyph unicode="&#xbc;" horiz-adv-x="1368" d="M68 1434h262v-692h-199v510h-63v182zM759 1434h243l-567 -1434h-243zM874 692h200l-96 -411h88v237h199v-237h36v-181h-36v-99h-198v99h-291v203z" />
<glyph unicode="&#xbd;" horiz-adv-x="1318" d="M68 1434h262v-693h-200v510h-62v183zM759 1434h244l-568 -1434h-242zM1010 695h12q100 -2 164.5 -54t67.5 -164v-8q0 -54 -25 -100t-55.5 -72.5t-70 -60t-56.5 -55.5h201v-181h-469v81q0 53 15.5 97t39.5 73t54 52.5t59.5 42t53.5 36t39.5 38t15.5 44.5q0 23 -11 36.5 t-30 15.5h-3q-22 0 -32 -15.5t-13 -50.5h-198v6q1 65 23.5 113.5t58.5 74.5t75.5 38.5t83.5 12.5z" />
<glyph unicode="&#xbe;" horiz-adv-x="1536" d="M294 1450l14 -1q225 -4 228 -207v-9q0 -47 -18 -84.5t-42 -49.5q25 -14 42.5 -52.5t18.5 -87.5v-8q-3 -205 -232 -209h-12q-96 0 -161.5 52.5t-67.5 163.5v5h186q3 -36 40 -39h8q16 0 27.5 8.5t13.5 22.5l1 6q1 20 -14.5 32.5t-49.5 13.5h-58v184h58q58 0 61 35l1 6 q0 15 -10.5 25t-29.5 10h-6q-38 0 -42 -38h-185v5q3 106 69 161t160 55zM930 1434h244l-568 -1434h-242zM1042 692h199l-95 -411h89v237h198v-237h36v-181h-36v-100h-198v100h-291v202z" />
<glyph unicode="&#xbf;" horiz-adv-x="1050" d="M716 819h-290v285h290v-285zM536 -334h-15q-61 0 -119 14t-113 47.5t-96 83.5t-66 127.5t-25 173.5v4q0 81 19 141.5t49 96.5t65.5 63t71.5 49.5t65.5 47.5t48 66t18.5 96h266q0 -87 -15 -153t-39 -105t-53.5 -68.5t-58.5 -51t-53 -43.5t-39 -55.5t-15 -79.5 q0 -62 23 -102t66 -40h7q78 5 89 172h330v-10q-2 -103 -27.5 -184.5t-64.5 -134.5t-93 -88t-109.5 -50.5t-116.5 -16.5z" />
<glyph unicode="&#xc0;" horiz-adv-x="1024" d="M310 1885h293l113 -351h-207zM305 1434h412l263 -1434h-321l-47 278h-199l-48 -278h-321zM576 599l-64 475l-66 -475h130z" />
<glyph unicode="&#xc1;" horiz-adv-x="1024" d="M450 1882h292l-199 -351h-206zM305 1434h412l263 -1434h-321l-47 278h-199l-48 -278h-321zM577 599l-65 475l-66 -475h131z" />
<glyph unicode="&#xc2;" horiz-adv-x="1024" d="M371 1856h284l150 -326h-191l-101 109l-101 -110h-191zM305 1434h412l263 -1434h-321l-47 278h-199l-48 -278h-321zM577 599l-65 475l-66 -475h131z" />
<glyph unicode="&#xc3;" horiz-adv-x="1024" d="M643 1853h194q0 -65 -10.5 -120t-33 -102t-63 -73.5t-94.5 -26.5q-37 0 -65 11t-72 40q-37 26 -72 23q-43 -6 -44 -74h-193q0 65 10.5 120t33 102t63 73.5t94.5 26.5q37 0 64.5 -11t72.5 -40q46 -33 82 -18q32 10 33 69zM305 1434h412l263 -1434h-321l-47 278h-199 l-48 -278h-321zM577 599l-65 475l-66 -475h131z" />
<glyph unicode="&#xc4;" horiz-adv-x="1024" d="M208 1843h265v-259h-265v259zM554 1843h264v-259h-264v259zM305 1434h412l263 -1434h-321l-47 278h-199l-48 -278h-321zM577 599l-65 475l-66 -475h131z" />
<glyph unicode="&#xc5;" horiz-adv-x="1024" d="M513 1970q97 0 166.5 -69t69.5 -167t-69 -167.5t-167 -69.5t-167 69.5t-69 167.5t69 167t167 69zM513 1784q-21 0 -36 -14.5t-15 -35.5t15 -36.5t36 -15.5t36 15.5t15 36.5t-15 35.5t-36 14.5zM305 1434h412l263 -1434h-321l-47 278h-199l-48 -278h-321zM576 599l-64 475 l-66 -475h130z" />
<glyph unicode="&#xc6;" horiz-adv-x="1230" d="M331 1434h825v-312h-299v-245h279v-311h-279v-254h299v-312h-620v278h-97l-48 -278h-321zM535 599v463l-63 -463h63z" />
<glyph unicode="&#xc7;" horiz-adv-x="921" d="M55 479v477q0 110 24.5 197t65 142t96.5 91t114 51t123 15q63 0 120 -14.5t111 -50t93.5 -89.5t64 -140t25.5 -195v-48h-321v40q-2 93 -24 139t-69 46q-50 0 -71.5 -48t-21.5 -147v-452q0 -100 21.5 -149t71.5 -49q47 0 68.5 46.5t24.5 140.5v40h321v-49 q-1 -200 -75.5 -313t-195.5 -153v-40q-1 -89 -13.5 -147t-44.5 -100t-85.5 -61.5t-136.5 -22.5h-40v191l38 4q36 7 50 35t16 85v40l-32 5q-66 15 -120.5 48t-100 89t-71.5 144.5t-26 201.5z" />
<glyph unicode="&#xc8;" horiz-adv-x="708" d="M153 1885h292l113 -351h-207zM59 1434h620v-312h-299v-245h279v-311h-279v-254h299v-312h-620v1434z" />
<glyph unicode="&#xc9;" horiz-adv-x="708" d="M266 1882h292l-198 -351h-207zM59 1434h620v-312h-299v-245h279v-311h-279v-254h299v-312h-620v1434z" />
<glyph unicode="&#xca;" horiz-adv-x="708" d="M213 1856h285l149 -326h-190l-101 109l-102 -110h-190zM59 1434h620v-312h-299v-245h279v-312h-279v-253h299v-312h-620v1434z" />
<glyph unicode="&#xcb;" horiz-adv-x="708" d="M51 1843h264v-259h-264v259zM396 1843h264v-259h-264v259zM59 1434h620v-312h-299v-245h279v-311h-279v-254h299v-312h-620v1434z" />
<glyph unicode="&#xcc;" horiz-adv-x="448" d="M22 1885h292l113 -351h-207zM59 0v1434h332v-1434h-332z" />
<glyph unicode="&#xcd;" horiz-adv-x="448" d="M135 1882h292l-198 -351h-207zM59 0v1434h332v-1434h-332z" />
<glyph unicode="&#xce;" horiz-adv-x="448" d="M82 1856h285l149 -326h-190l-101 109l-102 -110h-190zM59 0v1434h332v-1434h-332z" />
<glyph unicode="&#xcf;" horiz-adv-x="448" d="M-80 1584v259h264v-259h-264zM265 1584v259h265v-259h-265zM59 0v1434h332v-1434h-332z" />
<glyph unicode="&#xd0;" horiz-adv-x="933" d="M59 1434h404q65 0 121 -13t112 -47.5t95 -88.5t63.5 -143t24.5 -204v-442q0 -115 -24.5 -204t-63.5 -143t-95 -88.5t-112 -47.5t-121 -13h-404v540h-86v312h86v582zM558 509v417q0 196 -95 196h-83v-270h100v-312h-100v-228h83q95 0 95 197z" />
<glyph unicode="&#xd1;" horiz-adv-x="1015" d="M638 1853h193q0 -65 -10.5 -120t-33 -102t-63 -73.5t-94.5 -26.5q-37 0 -65 11t-72 40q-37 26 -71 23q-43 -6 -44 -74h-194q0 65 10.5 120t33 102t63 73.5t94.5 26.5q37 0 65.5 -11t72.5 -40q46 -33 81 -18q33 10 34 69zM652 1434h310v-1434h-316l-281 694v-694h-311 v1434h316l282 -694v694z" />
<glyph unicode="&#xd2;" horiz-adv-x="952" d="M274 1885h293l113 -351h-207zM52 479v477q0 110 24.5 197t65 142t96.5 91t114 51t123 15q64 0 122 -14.5t114 -50.5t97 -91t66 -142.5t25 -197.5v-477q0 -110 -25 -197t-66 -142t-97 -91t-114 -50.5t-122 -14.5q-82 0 -153.5 25t-134 79.5t-99 154.5t-36.5 236zM570 493 v452q0 195 -95 195q-50 0 -71.5 -48t-21.5 -147v-452q0 -100 21.5 -149t71.5 -49q95 0 95 198z" />
<glyph unicode="&#xd3;" horiz-adv-x="952" d="M387 1882h293l-199 -351h-207zM52 479v477q0 110 24.5 197t65 142t96.5 91t114 51t123 15q64 0 122 -14.5t114 -50.5t97 -91t66 -142.5t25 -197.5v-477q0 -110 -25 -197t-66 -142t-97 -91t-114 -50.5t-122 -14.5q-82 0 -153.5 25t-134 79.5t-99 154.5t-36.5 236zM570 493 v452q0 195 -95 195q-50 0 -71.5 -48t-21.5 -147v-452q0 -100 21.5 -149t71.5 -49q95 0 95 198z" />
<glyph unicode="&#xd4;" horiz-adv-x="952" d="M335 1856h284l150 -326h-191l-101 109l-101 -110h-191zM52 479v477q0 110 24.5 197t65 142t96.5 91t114 51t123 15q64 0 122 -14.5t114 -50.5t97 -91t66 -142.5t25 -197.5v-477q0 -110 -25 -197t-66 -142t-97 -91t-114 -50.5t-122 -14.5q-82 0 -153.5 25t-134 79.5 t-99 154.5t-36.5 236zM570 493v452q0 195 -95 195q-50 0 -71.5 -48t-21.5 -147v-452q0 -100 21.5 -149t71.5 -49q95 0 95 198z" />
<glyph unicode="&#xd5;" horiz-adv-x="952" d="M609 1854h193q0 -89 -17.5 -158t-64 -117t-118.5 -48q-37 0 -65.5 11t-71.5 40q-38 26 -72 23q-43 -6 -43 -74h-194q0 88 18 157.5t64.5 117.5t118.5 48q37 0 64 -11.5t72 -41.5q47 -32 82 -17q34 10 34 70zM52 479v477q0 110 24.5 197t65 142t96.5 91t114 51t123 15 q64 0 122 -14.5t114 -50.5t97 -91t66 -142.5t25 -197.5v-477q0 -110 -25 -197t-66 -142t-97 -91t-114 -50.5t-122 -14.5q-82 0 -153.5 25t-134 79.5t-99 154.5t-36.5 236zM570 493v452q0 195 -95 195q-50 0 -71.5 -48t-21.5 -147v-452q0 -100 21.5 -149t71.5 -49 q95 0 95 198z" />
<glyph unicode="&#xd6;" horiz-adv-x="952" d="M172 1584v259h264v-259h-264zM518 1584v259h264v-259h-264zM52 479v477q0 110 24.5 197t65 142t96.5 91t114 51t123 15q64 0 122 -14.5t114 -50.5t97 -91t66 -142.5t25 -197.5v-477q0 -110 -25 -197t-66 -142t-97 -91t-114 -50.5t-122 -14.5q-82 0 -153.5 25t-134 79.5 t-99 154.5t-36.5 236zM570 493v452q0 195 -95 195q-50 0 -71.5 -48t-21.5 -147v-452q0 -100 21.5 -149t71.5 -49q95 0 95 198z" />
<glyph unicode="&#xd7;" horiz-adv-x="1114" d="M566 769l227 227l221 -221l-227 -227l227 -228l-235 -234l-227 227l-229 -229l-221 221l229 229l-229 228l235 235z" />
<glyph unicode="&#xd8;" horiz-adv-x="952" d="M838 1536l-65 -201q125 -130 125 -379v-477q0 -110 -25 -197t-66 -142t-97.5 -91t-114.5 -50.5t-122 -14.5q-73 0 -134 18l-34 -104h-195l65 201q-124 127 -124 380v477q0 110 24.5 197t64.5 142t96 91t114 51t123 15q71 0 137 -19l33 103h195zM382 945v-212l130 398 q-17 9 -37 9q-50 0 -71.5 -48t-21.5 -147zM570 711l-133 -407q17 -9 38 -9q95 0 95 198v218z" />
<glyph unicode="&#xd9;" horiz-adv-x="940" d="M269 1885h292l113 -351h-207zM380 475v959h-321v-972q0 -110 23.5 -194.5t62.5 -137.5t93.5 -86.5t111.5 -46.5t122 -13q64 0 120.5 13t112 46.5t94.5 86t63.5 137.5t24.5 195v972h-321v-959q0 -96 -22.5 -138t-71.5 -42q-51 0 -71.5 41t-20.5 139z" />
<glyph unicode="&#xda;" horiz-adv-x="940" d="M382 1882h292l-198 -351h-207zM380 475v959h-321v-972q0 -110 23.5 -194.5t62.5 -137.5t93.5 -86.5t111.5 -46.5t122 -13q64 0 120.5 13t112 46.5t94.5 86t63.5 137.5t24.5 195v972h-321v-959q0 -96 -22.5 -138t-71.5 -42q-51 0 -71.5 41t-20.5 139z" />
<glyph unicode="&#xdb;" horiz-adv-x="940" d="M329 1856h285l149 -326h-190l-101 109l-102 -110h-190zM380 475v959h-321v-972q0 -110 23.5 -194.5t62.5 -137.5t93.5 -86.5t111.5 -46.5t122 -13q64 0 120.5 13t112 46.5t94.5 86t63.5 137.5t24.5 195v972h-321v-959q0 -96 -22.5 -138t-71.5 -42q-51 0 -71.5 41 t-20.5 139z" />
<glyph unicode="&#xdc;" horiz-adv-x="940" d="M167 1584v259h264v-259h-264zM512 1584v259h264v-259h-264zM380 475v959h-321v-972q0 -110 23.5 -194.5t62.5 -137.5t93.5 -86.5t111.5 -46.5t122 -13q64 0 120.5 13t112 46.5t94.5 86t63.5 137.5t24.5 195v972h-321v-959q0 -96 -22.5 -138t-71.5 -42q-51 0 -71.5 41 t-20.5 139z" />
<glyph unicode="&#xdd;" horiz-adv-x="1071" d="M446 1882h293l-199 -351h-207zM695 1434h333l-326 -891v-543h-333v542l-325 892h333l159 -523z" />
<glyph unicode="&#xde;" horiz-adv-x="909" d="M59 1436h321v-169h46q85 -4 157.5 -26.5t136 -68t100 -125t36.5 -185.5v-97q0 -84 -24.5 -152t-65.5 -112.5t-97.5 -75.5t-116 -46t-126.5 -19h-46v-360h-321v1436zM544 807v14q0 71 -31 104t-78 33h-55v-288h55q46 0 77.5 33t31.5 104z" />
<glyph unicode="&#xdf;" horiz-adv-x="1150" d="M565 1449h31q87 0 162 -14.5t140.5 -47.5t112 -82.5t74.5 -122t31 -163.5v-28q0 -87 -35.5 -159.5t-83.5 -97.5q52 -25 88.5 -100.5t36.5 -171.5v-19q-1 -99 -28.5 -177t-71.5 -127t-105.5 -81t-126 -45t-138.5 -13h-204v313h204q134 0 141 116v18q0 55 -34.5 92 t-110.5 37h-96v315h90q135 0 142 107v15q0 125 -188 125h-27q-177 -6 -188 -137v-1001h-330v977q0 463 514 472z" />
<glyph unicode="&#xe0;" d="M189 1475h293l113 -350h-207zM46 344v338q0 98 23.5 171.5t63 112.5t83.5 57.5t93 18.5q132 0 201 -88l37 70h184v-1024h-184l-35 75q-70 -91 -203 -91q-49 0 -93 18.5t-83.5 57.5t-63 112.5t-23.5 171.5zM461 479v68q0 102 -7 155.5t-22 75.5t-44 22q-44 0 -58.5 -51 t-14.5 -202v-68q2 -154 15.5 -203.5t59.5 -49.5q31 0 46 22.5t20.5 75t4.5 155.5z" />
<glyph unicode="&#xe1;" d="M302 1472h293l-199 -351h-207zM547 1024h184v-1024h-184l-35 75q-70 -91 -203 -91q-49 0 -93 18.5t-83.5 57.5t-63 112.5t-23.5 171.5v338q0 98 23.5 171.5t63 112.5t83.5 57.5t93 18.5q132 0 201 -88zM315 547v-68q2 -154 15.5 -203.5t59.5 -49.5q31 0 46 22.5t20.5 75 t4.5 155.5v68q0 102 -7 155.5t-22 75.5t-44 22q-44 0 -58.5 -51t-14.5 -202z" />
<glyph unicode="&#xe2;" d="M250 1447h284l150 -327h-191l-101 110l-101 -110h-191zM547 1024h184v-1024h-184l-35 75q-70 -91 -203 -91q-49 0 -93 18.5t-83.5 57.5t-63 112.5t-23.5 171.5v338q0 98 23.5 171.5t63 112.5t83.5 57.5t93 18.5q132 0 201 -88zM315 547v-68q2 -154 15.5 -203.5 t59.5 -49.5q31 0 46 22.5t20.5 75t4.5 155.5v68q0 102 -7 155.5t-22 75.5t-44 22q-44 0 -58.5 -51t-14.5 -202z" />
<glyph unicode="&#xe3;" d="M523 1446h194q0 -89 -17.5 -158t-64 -117t-118.5 -48q-37 0 -65.5 11t-71.5 40q-38 26 -72 23q-43 -6 -43 -74h-194q0 89 17.5 158t64 117t118.5 48q37 0 64.5 -11.5t72.5 -41.5q47 -32 82 -17q33 10 33 70zM547 1024h184v-1024h-184l-35 75q-70 -91 -203 -91 q-49 0 -93 18.5t-83.5 57.5t-63 112.5t-23.5 171.5v338q0 98 23.5 171.5t63 112.5t83.5 57.5t93 18.5q132 0 201 -88zM315 547v-68q2 -154 15.5 -203.5t59.5 -49.5q31 0 46 22.5t20.5 75t4.5 155.5v68q0 102 -7 155.5t-22 75.5t-44 22q-44 0 -58.5 -51t-14.5 -202z" />
<glyph unicode="&#xe4;" d="M88 1174v260h264v-260h-264zM433 1174v260h264v-260h-264zM547 1024h184v-1024h-184l-35 75q-70 -91 -203 -91q-49 0 -93 18.5t-83.5 57.5t-63 112.5t-23.5 171.5v338q0 98 23.5 171.5t63 112.5t83.5 57.5t93 18.5q132 0 201 -88zM315 547v-68q2 -154 15.5 -203.5 t59.5 -49.5q31 0 46 22.5t20.5 75t4.5 155.5v68q0 102 -7 155.5t-22 75.5t-44 22q-44 0 -58.5 -51t-14.5 -202z" />
<glyph unicode="&#xe5;" d="M392 1560q98 0 167 -69t69 -167t-69 -167t-167 -69t-167 69t-69 167t69 167t167 69zM392 1375q-21 0 -36 -15t-15 -36t15 -36t36 -15t36 15t15 36t-15 36t-36 15zM547 1024h184v-1024h-184l-35 75q-70 -91 -203 -91q-49 0 -93 18.5t-83.5 57.5t-63 112.5t-23.5 171.5v338 q0 98 23.5 171.5t63 112.5t83.5 57.5t93 18.5q132 0 201 -88zM315 547v-68q2 -154 15.5 -203.5t59.5 -49.5q31 0 46 22.5t20.5 75t4.5 155.5v68q0 102 -7 155.5t-22 75.5t-44 22q-44 0 -58.5 -51t-14.5 -202z" />
<glyph unicode="&#xe6;" horiz-adv-x="1298" d="M46 344v338q0 98 23.5 171.5t63 112.5t83.5 57.5t93 18.5q132 0 201 -88l37 70h184v-34q73 52 179 52q63 0 120 -18t109 -57.5t83 -112.5t31 -172v-262h-414l1 -31q0 -93 16 -127.5t57 -35.5q34 0 52 26.5t20 89.5h268q0 -79 -21 -142.5t-55 -103t-79.5 -65.5 t-91.5 -36.5t-96 -10.5q-106 0 -179 52v-36h-184l-35 75q-70 -91 -203 -91q-49 0 -93 18.5t-83.5 57.5t-63 112.5t-23.5 171.5zM461 479v68q0 102 -7 155.5t-22 75.5t-44 22q-44 0 -58.5 -51t-14.5 -202v-68q2 -154 15.5 -203.5t59.5 -49.5q31 0 46 22.5t20.5 75t4.5 155.5z M984 616l-1 40q-1 79 -19 110.5t-53 32.5q-37 0 -54.5 -31t-18.5 -113v-39h146z" />
<glyph unicode="&#xe7;" horiz-adv-x="765" d="M46 344v338q0 79 20.5 142.5t54 103t79 66t92 37.5t95.5 11q63 0 119 -18t106.5 -57t80.5 -111t30 -170v-57h-262q-1 96 -18.5 133.5t-54.5 37.5q-44 0 -58.5 -51t-14.5 -202v-68q2 -154 15.5 -203.5t59.5 -49.5q39 0 55.5 37t16.5 134h261v-56q-1 -244 -179 -325v-51 q-1 -90 -14.5 -149t-47 -100t-90 -59.5t-144.5 -20.5h-25v191h24q47 4 63 34t18 96v35q-24 2 -46 7q-103 26 -169.5 110.5t-66.5 234.5z" />
<glyph unicode="&#xe8;" horiz-adv-x="774" d="M184 1475h292l114 -350h-207zM46 344v338q0 79 20.5 142.5t54 103t79 66t92 37.5t95.5 11q63 0 120 -18t108.5 -57.5t82.5 -112.5t31 -172v-262h-413v-32q0 -92 16.5 -126.5t57.5 -35.5q34 0 52 26.5t20 89.5h268q0 -79 -21 -142.5t-55 -103t-79.5 -65.5t-91.5 -36.5 t-96 -10.5q-49 0 -95.5 11t-92 37.5t-79 66t-54 103t-20.5 142.5zM460 617v40q-1 79 -19 110.5t-53 32.5q-38 -1 -55.5 -32t-18.5 -113l1 -38h145z" />
<glyph unicode="&#xe9;" horiz-adv-x="774" d="M297 1472h293l-199 -351h-207zM46 344v338q0 79 20.5 142.5t54 103t79 66t92 37.5t95.5 11q63 0 120 -18t108.5 -57.5t82.5 -112.5t31 -172v-262h-413v-32q0 -92 16.5 -126.5t57.5 -35.5q34 0 52 26.5t20 89.5h268q0 -79 -21 -142.5t-55 -103t-79.5 -65.5t-91.5 -36.5 t-96 -10.5q-49 0 -95.5 11t-92 37.5t-79 66t-54 103t-20.5 142.5zM460 617v40q-1 79 -19 110.5t-53 32.5q-38 -1 -55.5 -32t-18.5 -113l1 -38h145z" />
<glyph unicode="&#xea;" horiz-adv-x="774" d="M245 1447h284l149 -327h-190l-101 110l-101 -110h-191zM46 344v338q0 79 20.5 142.5t54 103t79 66t92 37.5t95.5 11q63 0 120 -18t108.5 -57.5t82.5 -112.5t31 -172v-262h-413v-32q0 -92 16.5 -126.5t57.5 -35.5q34 0 52 26.5t20 89.5h268q0 -79 -21 -142.5t-55 -103 t-79.5 -65.5t-91.5 -36.5t-96 -10.5q-49 0 -95.5 11t-92 37.5t-79 66t-54 103t-20.5 142.5zM460 617v40q-1 79 -19 110.5t-53 32.5q-38 -1 -55 -32t-18 -113v-38h145z" />
<glyph unicode="&#xeb;" horiz-adv-x="774" d="M82 1174v260h264v-260h-264zM428 1174v260h264v-260h-264zM46 344v338q0 79 20.5 142.5t54 103t79 66t92 37.5t95.5 11q63 0 120 -18t108.5 -57.5t82.5 -112.5t31 -172v-262h-413v-32q0 -92 16.5 -126.5t57.5 -35.5q34 0 52 26.5t20 89.5h268q0 -79 -21 -142.5t-55 -103 t-79.5 -65.5t-91.5 -36.5t-96 -10.5q-49 0 -95.5 11t-92 37.5t-79 66t-54 103t-20.5 142.5zM460 617v40q-1 79 -19 110.5t-53 32.5q-38 -1 -55 -32t-18 -113v-38h145z" />
<glyph unicode="&#xec;" horiz-adv-x="552" d="M88 1475h292l113 -350h-207zM219 0v1024h270v-1024h-270z" />
<glyph unicode="&#xed;" horiz-adv-x="538" d="M163 1472h292l-198 -351h-207zM65 0v1024h269v-1024h-269z" />
<glyph unicode="&#xee;" horiz-adv-x="641" d="M179 1447h284l150 -327h-191l-101 110l-101 -110h-190zM192 0v1024h270v-1024h-270z" />
<glyph unicode="&#xef;" horiz-adv-x="708" d="M50 1174v260h264v-260h-264zM396 1174v260h264v-260h-264zM231 0v1024h270v-1024h-270z" />
<glyph unicode="&#xf0;" horiz-adv-x="956" d="M867 1229l-144 -85q7 -26 7 -52v-748q0 -79 -21 -142t-54.5 -103t-78.5 -66.5t-91.5 -37.5t-95.5 -11q-63 0 -120 18t-109 57.5t-83 112.5t-31 172v338q0 99 31 172t83 112.5t109 57.5t120 18q44 0 73 -26v56q-1 77 -19 107t-55 30q-31 0 -47 -25.5t-22 -89.5h-263l1 21 q3 92 33 160t79.5 105t104 54t115.5 17q146 0 236 -85l115 68zM461 479v68q0 150 -14.5 201.5t-58.5 51.5q-42 0 -57.5 -52t-15.5 -201v-68q-2 -150 13 -201.5t59 -51.5q46 0 59 49t15 204z" />
<glyph unicode="&#xf1;" horiz-adv-x="784" d="M523 1446h193q0 -89 -17.5 -158t-64 -117t-118.5 -48q-37 0 -65.5 11t-71.5 40q-38 26 -72 23q-43 -6 -43 -74h-193q0 89 17.5 158t64 117t118.5 48q37 0 64 -11.5t72 -41.5q47 -32 82 -17q34 10 34 70zM237 1024l41 -77q74 95 206 95q48 0 91 -18.5t81 -58t60 -112 t22 -171.5v-682h-269v547q0 151 -14.5 202t-58.5 51q-40 0 -57 -38.5t-18 -139.5v-622h-268v1024h184z" />
<glyph unicode="&#xf2;" horiz-adv-x="776" d="M186 1475h293l113 -350h-207zM46 344v338q0 79 20.5 142.5t54 103t79 66t92 37.5t95.5 11q63 0 120 -18t109 -57.5t83 -112.5t31 -172v-338q0 -99 -31 -172t-83 -112.5t-109 -57.5t-120 -18q-49 0 -95.5 11t-92 37.5t-79 66t-54 103t-20.5 142.5zM461 479v68 q0 149 -15.5 201t-57.5 52q-44 0 -58.5 -51t-14.5 -202v-68q2 -154 15.5 -203.5t59.5 -49.5q44 0 58.5 51.5t12.5 201.5z" />
<glyph unicode="&#xf3;" horiz-adv-x="776" d="M300 1472h292l-199 -351h-207zM46 344v338q0 79 20.5 142.5t54 103t79 66t92 37.5t95.5 11q63 0 120 -18t109 -57.5t83 -112.5t31 -172v-338q0 -99 -31 -172t-83 -112.5t-109 -57.5t-120 -18q-49 0 -95.5 11t-92 37.5t-79 66t-54 103t-20.5 142.5zM461 479v68 q0 149 -15.5 201t-57.5 52q-44 0 -58.5 -51t-14.5 -202v-68q2 -154 15.5 -203.5t59.5 -49.5q44 0 58.5 51.5t12.5 201.5z" />
<glyph unicode="&#xf4;" horiz-adv-x="776" d="M247 1447h284l150 -327h-191l-101 110l-101 -110h-191zM46 344v338q0 79 20.5 142.5t54 103t79 66t92 37.5t95.5 11q63 0 120 -18t109 -57.5t83 -112.5t31 -172v-338q0 -99 -31 -172t-83 -112.5t-109 -57.5t-120 -18q-49 0 -95.5 11t-92 37.5t-79 66t-54 103t-20.5 142.5 zM461 479v68q0 149 -15.5 201t-57.5 52q-44 0 -58.5 -51t-14.5 -202v-68q2 -154 15.5 -203.5t59.5 -49.5q44 0 58.5 51.5t12.5 201.5z" />
<glyph unicode="&#xf5;" horiz-adv-x="776" d="M519 1446h193q0 -89 -17.5 -158t-64 -117t-118.5 -48q-37 0 -65.5 11t-71.5 40q-38 26 -71 23q-44 -6 -44 -74h-193q0 89 17.5 158t64 117t118.5 48q37 0 64 -11.5t72 -41.5q48 -32 83 -17q33 10 33 70zM46 344v338q0 79 20.5 142.5t54 103t79 66t92 37.5t95.5 11 q63 0 120 -18t109 -57.5t83 -112.5t31 -172v-338q0 -99 -31 -172t-83 -112.5t-109 -57.5t-120 -18q-49 0 -95.5 11t-92 37.5t-79 66t-54 103t-20.5 142.5zM461 479v68q0 149 -15.5 201t-57.5 52q-44 0 -58.5 -51t-14.5 -202v-68q2 -154 15.5 -203.5t59.5 -49.5 q44 0 58.5 51.5t12.5 201.5z" />
<glyph unicode="&#xf6;" horiz-adv-x="776" d="M85 1174v260h264v-260h-264zM430 1174v260h264v-260h-264zM46 344v338q0 79 20.5 142.5t54 103t79 66t92 37.5t95.5 11q63 0 120 -18t109 -57.5t83 -112.5t31 -172v-338q0 -99 -31 -172t-83 -112.5t-109 -57.5t-120 -18q-49 0 -95.5 11t-92 37.5t-79 66t-54 103 t-20.5 142.5zM461 479v68q0 149 -15.5 201t-57.5 52q-44 0 -58.5 -51t-14.5 -202v-68q2 -154 15.5 -203.5t59.5 -49.5q44 0 58.5 51.5t12.5 201.5z" />
<glyph unicode="&#xf7;" horiz-adv-x="1181" d="M436 783v285h290v-285h-290zM102 701h978v-312h-978v312zM438 22v285h290v-285h-290z" />
<glyph unicode="&#xf8;" horiz-adv-x="872" d="M725 1126l-51 -156q117 -95 117 -288v-338q0 -99 -31 -172t-83 -112.5t-109 -57.5t-120 -18q-50 0 -94 10l-31 -96h-148l51 157q-118 94 -118 289v338q0 79 20.5 142.5t54 103t78.5 66t91.5 37.5t95.5 11q53 0 97 -11l31 95h149zM376 547v-34l92 283q-9 3 -20 3 q-44 0 -58 -50t-14 -202zM523 509l-92 -280q12 -2 19 -2q30 0 46 22t22 75t5 155v30z" />
<glyph unicode="&#xf9;" horiz-adv-x="780" d="M188 1475h292l113 -350h-207zM464 1024h268v-1024h-184l-41 77q-74 -95 -206 -95q-48 0 -91 18.5t-80.5 58t-59.5 112t-22 171.5v682h269v-546q0 -152 14.5 -203t58.5 -51q39 0 56 38t18 140v622z" />
<glyph unicode="&#xfa;" horiz-adv-x="780" d="M301 1472h292l-198 -351h-207zM464 1024h268v-1024h-184l-41 77q-74 -95 -206 -95q-48 0 -91 18.5t-80.5 58t-59.5 112t-22 171.5v682h269v-546q0 -152 14.5 -203t58.5 -51q39 0 56 38t18 140v622z" />
<glyph unicode="&#xfb;" horiz-adv-x="780" d="M248 1447h285l149 -327h-190l-101 110l-102 -110h-190zM464 1024h268v-1024h-184l-41 77q-74 -95 -206 -95q-48 0 -91 18.5t-80.5 58t-59.5 112t-22 171.5v682h269v-546q0 -152 14.5 -203t58.5 -51q39 0 56 38t18 140v622z" />
<glyph unicode="&#xfc;" horiz-adv-x="780" d="M86 1174v260h264v-260h-264zM431 1174v260h265v-260h-265zM464 1024h268v-1024h-184l-41 77q-74 -95 -206 -95q-48 0 -91 18.5t-80.5 58t-59.5 112t-22 171.5v682h269v-546q0 -152 14.5 -203t58.5 -51q39 0 56 38t18 140v622z" />
<glyph unicode="&#xfd;" horiz-adv-x="763" d="M293 1472h292l-198 -351h-207zM456 1025h268v-1022q0 -78 -21 -140.5t-54 -102t-78 -65.5t-91 -36.5t-95 -10.5q-56 0 -108.5 14.5t-101.5 46t-83 89t-44 135.5h272q14 -42 62 -42q38 0 55.5 28.5t17.5 99.5l1 38q-61 -57 -163 -57q-48 0 -91 18.5t-80.5 58t-59.5 112 t-22 171.5v664h269v-528q0 -152 14 -203t58 -51q42 0 58 52t17 202v529z" />
<glyph unicode="&#xfe;" horiz-adv-x="784" d="M322 1434v-449q61 57 163 57q48 0 91 -18.5t81 -58t60 -112.5t22 -172v-337q0 -99 -22 -172t-60 -112.5t-81 -58t-91 -18.5q-100 0 -163 57v-374h-268v1768h268zM470 479v67q-2 154 -15.5 203.5t-59.5 49.5q-31 0 -46 -22.5t-20.5 -75t-4.5 -155.5v-67q0 -102 7 -155.5 t22 -75.5t44 -22q44 0 58.5 51t14.5 202z" />
<glyph unicode="&#xff;" horiz-adv-x="763" d="M78 1174v260h264v-260h-264zM423 1174v260h264v-260h-264zM456 1026h268v-1023q0 -78 -21 -140.5t-54 -102t-78 -65.5t-91 -36.5t-95 -10.5q-56 0 -108.5 14.5t-101.5 46t-83 89t-44 135.5h272q14 -42 62 -42q38 0 55.5 28.5t17.5 99.5l1 38q-61 -57 -163 -57 q-48 0 -91 18.5t-80.5 58t-59.5 112t-22 171.5v664h269v-528q0 -152 14 -203t58 -51q42 0 58 52t17 202v530z" />
<glyph unicode="&#x100;" horiz-adv-x="1024" d="M235 1844h556v-240h-556v240zM305 1434h412l263 -1434h-321l-47 278h-199l-48 -278h-321zM577 599l-65 475l-66 -475h131z" />
<glyph unicode="&#x101;" d="M114 1434h556v-240h-556v240zM547 1024h184v-1024h-184l-35 75q-70 -91 -203 -91q-49 0 -93 18.5t-83.5 57.5t-63 112.5t-23.5 171.5v338q0 98 23.5 171.5t63 112.5t83.5 57.5t93 18.5q132 0 201 -88zM315 547v-68q2 -154 15.5 -203.5t59.5 -49.5q31 0 46 22.5t20.5 75 t4.5 155.5v68q0 102 -7 155.5t-22 75.5t-44 22q-44 0 -58.5 -51t-14.5 -202z" />
<glyph unicode="&#x102;" horiz-adv-x="1024" d="M578 1843h224q-3 -117 -87 -199t-202 -82t-202 82t-87 199h224q3 -24 21.5 -40.5t43.5 -16.5t43.5 16.5t21.5 40.5zM305 1434h412l263 -1434h-321l-47 278h-199l-48 -278h-321zM577 599l-65 475l-66 -475h131z" />
<glyph unicode="&#x103;" d="M457 1434h224q-3 -117 -87 -199t-202 -82t-202 82t-87 199h224q3 -24 21.5 -40.5t43.5 -16.5t43.5 16.5t21.5 40.5zM46 344v338q0 98 23.5 171.5t63 112.5t83.5 57.5t93 18.5q132 0 201 -88l37 70h184v-1024h-184l-35 75q-70 -91 -203 -91q-49 0 -93 18.5t-83.5 57.5 t-63 112.5t-23.5 171.5zM461 479v68q0 102 -7 155.5t-22 75.5t-44 22q-44 0 -58.5 -51t-14.5 -202v-68q2 -154 15.5 -203.5t59.5 -49.5q31 0 46 22.5t20.5 75t4.5 155.5z" />
<glyph unicode="&#x104;" horiz-adv-x="1024" d="M305 1434h412l263 -1434q-22 -33 -31 -48t-18 -40.5t-6 -43.5q5 -33 52 -39l26 -2v-189h-70q-124 10 -176.5 56t-50.5 117q0 17 2.5 33.5t8.5 33.5t10.5 28.5t14.5 29t13.5 23.5t14.5 23t12 18h-123l-47 278h-199l-48 -278h-321zM577 599l-65 475l-66 -475h131z" />
<glyph unicode="&#x105;" d="M46 344v338q0 98 23.5 171.5t63 112.5t83.5 57.5t93 18.5q132 0 201 -88l37 70h183v-1024q-21 -32 -31 -50t-18.5 -43t-3.5 -42q9 -35 66 -38h11v-191h-11q-269 3 -285 150q-8 95 89 214l-35 75q-70 -91 -203 -91q-49 0 -93 18.5t-83.5 57.5t-63 112.5t-23.5 171.5z M461 479v68q0 102 -7 155.5t-22 75.5t-44 22q-44 0 -58.5 -51t-14.5 -202v-68q2 -154 15.5 -203.5t59.5 -49.5q31 0 46 22.5t20.5 75t4.5 155.5z" />
<glyph unicode="&#x106;" horiz-adv-x="921" d="M371 1882h293l-199 -351h-207zM55 479v477q0 110 24.5 197t65 142t96.5 91t114 51t123 15q63 0 120 -14.5t111 -50t93.5 -89.5t64 -140t25.5 -195v-48h-321v40q-2 93 -24 139t-69 46q-50 0 -71.5 -48t-21.5 -147v-452q0 -100 21.5 -149t71.5 -49q47 0 68.5 46.5 t24.5 140.5v40h321v-49q-1 -109 -25 -195t-63.5 -140t-94 -89.5t-111.5 -50t-120 -14.5q-82 0 -153.5 25t-134 79.5t-99 154.5t-36.5 236z" />
<glyph unicode="&#x107;" horiz-adv-x="765" d="M294 1472h292l-198 -351h-207zM46 344v338q0 79 20.5 142.5t54 103t79 66t92 37.5t95.5 11q63 0 119 -18t106.5 -57t80.5 -111t30 -170v-57h-262q-1 96 -18.5 133.5t-54.5 37.5q-44 0 -58.5 -51t-14.5 -202v-68q2 -154 15.5 -203.5t59.5 -49.5q39 0 55.5 37t16.5 134h261 v-56q0 -79 -20.5 -142t-53 -102.5t-77 -65.5t-90.5 -36.5t-95 -10.5t-95.5 11t-92 37.5t-79 66t-54 103t-20.5 142.5z" />
<glyph unicode="&#x10a;" horiz-adv-x="921" d="M329 1844h264v-260h-264v260zM55 479v477q0 110 24.5 197t65 142t96.5 91t114 51t123 15q63 0 120 -14.5t111 -50t93.5 -89.5t64 -140t25.5 -195v-48h-321v40q-2 93 -24 139t-69 46q-50 0 -71.5 -48t-21.5 -147v-452q0 -100 21.5 -149t71.5 -49q47 0 68.5 46.5 t24.5 140.5v40h321v-49q-1 -109 -25 -195t-63.5 -140t-94 -89.5t-111.5 -50t-120 -14.5q-82 0 -153.5 25t-134 79.5t-99 154.5t-36.5 236z" />
<glyph unicode="&#x10b;" horiz-adv-x="765" d="M252 1434h264v-259h-264v259zM46 344v338q0 79 20.5 142.5t54 103t79 66t92 37.5t95.5 11q63 0 119 -18t106.5 -57t80.5 -111t30 -170v-57h-262q-1 96 -18.5 133.5t-54.5 37.5q-44 0 -58.5 -51t-14.5 -202v-68q2 -154 15.5 -203.5t59.5 -49.5q39 0 55.5 37t16.5 134h261 v-56q0 -79 -20.5 -142t-53 -102.5t-77 -65.5t-90.5 -36.5t-95 -10.5t-95.5 11t-92 37.5t-79 66t-54 103t-20.5 142.5z" />
<glyph unicode="&#x10c;" horiz-adv-x="921" d="M562 1856h190l-149 -326h-284l-150 326h191l101 -110zM55 479v477q0 110 24.5 197t65 142t96.5 91t114 51t123 15q63 0 120 -14.5t111 -50t93.5 -89.5t64 -140t25.5 -195v-48h-321v40q-2 93 -24 139t-69 46q-50 0 -71.5 -48t-21.5 -147v-452q0 -100 21.5 -149t71.5 -49 q47 0 68.5 46.5t24.5 140.5v40h321v-49q-1 -109 -25 -195t-63.5 -140t-94 -89.5t-111.5 -50t-120 -14.5q-82 0 -153.5 25t-134 79.5t-99 154.5t-36.5 236z" />
<glyph unicode="&#x10d;" horiz-adv-x="765" d="M485 1446h190l-149 -326h-285l-149 327h190l102 -110zM46 344v338q0 79 20.5 142.5t54 103t79 66t92 37.5t95.5 11q63 0 119 -18t106.5 -57t80.5 -111t30 -170v-57h-262q-1 96 -18.5 133.5t-54.5 37.5q-44 0 -58.5 -51t-14.5 -202v-68q2 -154 15.5 -203.5t59.5 -49.5 q39 0 55.5 37t16.5 134h261v-56q0 -79 -20.5 -142t-53 -102.5t-77 -65.5t-90.5 -36.5t-95 -10.5t-95.5 11t-92 37.5t-79 66t-54 103t-20.5 142.5z" />
<glyph unicode="&#x10e;" horiz-adv-x="933" d="M610 1529h-285l-149 327h190l102 -110l101 110h190zM59 1434h404q65 0 121 -13t112 -47.5t95 -88.5t63.5 -143t24.5 -204v-442q0 -115 -24.5 -204t-63.5 -143t-95 -88.5t-112 -47.5t-121 -13h-404v1434zM558 509v417q0 196 -95 196h-83v-810h83q95 0 95 197z" />
<glyph unicode="&#x10f;" horiz-adv-x="1134" d="M463 986v448h268v-1434h-184l-38 78q-73 -94 -209 -94q-48 0 -91 18.5t-81 58t-60 112t-22 171.5v338q0 99 22 171.5t60 112t81 58t91 18.5q103 0 163 -56zM797 1434h290v-285l-103 -292h-113l49 292h-123v285zM315 547v-68q2 -154 15.5 -203.5t59.5 -49.5q31 0 46 22.5 t20.5 75t4.5 155.5v68q0 102 -7 155.5t-22 75.5t-44 22q-44 0 -58.5 -51t-14.5 -202z" />
<glyph unicode="&#x110;" horiz-adv-x="933" d="M63 1434h405q65 0 121 -13t111.5 -47.5t94.5 -88.5t63.5 -143t24.5 -204v-442q0 -115 -24.5 -204t-63.5 -143t-94.5 -88.5t-111.5 -47.5t-121 -13h-405v576h-59v240h59v618zM562 509v417q0 196 -94 196h-84v-306h88v-240h-88v-264h84q94 0 94 197z" />
<glyph unicode="&#x111;" horiz-adv-x="862" d="M841 1369v-239h-110v-1130h-184l-37 78q-73 -94 -210 -94q-48 0 -91 18.5t-81 58t-60 112t-22 171.5v338q0 99 22 171.5t60 112t81 58t91 18.5q103 0 163 -56v144h-119v239h119v65h268v-65h110zM315 547v-68q2 -154 15.5 -203.5t59.5 -49.5q31 0 46 22.5t20.5 75 t4.5 155.5v68q0 102 -7 155.5t-22 75.5t-44 22q-44 0 -58.5 -51t-14.5 -202z" />
<glyph unicode="&#x112;" horiz-adv-x="708" d="M78 1844h556v-240h-556v240zM59 1434h620v-312h-299v-245h279v-311h-279v-254h299v-312h-620v1434z" />
<glyph unicode="&#x113;" horiz-adv-x="774" d="M109 1434h556v-240h-556v240zM46 344v338q0 79 20.5 142.5t54 103t79 66t92 37.5t95.5 11q63 0 120 -18t108.5 -57.5t82.5 -112.5t31 -172v-262h-413v-32q0 -92 16.5 -126.5t57.5 -35.5q34 0 52 26.5t20 89.5h268q0 -79 -21 -142.5t-55 -103t-79.5 -65.5t-91.5 -36.5 t-96 -10.5q-49 0 -95.5 11t-92 37.5t-79 66t-54 103t-20.5 142.5zM460 617v40q-1 79 -19 110.5t-53 32.5q-38 -1 -55 -32t-18 -113v-38h145z" />
<glyph unicode="&#x116;" horiz-adv-x="708" d="M224 1844h264v-260h-264v260zM59 1434h620v-312h-299v-245h279v-311h-279v-254h299v-312h-620v1434z" />
<glyph unicode="&#x117;" horiz-adv-x="774" d="M255 1175v259h264v-259h-264zM46 344v338q0 79 20.5 142.5t54 103t79 66t92 37.5t95.5 11q63 0 120 -18t108.5 -57.5t82.5 -112.5t31 -172v-262h-413v-32q0 -92 16.5 -126.5t57.5 -35.5q34 0 52 26.5t20 89.5h268q0 -79 -21 -142.5t-55 -103t-79.5 -65.5t-91.5 -36.5 t-96 -10.5q-49 0 -95.5 11t-92 37.5t-79 66t-54 103t-20.5 142.5zM460 617v40q-1 79 -19 110.5t-53 32.5q-38 -1 -55 -32t-18 -113v-38h145z" />
<glyph unicode="&#x118;" horiz-adv-x="708" d="M59 1434h620v-312h-299v-245h279v-311h-279v-254h299v-312h-73q-21 -32 -30 -47.5t-17.5 -39.5t-5.5 -42q5 -37 58 -43h19v-191h-24q-248 5 -272 145q-5 39 9.5 87.5t27 70.5t36.5 60h-348v1434z" />
<glyph unicode="&#x119;" horiz-adv-x="774" d="M46 344v338q0 79 20.5 142.5t54 103t79 66t92 37.5t95.5 11q63 0 120 -18t109 -57.5t83 -112.5t31 -172v-262h-414v-32q0 -92 16 -126.5t57 -34.5q35 0 52.5 26t19.5 89h269q-1 -203 -131 -295l-10 -6q-47 -68 -42 -104q5 -37 58 -43h20v-192h-25q-248 5 -272 145 q-7 61 35 139q-27 0 -44 5q-55 9 -101 32.5t-86 63.5t-63 106t-23 151zM460 618v39q-1 79 -19.5 110.5t-53.5 31.5q-37 0 -54.5 -31t-18.5 -113v-37h146z" />
<glyph unicode="&#x11a;" horiz-adv-x="708" d="M457 1856h190l-149 -326h-285l-149 326h190l102 -110zM59 1434h620v-312h-299v-245h279v-311h-279v-254h299v-312h-620v1434z" />
<glyph unicode="&#x11b;" horiz-adv-x="774" d="M488 1446h190l-149 -326h-284l-150 327h191l101 -110zM46 344v338q0 79 20.5 142.5t54 103t79 66t92 37.5t95.5 11q63 0 120 -18t108.5 -57.5t82.5 -112.5t31 -172v-262h-413v-32q0 -92 16.5 -126.5t57.5 -35.5q34 0 52 26.5t20 89.5h268q0 -79 -21 -142.5t-55 -103 t-79.5 -65.5t-91.5 -36.5t-96 -10.5q-49 0 -95.5 11t-92 37.5t-79 66t-54 103t-20.5 142.5zM460 617v40q-1 79 -19 110.5t-53 32.5q-38 -1 -55.5 -32t-18.5 -113l1 -38h145z" />
<glyph unicode="&#x11e;" horiz-adv-x="931" d="M532 1843h224q-3 -117 -87 -199t-202 -82t-202 82t-87 199h224q3 -24 21.5 -40.5t43.5 -16.5t43.5 16.5t21.5 40.5zM55 479v477q0 110 23.5 197t63 142t93.5 91t111.5 51t122.5 15q63 0 119.5 -14.5t110 -50.5t92 -90.5t62 -141t23.5 -196.5v-22h-312v13q-3 190 -95 190 q-50 0 -71.5 -48t-21.5 -147v-452q0 -100 21.5 -149t71.5 -49q95 0 95 185v43h-98v311h412v-355q0 -110 -23.5 -197t-62.5 -142t-92.5 -91t-110.5 -50.5t-120 -14.5q-65 0 -122.5 14.5t-111.5 51t-93.5 91.5t-63 141.5t-23.5 196.5z" />
<glyph unicode="&#x11f;" horiz-adv-x="784" d="M457 1434h224q-3 -117 -87 -199t-202 -82t-202 82t-87 199h224q3 -24 21.5 -40.5t43.5 -16.5t43.5 16.5t21.5 40.5zM46 360v322q0 99 22 171.5t60 112t81 58t91 18.5q135 0 210 -94l37 77h185v-1018q0 -79 -20.5 -142t-54 -103t-79 -66.5t-92 -37t-95.5 -10.5 q-56 0 -108.5 14.5t-101 46t-82.5 89t-44 135.5h272q14 -42 62 -42q38 0 55.5 28.5t17.5 99.5l1 38q-61 -57 -163 -57q-48 0 -91 18.5t-81 58t-60 112t-22 171.5zM461 482v64q2 150 -12.5 202t-58.5 52q-24 0 -38 -11t-22 -42.5t-11 -76.5t-4 -124v-64q0 -151 14.5 -202.5 t58.5 -51.5q42 0 57.5 52.5t15.5 201.5z" />
<glyph unicode="&#x120;" horiz-adv-x="931" d="M335 1584v260h264v-260h-264zM55 479v477q0 110 23.5 197t63 142t93.5 91t111.5 51t122.5 15q63 0 119.5 -14.5t110 -50.5t92 -90.5t62 -141t23.5 -196.5v-22h-312v13q-3 190 -95 190q-50 0 -71.5 -48t-21.5 -147v-452q0 -100 21.5 -149t71.5 -49q95 0 95 185v43h-98v311 h412v-355q0 -110 -23.5 -197t-62.5 -142t-92.5 -91t-110.5 -50.5t-120 -14.5q-65 0 -122.5 14.5t-111.5 51t-93.5 91.5t-63 141.5t-23.5 196.5z" />
<glyph unicode="&#x121;" horiz-adv-x="784" d="M260 1434h264v-259h-264v259zM46 360v322q0 99 22 171.5t60 112t81 58t91 18.5q134 0 209 -94l38 77h185v-1018q0 -79 -20.5 -142t-54 -103t-79 -66.5t-92 -37t-95.5 -10.5q-56 0 -108.5 14.5t-101 46t-82.5 89t-44 135.5h272q14 -42 62 -42q37 0 54.5 26.5t19.5 94.5v45 q-61 -57 -163 -57q-48 0 -91 18.5t-81 58t-60 112t-22 171.5zM461 482v64q2 150 -12.5 202t-58.5 52q-24 0 -38 -11t-22 -42.5t-11 -76.5t-4 -124v-64q0 -151 14.5 -202.5t58.5 -51.5q42 0 57.5 52.5t15.5 201.5z" />
<glyph unicode="&#x122;" horiz-adv-x="931" d="M55 479v477q0 110 23.5 197t63 142t93.5 91t111.5 51t122.5 15q63 0 119.5 -14.5t110 -50.5t92 -90.5t62 -141t23.5 -196.5v-22h-312v13q-3 190 -95 190q-50 0 -71.5 -48t-21.5 -147v-452q0 -100 21.5 -149t71.5 -49q95 0 95 185v43h-98v311h412v-355q0 -110 -23.5 -197 t-62.5 -142t-92.5 -91t-110.5 -50.5t-120 -14.5q-65 0 -122.5 14.5t-111.5 51t-93.5 91.5t-63 141.5t-23.5 196.5zM322 -63h290v-285l-103 -292h-113l49 292h-123v285z" />
<glyph unicode="&#x123;" horiz-adv-x="780" d="M351 1697h103l-45 -265h112v-259h-263v259zM46 360v322q0 99 22 171.5t60 112t81 58t91 18.5q134 0 209 -94l38 77h185v-1018q0 -79 -20.5 -142t-54 -103t-79 -66.5t-92 -37t-95.5 -10.5q-56 0 -108.5 14.5t-101 46t-82.5 89t-44 135.5h272q14 -42 62 -42q37 0 55 28 t19 97v41q-61 -57 -163 -57q-48 0 -91 18.5t-81 58t-60 112t-22 171.5zM461 482v64q2 150 -12.5 202t-58.5 52q-24 0 -38 -11t-22 -42.5t-11 -76.5t-4 -124v-64q0 -151 14.5 -202.5t58.5 -51.5q42 0 57.5 52.5t15.5 201.5z" />
<glyph unicode="&#x126;" horiz-adv-x="1130" d="M1091 1290v-285h-122v-1005h-321v566h-174v-566h-321v1005h-122v285h122v144h321v-144h174v144h321v-144h122zM648 877v128h-174v-128h174z" />
<glyph unicode="&#x127;" horiz-adv-x="901" d="M438 1107v-125q61 60 163 60q48 0 91 -18.5t80.5 -58t59.5 -112t22 -171.5v-682h-269v547q0 151 -14.5 202t-58.5 51q-39 0 -56 -38t-18 -140v-622h-268v1106h-145v243h145v85h268v-85h146v-242h-146z" />
<glyph unicode="&#x12a;" horiz-adv-x="448" d="M-53 1844h556v-240h-556v240zM59 0v1434h332v-1434h-332z" />
<glyph unicode="&#x12b;" horiz-adv-x="604" d="M24 1434h556v-240h-556v240zM174 0v1024h269v-1024h-269z" />
<glyph unicode="&#x12e;" horiz-adv-x="448" d="M59 1434h332v-1434q-61 -87 -56 -130q7 -37 60 -43h19v-191h-22q-262 5 -275 154q-9 81 71 203q3 5 5 7h-134v1434z" />
<glyph unicode="&#x12f;" horiz-adv-x="417" d="M65 1175v259h264v-259h-264zM333 1024v-1024q-3 -5 -12 -18t-12.5 -18.5t-10 -17t-9.5 -18.5t-7 -16.5t-5 -18t-1 -16.5q3 -44 64 -50h15v-191h-24q-265 5 -274 162q-2 37 14.5 82t28.5 64.5t35 55.5h-70v1024h268z" />
<glyph unicode="&#x130;" horiz-adv-x="448" d="M93 1584v260h264v-260h-264zM59 0v1434h332v-1434h-332z" />
<glyph unicode="&#x131;" horiz-adv-x="397" d="M65 0v1024h269v-1024h-269z" />
<glyph unicode="&#x132;" horiz-adv-x="1097" d="M59 1434h332v-1434h-332v1434zM720 1434h320v-955q0 -109 -24 -195.5t-63 -141.5t-93 -91t-110 -51t-118 -16h-139v311h78q149 2 149 198v941z" />
<glyph unicode="&#x133;" horiz-adv-x="911" d="M56 1411h289v-263h-289v263zM571 1411h289v-263h-289v263zM66 1024h269v-1024h-269v1024zM581 1024h270v-1017q0 -101 -23.5 -173.5t-66 -112t-92.5 -57.5t-111 -18h-107v241h29q63 1 82.5 41.5t18.5 149.5v946z" />
<glyph unicode="&#x136;" horiz-adv-x="1019" d="M682 724l295 -724h-370l-216 570v-570h-332v1434h332v-543l195 544h361zM366 -348v285h289v-285l-103 -292h-113l50 292h-123z" />
<glyph unicode="&#x137;" d="M564 527l180 -527h-277l-143 384v-384h-270v1434h270v-761l131 351h277zM247 -348v285h290v-285l-103 -292h-113l49 292h-123z" />
<glyph unicode="&#x139;" horiz-adv-x="704" d="M263 1882h292l-199 -351h-206zM59 1434h321v-1122h280v-312h-601v1434z" />
<glyph unicode="&#x13a;" horiz-adv-x="509" d="M178 1889h292l-199 -351h-206zM56 0v1434h269v-1434h-269z" />
<glyph unicode="&#x13b;" horiz-adv-x="704" d="M380 312h280v-312h-601v1434h321v-1122zM208 -348v285h289v-285l-103 -292h-113l50 292h-123z" />
<glyph unicode="&#x13c;" horiz-adv-x="370" d="M325 1434v-1434h-269v1434h269zM42 -63h290v-285l-103 -292h-113l49 292h-123v285z" />
<glyph unicode="&#x13d;" horiz-adv-x="940" d="M650 857l49 292h-123v285h290v-285l-103 -292h-113zM380 312h280v-312h-601v1434h321v-1122z" />
<glyph unicode="&#x13e;" horiz-adv-x="722" d="M56 0v1434h269v-1434h-269zM398 1434h290v-285l-103 -292h-113l49 292h-123v285z" />
<glyph unicode="&#x13f;" horiz-adv-x="897" d="M380 312h280v-312h-601v1434h321v-1122zM546 618v268h273v-268h-273z" />
<glyph unicode="&#x140;" horiz-adv-x="741" d="M56 0v1434h269v-1434h-269zM408 610v285h290v-285h-290z" />
<glyph unicode="&#x141;" horiz-adv-x="858" d="M490 312h325v-312h-646v587l-147 -49v313l147 49v534h321v-459l148 49v-313l-148 -50v-349z" />
<glyph unicode="&#x142;" horiz-adv-x="692" d="M656 1025v-314l-173 -55v-656h-269v593l-172 -54v313l171 54v528h270v-464z" />
<glyph unicode="&#x143;" horiz-adv-x="1015" d="M419 1882h293l-199 -351h-207zM652 1434h310v-1434h-316l-281 694v-694h-311v1434h316l282 -694v694z" />
<glyph unicode="&#x144;" horiz-adv-x="784" d="M303 1472h293l-199 -351h-207zM237 1024l41 -77q74 95 206 95q48 0 91 -18.5t81 -58t60 -112t22 -171.5v-682h-269v547q0 151 -14.5 202t-58.5 51q-40 0 -57 -38.5t-18 -139.5v-622h-268v1024h184z" />
<glyph unicode="&#x145;" horiz-adv-x="1015" d="M652 1434h310v-1434h-316l-281 694v-694h-311v1434h316l282 -694v694zM364 -348v285h290v-285l-103 -292h-113l49 292h-123z" />
<glyph unicode="&#x146;" horiz-adv-x="784" d="M237 1024l41 -77q74 95 206 95q48 0 91 -18.5t81 -58t60 -112t22 -171.5v-682h-269v547q0 151 -14.5 202t-58.5 51q-40 0 -57 -38.5t-18 -139.5v-622h-268v1024h184zM248 -348v285h290v-285l-103 -292h-113l49 292h-123z" />
<glyph unicode="&#x147;" horiz-adv-x="1015" d="M610 1856h191l-150 -326h-284l-150 326h191l101 -110zM652 1434h310v-1434h-316l-281 694v-694h-311v1434h316l282 -694v694z" />
<glyph unicode="&#x148;" horiz-adv-x="784" d="M494 1446h191l-150 -326h-284l-150 327h191l101 -110zM237 1024l41 -77q74 95 206 95q48 0 91 -18.5t80.5 -58t59.5 -112t22 -171.5v-682h-268v547q0 151 -14.5 202t-58.5 51q-40 0 -57 -38.5t-18 -139.5v-622h-268v1024h184z" />
<glyph unicode="&#x14a;" horiz-adv-x="1228" d="M803 1434h321v-1352q0 -120 -27.5 -206.5t-78 -135t-112.5 -71t-140 -22.5h-114v307h54q46 0 67 16.5t26 59.5l-261 729v-759h-322v1434h316l271 -759v759z" />
<glyph unicode="&#x14b;" horiz-adv-x="806" d="M246 1024l41 -77q74 95 206 95q48 0 91 -18.5t80.5 -58t60 -112t22.5 -171.5v-675q0 -101 -24 -174t-67 -112t-93 -57t-112 -18h-104v241h28q58 1 79 33t23 117v559q1 118 -15.5 161t-57.5 43q-39 0 -56 -38t-18 -140v-622h-268v1024h184z" />
<glyph unicode="&#x14c;" horiz-adv-x="952" d="M199 1844h556v-240h-556v240zM52 479v477q0 110 24.5 197t65 142t96.5 91t114 51t123 15q64 0 122 -14.5t114 -50.5t97 -91t66 -142.5t25 -197.5v-477q0 -110 -25 -197t-66 -142t-97 -91t-114 -50.5t-122 -14.5q-82 0 -153.5 25t-134 79.5t-99 154.5t-36.5 236zM570 493 v452q0 195 -95 195q-50 0 -71.5 -48t-21.5 -147v-452q0 -100 21.5 -149t71.5 -49q95 0 95 198z" />
<glyph unicode="&#x14d;" horiz-adv-x="776" d="M111 1434h556v-240h-556v240zM46 344v338q0 79 20.5 142.5t54 103t79 66t92 37.5t95.5 11q63 0 120 -18t109 -57.5t83 -112.5t31 -172v-338q0 -99 -31 -172t-83 -112.5t-109 -57.5t-120 -18q-49 0 -95.5 11t-92 37.5t-79 66t-54 103t-20.5 142.5zM461 479v68 q0 149 -15.5 201t-57.5 52q-44 0 -58.5 -51t-14.5 -202v-68q2 -154 15.5 -203.5t59.5 -49.5q44 0 58.5 51.5t12.5 201.5z" />
<glyph unicode="&#x150;" horiz-adv-x="952" d="M235 1882h269l-199 -351h-183zM563 1882h269l-199 -351h-183zM52 479v477q0 110 24.5 197t65 142t96.5 91t114 51t123 15q64 0 122 -14.5t114 -50.5t97 -91t66 -142.5t25 -197.5v-477q0 -110 -25 -197t-66 -142t-97 -91t-114 -50.5t-122 -14.5q-82 0 -153.5 25t-134 79.5 t-99 154.5t-36.5 236zM570 493v452q0 195 -95 195q-50 0 -71.5 -48t-21.5 -147v-452q0 -100 21.5 -149t71.5 -49q95 0 95 198z" />
<glyph unicode="&#x151;" horiz-adv-x="866" d="M212 1472h269l-199 -351h-183zM540 1472h269l-199 -351h-183zM46 344v338q0 79 20.5 142.5t54 103t79 66t92 37.5t95.5 11q63 0 120 -18t109 -57.5t83 -112.5t31 -172v-338q0 -99 -31 -172t-83 -112.5t-109 -57.5t-120 -18q-49 0 -95.5 11t-92 37.5t-79 66t-54 103 t-20.5 142.5zM461 479v68q0 149 -15.5 201t-57.5 52q-44 0 -58.5 -51t-14.5 -202v-68q2 -154 15.5 -203.5t59.5 -49.5q44 0 58.5 51.5t12.5 201.5z" />
<glyph unicode="&#x152;" horiz-adv-x="1335" d="M46 479v477q0 110 24.5 197t65 142t96.5 91t114 51t123 15q120 0 197 -61v43h621v-312h-300v-245h280v-312h-280v-253h300v-312h-621v45q-77 -61 -197 -61q-82 0 -153.5 25t-134 79.5t-99 154.5t-36.5 236zM564 493v452q0 195 -95 195q-50 0 -71.5 -48t-21.5 -147v-452 q0 -100 21.5 -149t71.5 -49q95 0 95 198z" />
<glyph unicode="&#x153;" horiz-adv-x="1277" d="M74 344v338q0 98 23.5 171t63 112.5t83 58t92.5 18.5q158 0 228 -122q46 63 117 92.5t149 29.5q63 0 120 -18t109 -57.5t83 -112.5t31 -172v-262h-414v-37q0 -89 16.5 -122.5t57.5 -34.5q34 0 52 26.5t20 89.5h268q0 -79 -21 -142.5t-55 -103t-79.5 -65.5t-91.5 -36.5 t-96 -10.5q-78 0 -149.5 29.5t-117.5 92.5q-70 -122 -227 -122q-49 0 -92.5 18.5t-83 58t-63 112.5t-23.5 171zM488 479v68q0 149 -15.5 201t-57.5 52q-44 0 -58 -50.5t-14 -202.5v-68q2 -155 15 -204t59 -49q44 0 58.5 51.5t12.5 201.5zM901 662v42q-3 53 -21 74t-49 22 q-33 -1 -50.5 -22t-21.5 -74v-42h142z" />
<glyph unicode="&#x154;" horiz-adv-x="944" d="M383 1882h292l-198 -351h-207zM59 1433h337q71 0 135.5 -11.5t127 -40.5t108 -74t73.5 -117t28 -163v-96q0 -188 -134 -291l166 -640h-338l-130 473l-52 19v-492h-321v1433zM556 972v14q0 71 -31.5 104t-78.5 33h-66v-288h66q46 0 78 33t32 104z" />
<glyph unicode="&#x155;" horiz-adv-x="579" d="M200 1472h293l-199 -351h-207zM237 1024l51 -104q100 122 253 122v-242q-112 0 -165.5 -55t-54.5 -191v-554h-268v1024h184z" />
<glyph unicode="&#x156;" horiz-adv-x="944" d="M59 1433h337q71 0 135.5 -11.5t127 -40.5t108 -74t73.5 -117t28 -163v-96q0 -188 -134 -291l166 -640h-338l-130 473l-52 19v-492h-321v1433zM556 972v14q0 71 -31 104t-78 33h-67v-288h67q46 0 77.5 33t31.5 104zM328 -63h290v-285l-103 -292h-114l50 292h-123v285z" />
<glyph unicode="&#x157;" horiz-adv-x="579" d="M237 1024l51 -104q100 122 253 122v-242q-112 0 -165.5 -55t-54.5 -191v-554h-268v1024h184zM152 -348v285h289v-285l-102 -292h-114l50 292h-123z" />
<glyph unicode="&#x158;" horiz-adv-x="944" d="M574 1856h190l-149 -326h-285l-149 326h190l102 -110zM59 1433h337q71 0 135.5 -11.5t127 -40.5t108 -74t73.5 -116.5t28 -163.5v-96q0 -188 -134 -291l166 -640h-338l-130 473l-52 19v-492h-321v1433zM556 972v14q0 71 -31.5 104t-78.5 33h-66v-288h66q46 0 78 33 t32 104z" />
<glyph unicode="&#x159;" horiz-adv-x="579" d="M391 1446h191l-150 -326h-284l-150 327h191l101 -110zM237 1024l51 -104q100 122 253 122v-242q-112 0 -165.5 -55t-54.5 -191v-554h-268v1024h184z" />
<glyph unicode="&#x15a;" horiz-adv-x="923" d="M372 1882h292l-198 -351h-207zM35 457h311q2 -162 112 -162t110 134q0 75 -39 102.5t-156 47.5q-42 7 -81 20.5t-83 44t-76 72.5t-53.5 110t-21.5 153q0 104 23.5 187t62 135.5t92.5 87t110.5 49t120.5 14.5q62 0 117 -13.5t108 -48t90.5 -87.5t60.5 -137t23 -192h-308 q0 166 -91 166q-46 0 -67 -39t-21 -101q0 -28 9 -48t20 -31.5t35 -20t41.5 -12.5t51.5 -9q98 -15 169.5 -57t110 -101t56 -123t17.5 -136q0 -106 -23.5 -189.5t-63 -137t-96 -88t-117 -49t-131.5 -14.5q-67 0 -125.5 14t-113.5 48.5t-94.5 87.5t-64 135.5t-25.5 187.5z" />
<glyph unicode="&#x15b;" horiz-adv-x="739" d="M281 1472h292l-198 -351h-207zM300 328v-29q1 -36 20.5 -54t49.5 -18q33 0 52 17.5t19 52.5q0 68 -34.5 94t-114.5 38q-108 13 -180 89t-72 202q0 161 90.5 241.5t236.5 80.5q141 0 235 -82.5t95 -225.5v-19h-268v14q-1 36 -18.5 53.5t-42.5 17.5q-27 0 -44 -15.5 t-17 -47.5q2 -68 78 -83q96 -17 162.5 -51t100.5 -81.5t48 -97.5t14 -112q0 -164 -92.5 -246t-247.5 -82q-137 0 -237.5 82.5t-101.5 226.5v35h269z" />
<glyph unicode="&#x15e;" horiz-adv-x="923" d="M35 457h311q2 -162 112 -162t110 134q0 75 -39 102.5t-156 47.5q-42 7 -81 20.5t-83 44t-76 72.5t-53.5 110t-21.5 153q0 104 23.5 187t62 135.5t92.5 87t110.5 49t120.5 14.5q62 0 117 -13.5t108 -48t90.5 -87.5t60.5 -137t23 -192h-308q0 166 -91 166q-46 0 -67 -39 t-21 -101q0 -28 9 -48t20 -31.5t35 -20t41.5 -12.5t51.5 -9q79 -12 141 -42.5t101.5 -70.5t65 -91.5t35.5 -103t10 -108.5q0 -368 -267 -455v-57q-4 -169 -66 -240t-226 -75h-29v191l27 2q44 4 60 32t18 89v38q-28 2 -41 4q-145 25 -236 137t-94 328z" />
<glyph unicode="&#x15f;" horiz-adv-x="739" d="M300 328v-29q1 -36 20.5 -54t49.5 -18q33 0 52 17.5t19 52.5q0 68 -34.5 94t-114.5 38q-108 13 -180 89t-72 202q0 161 90.5 241.5t236.5 80.5q140 0 234.5 -82.5t95.5 -224.5v-20h-268v14q-1 36 -19 53.5t-42 17.5q-27 0 -44 -15.5t-17 -47.5q2 -68 78 -83 q96 -17 162.5 -51t100.5 -81.5t48 -97.5t14 -112q0 -228 -179 -300v-52q-2 -176 -64 -248t-230 -76h-27v191h22q47 4 64 32.5t19 90.5v42q-27 2 -48 7q-102 27 -168.5 102.5t-67.5 191.5v35h269z" />
<glyph unicode="&#x160;" horiz-adv-x="923" d="M563 1856h190l-149 -326h-285l-149 326h190l102 -110zM35 457h311q2 -162 112 -162t110 134q0 75 -39 102.5t-156 47.5q-42 7 -81 20.5t-83 44t-76 72.5t-53.5 110t-21.5 153q0 104 23.5 187t62 135.5t92.5 87t110.5 49t120.5 14.5q62 0 117 -13.5t108 -48t90.5 -87.5 t60.5 -137t23 -192h-308q0 166 -91 166q-46 0 -67 -39t-21 -101q0 -28 9 -48t20 -31.5t35 -20t41.5 -12.5t51.5 -9q79 -12 141 -42.5t101.5 -70.5t65 -91.5t35.5 -103t10 -108.5q0 -106 -23.5 -189.5t-63 -137t-95.5 -88.5t-117 -49.5t-132 -14.5q-67 0 -125.5 14 t-113.5 48.5t-94.5 87.5t-64 135.5t-25.5 187.5z" />
<glyph unicode="&#x161;" horiz-adv-x="739" d="M472 1446h190l-149 -326h-285l-149 327h190l102 -110zM300 328v-29q1 -36 20.5 -54t49.5 -18q33 0 52 17.5t19 52.5q0 68 -34.5 94t-114.5 38q-108 13 -180 89t-72 202q0 161 90.5 241.5t236.5 80.5q141 0 235 -82.5t95 -225.5v-19h-268v14q-1 36 -18.5 53.5t-42.5 17.5 q-27 0 -44 -15.5t-17 -47.5q2 -68 78 -83q96 -17 162.5 -51t100.5 -81.5t48 -97.5t14 -112q0 -164 -92.5 -246t-247.5 -82q-137 0 -237.5 82.5t-101.5 226.5v35h269z" />
<glyph unicode="&#x162;" horiz-adv-x="843" d="M44 1434h756v-312h-217v-1143q0 -95 -13 -156t-46.5 -104t-90.5 -62t-146 -21h-25v191h20q50 3 66.5 33.5t18.5 101.5v38h-105v1122h-218v312z" />
<glyph unicode="&#x163;" horiz-adv-x="587" d="M143 1337h269v-313h130v-242h-130v-366q0 -112 19 -152t82 -41h29v-241h-13q-30 0 -59 1l-1 -39q-10 -139 -74.5 -199t-217.5 -64h-26v192h23q47 5 63 35t18 98v32q-112 84 -112 307v437h-98v242h98v313z" />
<glyph unicode="&#x164;" horiz-adv-x="843" d="M523 1856h191l-150 -326h-284l-150 326h191l101 -110zM800 1434v-312h-218v-1122h-320v1122h-218v312h756z" />
<glyph unicode="&#x165;" horiz-adv-x="874" d="M552 1463h263v-259l-94 -265h-102l45 265h-112v259zM143 1337h269v-313h130v-242h-130v-366q0 -113 18.5 -152.5t81.5 -40.5h30v-241h-105q-49 0 -90 10t-79.5 36t-65.5 66t-43 104t-16 147v437h-98v242h98v313z" />
<glyph unicode="&#x166;" horiz-adv-x="843" d="M44 1434h756v-312h-217v-246h132v-240h-132v-636h-321v636h-131v240h131v246h-218v312z" />
<glyph unicode="&#x167;" horiz-adv-x="587" d="M542 782h-130v-114h132v-239h-132v-61q3 -83 23.5 -114t76.5 -31h30v-241h-105q-62 0 -112 17.5t-92.5 56.5t-66.5 112.5t-24 176.5v84h-97v239h98v114h-98v242h98v313h269v-313h130v-242z" />
<glyph unicode="&#x16a;" horiz-adv-x="940" d="M194 1844h555v-240h-555v240zM380 475v959h-321v-972q0 -110 23.5 -194.5t62.5 -137.5t93.5 -86.5t111.5 -46.5t122 -13q64 0 120.5 13t112 46.5t94.5 86t63.5 137.5t24.5 195v972h-321v-959q0 -96 -22.5 -138t-71.5 -42q-51 0 -71.5 41t-20.5 139z" />
<glyph unicode="&#x16b;" horiz-adv-x="780" d="M113 1434h556v-240h-556v240zM464 1024h269v-1024h-185l-41 77q-74 -95 -206 -95q-48 0 -91 18.5t-80.5 58t-59.5 112t-22 171.5v682h269v-546q0 -152 14.5 -203t58.5 -51q39 0 56 38t18 140v622z" />
<glyph unicode="&#x16e;" horiz-adv-x="940" d="M471 1970q98 0 167.5 -69.5t69.5 -166.5q0 -98 -69.5 -167.5t-167.5 -69.5t-167 69.5t-69 167.5t69 167t167 69zM471 1784q-21 0 -35.5 -14.5t-14.5 -35.5t14.5 -36.5t35.5 -15.5t36 15.5t15 36.5t-15 35.5t-36 14.5zM380 475v959h-321v-972q0 -110 23.5 -194.5 t62.5 -137.5t93.5 -86.5t111.5 -46.5t122 -13q64 0 120.5 13t112 46.5t94.5 86t63.5 137.5t24.5 195v972h-321v-959q0 -96 -22.5 -138t-71.5 -42q-51 0 -71.5 41t-20.5 139z" />
<glyph unicode="&#x16f;" horiz-adv-x="780" d="M391 1560q97 0 166.5 -69t69.5 -167t-69 -167t-167 -69t-167 69t-69 167t69 167t167 69zM391 1375q-21 0 -36 -15t-15 -36t15 -36t36 -15t36 15t15 36t-15 36t-36 15zM464 1024h268v-1024h-184l-41 77q-74 -95 -206 -95q-48 0 -91 18.5t-80.5 58t-59.5 112t-22 171.5v682 h269v-546q0 -152 14.5 -203t58.5 -51q39 0 56 38t18 140v622z" />
<glyph unicode="&#x170;" horiz-adv-x="940" d="M230 1882h269l-199 -351h-183zM558 1882h268l-198 -351h-183zM380 475v959h-321v-972q0 -110 23.5 -194.5t62.5 -137.5t93.5 -86.5t111.5 -46.5t122 -13q64 0 120.5 13t112 46.5t94.5 86t63.5 137.5t24.5 195v972h-321v-959q0 -96 -22.5 -138t-71.5 -42q-51 0 -71.5 41 t-20.5 139z" />
<glyph unicode="&#x171;" horiz-adv-x="780" d="M174 1472h268l-198 -351h-183zM501 1472h269l-199 -351h-183zM464 1024h269v-1024h-185l-41 77q-74 -95 -206 -95q-48 0 -91 18.5t-80.5 58t-59.5 112t-22 171.5v682h269v-546q0 -152 14.5 -203t58.5 -51q39 0 56 38t18 140v622z" />
<glyph unicode="&#x172;" horiz-adv-x="940" d="M566 1434h321v-972q0 -235 -115 -353l-67 -111q-46 -67 -52 -101q-3 -15 0 -27q6 -37 59 -43h18v-191h-22q-269 5 -276 162q-4 78 66 186h-26q-65 0 -122 13t-111.5 46.5t-93.5 86.5t-62.5 137.5t-23.5 194.5v972h321v-959q0 -98 20.5 -139t71.5 -41q49 0 71.5 42 t22.5 138v959z" />
<glyph unicode="&#x173;" horiz-adv-x="780" d="M464 1024h268v-1024q-21 -31 -29.5 -44.5t-18 -37t-8.5 -41.5q0 -44 59 -50h19v-191h-30q-248 7 -265 148q-9 90 89 216l-41 77q-75 -95 -206 -95q-48 0 -91 18.5t-80.5 58t-59.5 112t-22 171.5v682h269v-546q0 -152 14.5 -203t58.5 -51q39 0 56 38t18 140v622z" />
<glyph unicode="&#x174;" horiz-adv-x="1550" d="M634 1856h284l150 -326h-191l-101 109l-101 -110h-191zM1182 1434h324l-247 -1434h-380l-105 642l-105 -642h-380l-245 1434h324l133 -906l125 906h298l125 -906z" />
<glyph unicode="&#x175;" horiz-adv-x="1243" d="M479 1447h285l149 -327h-190l-101 110l-101 -110h-191zM936 1024h269l-179 -1024h-329l-75 496l-74 -496h-328l-180 1024h269l96 -670l105 670h225l105 -670z" />
<glyph unicode="&#x176;" horiz-adv-x="1071" d="M394 1856h284l150 -326h-191l-101 109l-101 -110h-191zM695 1434h333l-326 -891v-543h-333v542l-325 892h333l159 -523z" />
<glyph unicode="&#x177;" horiz-adv-x="763" d="M240 1447h285l149 -327h-190l-101 110l-102 -110h-190zM456 1025h268v-1022q0 -78 -21 -140.5t-54 -102t-78 -65.5t-91 -36.5t-95 -10.5q-56 0 -108.5 14.5t-101.5 46t-83 89t-44 135.5h272q14 -42 62 -42q38 0 55.5 28.5t17.5 99.5l1 38q-61 -57 -163 -57 q-48 0 -91 18.5t-80.5 58t-59.5 112t-22 171.5v664h269v-528q0 -152 14 -203t58 -51q42 0 58 52t17 202v529z" />
<glyph unicode="&#x178;" horiz-adv-x="1071" d="M231 1584v259h264v-259h-264zM577 1584v259h264v-259h-264zM695 1434h333l-326 -891v-543h-333v542l-325 892h333l159 -523z" />
<glyph unicode="&#x179;" horiz-adv-x="894" d="M357 1882h293l-199 -351h-207zM51 1434h800v-265l-469 -857h477v-312h-824v258l473 864h-457v312z" />
<glyph unicode="&#x17a;" horiz-adv-x="702" d="M262 1472h292l-198 -351h-207zM64 1024h590v-198l-319 -584h329v-242h-624v196l324 586h-300v242z" />
<glyph unicode="&#x17b;" horiz-adv-x="894" d="M315 1844h264v-260h-264v260zM51 1434h800v-265l-469 -857h477v-312h-824v258l473 864h-457v312z" />
<glyph unicode="&#x17c;" horiz-adv-x="702" d="M220 1434h264v-259h-264v259zM64 1024h590v-198l-319 -584h329v-242h-624v196l324 586h-300v242z" />
<glyph unicode="&#x17d;" horiz-adv-x="894" d="M548 1856h191l-150 -326h-284l-150 326h191l101 -110zM51 1434h800v-265l-469 -857h477v-312h-824v258l473 864h-457v312z" />
<glyph unicode="&#x17e;" horiz-adv-x="702" d="M453 1446h190l-149 -326h-285l-149 327h190l102 -110zM64 1024h590v-198l-319 -584h329v-242h-624v196l324 586h-300v242z" />
<glyph unicode="&#x192;" horiz-adv-x="684" d="M588 1436h66v-243h-33q-58 -1 -82.5 -29t-39.5 -112l-6 -28h154v-242h-195l-133 -782h-272l133 782h-149v242h190l17 101q14 81 39.5 138.5t55.5 90.5t73.5 52t84 24.5t97.5 5.5z" />
<glyph unicode="&#x1cd;" horiz-adv-x="1024" d="M614 1856h191l-150 -326h-284l-150 326h191l101 -110zM305 1434h412l263 -1434h-321l-47 278h-199l-48 -278h-321zM576 599l-64 475l-66 -475h130z" />
<glyph unicode="&#x1ce;" d="M493 1446h191l-150 -326h-284l-150 327h191l101 -110zM547 1024h184v-1024h-184l-35 75q-70 -91 -203 -91q-49 0 -93 18.5t-83.5 57.5t-63 112.5t-23.5 171.5v338q0 98 23.5 171.5t63 112.5t83.5 57.5t93 18.5q132 0 201 -88zM315 547v-68q2 -154 15.5 -203.5t59.5 -49.5 q31 0 46 22.5t20.5 75t4.5 155.5v68q0 102 -7 155.5t-22 75.5t-44 22q-44 0 -58.5 -51t-14.5 -202z" />
<glyph unicode="&#x1cf;" horiz-adv-x="448" d="M326 1856h190l-149 -326h-285l-149 326h190l102 -110zM59 0v1434h332v-1434h-332z" />
<glyph unicode="&#x1d0;" horiz-adv-x="641" d="M422 1446h191l-150 -326h-284l-149 327h190l101 -110zM190 0v1024h269v-1024h-269z" />
<glyph unicode="&#x1d1;" horiz-adv-x="952" d="M578 1856h191l-150 -326h-284l-150 326h191l101 -110zM52 479v477q0 110 24.5 197t65 142t96.5 91t114 51t123 15q64 0 122 -14.5t114 -50.5t97 -91t66 -142.5t25 -197.5v-477q0 -110 -25 -197t-66 -142t-97 -91t-114 -50.5t-122 -14.5q-82 0 -153.5 25t-134 79.5 t-99 154.5t-36.5 236zM570 493v452q0 195 -95 195q-50 0 -71.5 -48t-21.5 -147v-452q0 -100 21.5 -149t71.5 -49q95 0 95 198z" />
<glyph unicode="&#x1d2;" horiz-adv-x="776" d="M490 1446h191l-150 -326h-284l-150 327h191l101 -110zM46 344v338q0 79 20.5 142.5t54 103t79 66t92 37.5t95.5 11q63 0 120 -18t109 -57.5t83 -112.5t31 -172v-338q0 -99 -31 -172t-83 -112.5t-109 -57.5t-120 -18q-49 0 -95.5 11t-92 37.5t-79 66t-54 103t-20.5 142.5z M461 479v68q0 149 -15.5 201t-57.5 52q-44 0 -58.5 -51t-14.5 -202v-68q2 -154 15.5 -203.5t59.5 -49.5q44 0 58.5 51.5t12.5 201.5z" />
<glyph unicode="&#x1d3;" horiz-adv-x="940" d="M573 1856h190l-149 -326h-285l-149 326h190l102 -110zM380 475v959h-321v-972q0 -110 23.5 -194.5t62.5 -137.5t93.5 -86.5t111.5 -46.5t122 -13q64 0 120.5 13t112 46.5t94.5 86t63.5 137.5t24.5 195v972h-321v-959q0 -96 -22.5 -138t-71.5 -42q-51 0 -71.5 41 t-20.5 139z" />
<glyph unicode="&#x1d4;" horiz-adv-x="780" d="M492 1446h190l-149 -326h-285l-149 327h190l102 -110zM464 1024h268v-1024h-184l-41 77q-74 -95 -206 -95q-48 0 -91 18.5t-80.5 58t-59.5 112t-22 171.5v682h269v-546q0 -152 14.5 -203t58.5 -51q39 0 56 38t18 140v622z" />
<glyph unicode="&#x1d5;" horiz-adv-x="940" d="M194 2122h555v-240h-555v240zM167 1539v259h264v-259h-264zM512 1539v259h264v-259h-264zM380 475v959h-321v-972q0 -110 23.5 -194.5t62.5 -137.5t93.5 -86.5t111.5 -46.5t122 -13q64 0 120.5 13t112 46.5t94.5 86t63.5 137.5t24.5 195v972h-321v-959q0 -96 -22.5 -138 t-71.5 -42q-51 0 -71.5 41t-20.5 139z" />
<glyph unicode="&#x1d6;" horiz-adv-x="780" d="M113 1710h556v-240h-556v240zM86 1134v260h264v-260h-264zM431 1134v260h265v-260h-265zM464 1024h269v-1024h-185l-41 77q-74 -95 -206 -95q-48 0 -91 18.5t-80.5 58t-59.5 112t-22 171.5v682h269v-546q0 -152 14.5 -203t58.5 -51q39 0 56 38t18 140v622z" />
<glyph unicode="&#x1d7;" horiz-adv-x="940" d="M392 2209h293l-199 -351h-207zM167 1798h264v-259h-264v259zM512 1798h264v-259h-264v259zM566 1434h321v-972q0 -110 -24.5 -195t-63.5 -137.5t-94.5 -86t-112 -46.5t-120.5 -13q-65 0 -122 13t-111.5 46.5t-93.5 86.5t-62.5 137.5t-23.5 194.5v972h321v-959 q0 -98 20.5 -139t71.5 -41q49 0 71.5 42t22.5 138v959z" />
<glyph unicode="&#x1d8;" horiz-adv-x="780" d="M301 1792h292l-198 -351h-207zM86 1134v260h264v-260h-264zM431 1134v260h265v-260h-265zM464 1024h268v-1024h-184l-41 77q-74 -95 -206 -95q-48 0 -91 18.5t-80.5 58t-59.5 112t-22 171.5v682h269v-546q0 -152 14.5 -203t58.5 -51q39 0 56 38t18 140v622z" />
<glyph unicode="&#x1d9;" horiz-adv-x="940" d="M573 2177h190l-149 -325h-285l-149 326h190l102 -110zM167 1539v259h264v-259h-264zM512 1539v259h264v-259h-264zM380 475v959h-321v-972q0 -110 23.5 -194.5t62.5 -137.5t93.5 -86.5t111.5 -46.5t122 -13q64 0 120.5 13t112 46.5t94.5 86t63.5 137.5t24.5 195v972h-321 v-959q0 -96 -22.5 -138t-71.5 -42q-51 0 -71.5 41t-20.5 139z" />
<glyph unicode="&#x1da;" horiz-adv-x="780" d="M492 1763h190l-149 -326h-285l-149 327h190l102 -110zM86 1134v260h264v-260h-264zM431 1134v260h265v-260h-265zM464 1024h268v-1024h-184l-41 77q-74 -95 -206 -95q-48 0 -91 18.5t-80.5 58t-59.5 112t-22 171.5v682h269v-546q0 -152 14.5 -203t58.5 -51q39 0 56 38 t18 140v622z" />
<glyph unicode="&#x1db;" horiz-adv-x="940" d="M269 2207h292l113 -351h-207zM167 1539v259h264v-259h-264zM512 1539v259h264v-259h-264zM380 475v959h-321v-972q0 -110 23.5 -194.5t62.5 -137.5t93.5 -86.5t111.5 -46.5t122 -13q64 0 120.5 13t112 46.5t94.5 86t63.5 137.5t24.5 195v972h-321v-959q0 -96 -22.5 -138 t-71.5 -42q-51 0 -71.5 41t-20.5 139z" />
<glyph unicode="&#x1dc;" horiz-adv-x="780" d="M188 1792h292l113 -351h-207zM86 1134v260h264v-260h-264zM431 1134v260h265v-260h-265zM464 1024h268v-1024h-184l-41 77q-74 -95 -206 -95q-48 0 -91 18.5t-80.5 58t-59.5 112t-22 171.5v682h269v-546q0 -152 14.5 -203t58.5 -51q39 0 56 38t18 140v622z" />
<glyph unicode="&#x218;" horiz-adv-x="923" d="M866 974h-308q0 166 -91 166q-46 0 -67 -39t-21 -101q0 -28 9 -48t20 -31.5t35 -20t41.5 -12.5t51.5 -9q79 -12 141 -42.5t101.5 -70.5t65 -91.5t35.5 -103t10 -108.5q0 -106 -23.5 -189.5t-63 -137t-95.5 -88.5t-117 -49.5t-132 -14.5q-67 0 -125.5 14t-113.5 48.5 t-94.5 87.5t-64 135.5t-25.5 187.5h311q2 -162 112 -162t110 134q0 75 -39 102.5t-156 47.5q-42 7 -81 20.5t-83 44t-76 72.5t-53.5 110t-21.5 153q0 104 23.5 187t62 135.5t92.5 87t110.5 49t120.5 14.5q62 0 117 -13.5t108 -48t90.5 -87.5t60.5 -137t23 -192zM317 -348 v285h289v-285l-103 -292h-113l50 292h-123z" />
<glyph unicode="&#x219;" horiz-adv-x="739" d="M300 328v-29q1 -36 20.5 -54t49.5 -18q33 0 52 17.5t19 52.5q0 68 -34.5 94t-114.5 38q-108 13 -180 89t-72 202q0 161 90.5 241.5t236.5 80.5q141 0 235 -82.5t95 -225.5v-19h-268v14q-1 36 -18.5 53.5t-42.5 17.5q-27 0 -44 -15.5t-17 -47.5q2 -68 78 -83 q96 -17 162.5 -51t100.5 -81.5t48 -97.5t14 -112q0 -164 -92.5 -246t-247.5 -82q-137 0 -237.5 82.5t-101.5 226.5v35h269zM226 -63h289v-285l-103 -292h-113l50 292h-123v285z" />
<glyph unicode="&#x21a;" horiz-adv-x="843" d="M44 1434h756v-312h-217v-1122h-321v1122h-218v312zM277 -63h290v-285l-103 -292h-113l49 292h-123v285z" />
<glyph unicode="&#x21b;" horiz-adv-x="587" d="M412 782v-366q0 -112 19 -152t82 -41h29v-241h-104q-62 0 -112 17.5t-92.5 56.5t-66.5 112.5t-24 176.5v437h-98v242h98v313h269v-313h130v-242h-130zM222 -63h290v-285l-103 -292h-113l49 292h-123v285z" />
<glyph unicode="&#x2c6;" horiz-adv-x="892" d="M305 1447h284l150 -327h-191l-100 110l-102 -110h-190z" />
<glyph unicode="&#x2c7;" horiz-adv-x="892" d="M548 1446h191l-150 -326h-284l-149 327h190l101 -110z" />
<glyph unicode="&#x2d8;" horiz-adv-x="833" d="M352 1434h-224q3 -117 87 -199t202 -82t202 82t87 199h-224q-3 -24 -21.5 -40.5t-43.5 -16.5t-43.5 16.5t-21.5 40.5z" />
<glyph unicode="&#x2d9;" horiz-adv-x="493" d="M115 1175v259h264v-259h-264z" />
<glyph unicode="&#x2da;" horiz-adv-x="765" d="M382 1560q98 0 167.5 -69.5t69.5 -166.5q0 -98 -69.5 -167t-167.5 -69t-167 69t-69 167t69 167t167 69zM382 1375q-21 0 -35.5 -15t-14.5 -36t14.5 -36t35.5 -15t36 15t15 36t-15 36t-36 15z" />
<glyph unicode="&#x2db;" horiz-adv-x="501" d="M179 0h199q-20 -30 -30.5 -47t-18.5 -41t-5 -42q5 -37 58 -43h18v-191h-23q-249 5 -273 145q-4 29 0.5 58.5t19.5 62t22.5 46t26.5 42.5q4 7 6 10z" />
<glyph unicode="&#x2dc;" d="M521 1444h193q0 -88 -18 -157.5t-64.5 -117.5t-118.5 -48q-36 0 -64 11t-73 40q-39 29 -73 23q-42 -7 -42 -74h-194q0 65 10.5 120.5t33 102t63 73.5t94.5 27q37 0 65 -11.5t73 -40.5q41 -29 77 -20q38 8 38 72z" />
<glyph unicode="&#x2dd;" horiz-adv-x="1021" d="M248 1472h269l-199 -351h-183zM576 1472h268l-198 -351h-183z" />
<glyph unicode="&#x326;" horiz-adv-x="0" d="M117 -79h264v-258l-94 -266h-103l45 266h-112v258z" />
<glyph unicode="&#x394;" horiz-adv-x="909" d="M868 328v-328h-827v326l207 1108h412zM341 313h228l-114 761z" />
<glyph unicode="&#x3a9;" horiz-adv-x="1015" d="M84 612v344q0 110 24.5 197t64.5 142t96 91t114 51t123 15q52 0 101.5 -10.5t98 -33t88.5 -62t71 -92.5t48.5 -129.5t17.5 -168.5v-344q0 -194 -93 -300h129v-312h-428v312q34 44 48 115.5t14 187.5v330q3 195 -95 195q-50 0 -70.5 -47.5t-20.5 -147.5v-330 q0 -117 13.5 -188t47.5 -115v-312h-426v312h130q-96 110 -96 300z" />
<glyph unicode="&#x3bc;" horiz-adv-x="872" d="M469 1024h269v-611q0 -101 23 -144.5t83 -44.5v-241h-22q-110 2 -179 71q-57 -72 -159 -72q-100 0 -163 60v-376h-268v1358h268v-622q1 -101 18 -139.5t57 -38.5q44 0 58.5 51t14.5 203v546z" />
<glyph unicode="&#x3c0;" horiz-adv-x="950" d="M31 1024h888v-244h-106v-367q1 -102 24 -145t82 -44v-241h-79q-58 0 -108 18.5t-93.5 58.5t-68.5 112t-25 171v437h-140v-780h-269v780h-105v244z" />
<glyph unicode="&#x410;" horiz-adv-x="1024" d="M659 0l-47 278h-199l-48 -278h-321l261 1434h412l263 -1434h-321zM446 599h130l-64 475z" />
<glyph unicode="&#x411;" horiz-adv-x="915" d="M59 1436h734v-312h-413v-241h58q447 -17 447 -440v-19q-3 -202 -110.5 -311.5t-352.5 -114.5h-363v1438zM455 552h-75v-224h75q53 0 83 26t33 72l2 15q0 52 -31 81.5t-87 29.5z" />
<glyph unicode="&#x412;" horiz-adv-x="915" d="M59 1436h391q78 0 148.5 -19t130 -57.5t95 -106t35.5 -156.5v-93q0 -177 -140 -265q166 -92 166 -301v-77q0 -174 -115 -268.5t-315 -94.5h-396v1438zM547 995v11q0 61 -29.5 89.5t-73.5 28.5h-65v-247h65q43 0 73 28.5t30 89.5zM558 440v11q0 66 -31 98.5t-81 32.5h-67 v-273h67q50 0 81 32t31 99z" />
<glyph unicode="&#x413;" horiz-adv-x="837" d="M793 1434v-313h-413v-1121h-321v1434h734z" />
<glyph unicode="&#x414;" horiz-adv-x="1138" d="M1012 313h98v-559h-321v246h-438v-246h-322v559h43q128 15 128 194v927h812v-1121zM483 313h208v808h-170v-628q0 -102 -38 -180z" />
<glyph unicode="&#x415;" horiz-adv-x="708" d="M679 1122h-299v-245h279v-311h-279v-254h299v-312h-620v1434h620v-312z" />
<glyph unicode="&#x416;" horiz-adv-x="1536" d="M1493 0h-341l-218 458v-458h-332v457l-218 -457h-340l312 722l-297 712h340l203 -439v439h332v-440l204 440h340l-297 -712z" />
<glyph unicode="&#x417;" horiz-adv-x="903" d="M445 1452h35q58 -3 110 -17t103 -45.5t88 -78t61.5 -120.5t27.5 -167v-33q0 -95 -36 -169.5t-85 -99.5q52 -25 88 -101t36 -172v-23q-3 -119 -37.5 -207t-92.5 -136.5t-124 -72t-144 -26.5h-29q-79 0 -148 24.5t-130 76.5t-98 148t-40 227l-1 11h321q10 -176 98 -176h10 q41 4 63 42t22 89v6q0 137 -134 137h-112v305h112q131 0 131 133v6q0 49 -22.5 86t-59.5 41h-10q-86 0 -97 -172h-321l1 11q2 104 27.5 187t65.5 135.5t94 87t109.5 49t117.5 14.5z" />
<glyph unicode="&#x418;" horiz-adv-x="1017" d="M647 1434h316v-1434h-322v759l-270 -759h-316v1434h321v-759z" />
<glyph unicode="&#x419;" horiz-adv-x="1017" d="M576 1825h224q-3 -117 -87 -199t-202 -82t-202 82t-87 199h224q3 -24 21.5 -40.5t43.5 -16.5t43.5 16.5t21.5 40.5zM647 1434h316v-1434h-321v759l-271 -759h-316v1434h321v-759z" />
<glyph unicode="&#x41a;" horiz-adv-x="993" d="M950 0h-340l-219 458v-458h-332v1434h332v-440l204 440h340l-297 -712z" />
<glyph unicode="&#x41b;" horiz-adv-x="1052" d="M182 1434h812v-1434h-320v1121h-171v-642q0 -110 -24 -196.5t-63 -141.5t-93.5 -91t-110.5 -51t-119 -15h-62v311q151 0 151 198v941z" />
<glyph unicode="&#x41c;" horiz-adv-x="1261" d="M805 1434h397v-1434h-320v695l-157 -695h-192l-157 695v-695h-321v1434h398l176 -891z" />
<glyph unicode="&#x41d;" horiz-adv-x="933" d="M554 1434h321v-1434h-321v566h-174v-566h-321v1434h321v-557h174v557z" />
<glyph unicode="&#x41e;" horiz-adv-x="954" d="M54 479v477q0 110 24.5 197t64.5 142t96 91t114 51t123 15q52 0 101.5 -10.5t98 -33t88.5 -62t71 -92.5t48.5 -129.5t17.5 -168.5v-477q0 -110 -25 -197t-66 -142t-97.5 -91t-114.5 -50.5t-122 -14.5q-82 0 -153.5 25t-133.5 79.5t-98.5 154.5t-36.5 236zM571 493v452 q0 195 -95 195q-50 0 -71.5 -48t-21.5 -147v-452q0 -100 21.5 -149t71.5 -49q95 0 95 198z" />
<glyph unicode="&#x41f;" horiz-adv-x="933" d="M59 1434h816v-1434h-321v1121h-174v-1121h-321v1434z" />
<glyph unicode="&#x420;" horiz-adv-x="917" d="M59 1433h334q71 0 135.5 -11.5t127 -40.5t108 -74t73.5 -117t28 -163v-99q0 -85 -25 -153t-66 -113t-98 -76t-117.5 -45.5t-127.5 -18.5h-51v-522h-321v1433zM553 969v17q0 71 -31 104t-78 33h-64v-291h64q46 0 77.5 33t31.5 104z" />
<glyph unicode="&#x421;" horiz-adv-x="921" d="M55 479v477q0 110 24.5 197t65 142t96.5 91t114 51t123 15q63 0 120 -14.5t111.5 -50t94 -90t63.5 -140.5t25 -195v-47h-321v39q-2 93 -24 139.5t-69 46.5q-50 0 -71.5 -48t-21.5 -147v-452q0 -100 21.5 -149t71.5 -49q47 0 69 47t24 142v38h321v-48q-1 -109 -25 -195 t-63.5 -140.5t-94 -90t-111.5 -50t-120 -14.5q-82 0 -153.5 25t-134 79.5t-99 154.5t-36.5 236z" />
<glyph unicode="&#x422;" horiz-adv-x="843" d="M800 1434v-312h-217v-1122h-321v1122h-218v312h756z" />
<glyph unicode="&#x423;" horiz-adv-x="1075" d="M697 1434h334l-327 -893v-541h-332v540l-328 894h334l160 -525z" />
<glyph unicode="&#x424;" horiz-adv-x="1378" d="M851 1436v-146l37 -1q438 -20 438 -445v-9q0 -425 -438 -444l-37 1v-392h-321v392l-39 -1q-230 12 -333.5 125t-103.5 319v9q0 425 437 445l39 1v146h321zM1014 836v7q0 58 -31 86.5t-84 28.5h-48v-236h48q52 0 83 28.5t32 85.5zM530 722v237h-49q-53 0 -84 -29t-31 -87 v-7q1 -57 31.5 -85.5t83.5 -28.5h49z" />
<glyph unicode="&#x425;" horiz-adv-x="1052" d="M992 1434l-252 -695l268 -739h-332l-149 429l-150 -429h-333l265 738l-246 696h333l131 -408l132 408h333z" />
<glyph unicode="&#x426;" horiz-adv-x="1005" d="M875 313h100v-553h-321v240h-595v1434h321v-1121h174v1121h321v-1121z" />
<glyph unicode="&#x427;" horiz-adv-x="911" d="M539 1434h322v-1434h-322v480q-62 -61 -172 -61q-324 0 -324 360v655h322v-428q0 -149 18 -198.5t68 -49.5q48 0 67.5 40t20.5 153v483z" />
<glyph unicode="&#x428;" horiz-adv-x="1429" d="M1049 1434h321v-1434h-1311v1434h321v-1121h174v1121h321v-1121h174v1121z" />
<glyph unicode="&#x429;" horiz-adv-x="1499" d="M1370 313h100v-553h-321v240h-1090v1434h321v-1121h174v1121h321v-1121h174v1121h321v-1121z" />
<glyph unicode="&#x42a;" horiz-adv-x="1009" d="M466 883h51q119 -5 205 -37.5t136.5 -90.5t74 -133.5t24.5 -174.5v-9q0 -440 -486 -440h-326v1125h-110v313h431v-553zM645 438v4q0 51 -31 81t-87 30h-61v-224h61q57 0 87.5 29t30.5 80z" />
<glyph unicode="&#x42b;" horiz-adv-x="1359" d="M380 1436v-553h51q120 -6 205.5 -38.5t136 -90t74 -133t24.5 -174.5v-9q0 -440 -486 -440h-326v1438h321zM968 1434h332v-1434h-332v1434zM380 329h61q57 0 87.5 28.5t30.5 80.5v4q0 52 -31 81.5t-87 29.5h-61v-224z" />
<glyph unicode="&#x42c;" horiz-adv-x="925" d="M380 1436v-553h51q120 -6 205.5 -38.5t136 -90t74 -133t24.5 -174.5v-9q0 -440 -486 -440h-326v1438h321zM380 329h61q57 0 87.5 28.5t30.5 80.5v4q0 52 -31 81.5t-87 29.5h-61v-224z" />
<glyph unicode="&#x42d;" horiz-adv-x="921" d="M29 950v11q1 109 25 195.5t64 141t94.5 90t111.5 50t120 14.5q65 0 123 -15t114 -51t96 -91t64.5 -142t24.5 -197v-477q0 -136 -36.5 -236t-98.5 -154.5t-133.5 -79.5t-153.5 -25q-63 0 -120 14.5t-111.5 50t-94.5 90t-64 141t-25 195.5v12h321q3 -192 94 -192 q50 0 71.5 49t21.5 149v70h-245v313h245v69q0 99 -21.5 147t-71.5 48q-91 0 -94 -190h-321z" />
<glyph unicode="&#x42e;" horiz-adv-x="1398" d="M498 875v81q0 110 24.5 197t64.5 142t96 91t114 51t123 15q52 0 101.5 -10.5t98 -33t88.5 -62t71 -92.5t48.5 -129.5t17.5 -168.5v-477q0 -110 -25 -197t-66 -142t-97.5 -91t-114.5 -50.5t-122 -14.5q-82 0 -153.5 25t-133.5 79.5t-98.5 154.5t-36.5 236v83h-118v-562 h-321v1434h321v-559h118zM1015 493v452q0 195 -95 195q-50 0 -71.5 -48t-21.5 -147v-452q0 -100 21.5 -149t71.5 -49q95 0 95 198z" />
<glyph unicode="&#x42f;" horiz-adv-x="944" d="M549 1436h336v-1436h-321v529h-57l-124 -529h-339l179 630q-147 102 -147 303v97q0 92 28 164t73.5 116.5t108.5 73.5t127.5 40.5t135.5 11.5zM564 838v288h-66q-47 0 -78 -33t-31 -104v-14q0 -71 31.5 -104t77.5 -33h66z" />
<glyph unicode="&#x430;" d="M547 1024h184v-1024h-184l-35 75q-70 -91 -203 -91q-49 0 -93 18.5t-83.5 57.5t-63 112.5t-23.5 171.5v338q0 98 23.5 171.5t63 112.5t83.5 57.5t93 18.5q132 0 201 -88zM315 547v-68q2 -154 15.5 -203.5t59.5 -49.5q31 0 46 22.5t20.5 75t4.5 155.5v68q0 102 -7 155.5 t-22 75.5t-44 22q-44 0 -58.5 -51t-14.5 -202z" />
<glyph unicode="&#x431;" d="M52 344v748q0 98 31 170.5t82 112t108 58t120 18.5q48 0 92 -10t87.5 -34.5t76 -61.5t53.5 -96t23 -133l1 -22h-263q-6 64 -22 89.5t-47 25.5q-38 0 -55 -31.5t-18 -111.5v-74q49 43 124 43q41 0 80.5 -10t78.5 -36t67.5 -65.5t46.5 -101.5t18 -140v-338q0 -99 -31 -172 t-83 -112.5t-109 -57.5t-120 -18q-49 0 -95.5 11t-91.5 37.5t-78.5 66.5t-54.5 103t-21 142zM467 479v68q0 149 -15.5 201t-57.5 52q-44 0 -58.5 -51.5t-14.5 -201.5v-68q2 -154 15.5 -203.5t59.5 -49.5q44 0 58.5 51.5t12.5 201.5z" />
<glyph unicode="&#x432;" horiz-adv-x="761" d="M53 1027h294q79 0 142 -19t103 -50t66.5 -73t37 -85.5t10.5 -90.5q0 -104 -60 -172q84 -83 84 -217q0 -64 -18.5 -118.5t-58.5 -102t-113 -74.5t-172 -27h-315v1029zM323 642h27q44 2 65 16.5t21 47.5q0 35 -18.5 50.5t-67.5 18.5h-27v-133zM323 241h27q63 3 88 20t25 59 t-24.5 58t-88.5 19h-27v-156z" />
<glyph unicode="&#x433;" horiz-adv-x="659" d="M622 1024v-243h-300v-781h-269v1024h569z" />
<glyph unicode="&#x434;" horiz-adv-x="952" d="M170 1024h678v-782h74v-455h-270v213h-352v-213h-269v456h49q54 5 72.5 47t17.5 138v596zM579 242v539h-139v-422q0 -66 -22 -117h161z" />
<glyph unicode="&#x435;" horiz-adv-x="774" d="M46 344v338q0 79 20.5 142.5t54 103t79 66t92 37.5t95.5 11q63 0 120 -18t108.5 -57.5t82.5 -112.5t31 -172v-262h-413v-32q0 -92 16.5 -126.5t57.5 -35.5q34 0 52 26.5t20 89.5h268q0 -79 -21 -142.5t-55 -103t-79.5 -65.5t-91.5 -36.5t-96 -10.5q-49 0 -95.5 11 t-92 37.5t-79 66t-54 103t-20.5 142.5zM460 617v42q-1 77 -19 108.5t-53 32.5q-38 -1 -55 -31.5t-18 -109.5v-42h145z" />
<glyph unicode="&#x436;" horiz-adv-x="1226" d="M1164 0h-277l-144 384v-384h-269v385l-144 -385h-276l179 527l-167 497h276l132 -352v352h269v-351l132 351h276l-167 -497z" />
<glyph unicode="&#x437;" horiz-adv-x="743" d="M368 1042h18q310 -6 310 -308q0 -73 -39 -133t-121 -77q89 -15 134 -83.5t45 -176.5q0 -58 -19 -105t-51 -78.5t-75 -53.5t-89 -32t-95 -11h-18q-48 0 -93 10.5t-89.5 35.5t-77.5 63t-53.5 98.5t-20.5 136.5h262q3 -101 74 -101h5q40 0 58 22.5t17 69.5q1 41 -26.5 58 t-65.5 17h-90v243h81q50 2 74 15t24 57q-1 46 -17.5 69t-54.5 23h-4q-69 0 -73 -104h-263q0 76 20.5 136.5t53 98.5t77 63.5t89.5 36t93 10.5z" />
<glyph unicode="&#x438;" horiz-adv-x="804" d="M485 1024h270v-1024h-270v458l-162 -458h-270v1024h269v-455z" />
<glyph unicode="&#x439;" horiz-adv-x="804" d="M468 1434h224q-3 -117 -87 -199t-202 -82t-202 82t-87 199h224q3 -24 21.5 -40.5t43.5 -16.5t43.5 16.5t21.5 40.5zM485 1024h270v-1024h-270v458l-163 -458h-269v1024h269v-456z" />
<glyph unicode="&#x43a;" d="M744 0h-276l-144 384v-384h-269v1024h269v-351l132 351h276l-167 -497z" />
<glyph unicode="&#x43b;" horiz-adv-x="866" d="M136 1024h678v-1024h-269v781h-139v-438q0 -99 -25 -171t-68.5 -112t-94 -58.5t-108.5 -18.5h-78v241q59 1 81.5 44.5t22.5 144.5v611z" />
<glyph unicode="&#x43c;" horiz-adv-x="952" d="M613 1024h287v-1024h-243v449l-124 -449h-116l-121 450v-450h-243v1024h287l136 -577z" />
<glyph unicode="&#x43d;" horiz-adv-x="788" d="M468 1024h269v-1024h-269v406h-146v-406h-269v1024h269v-375h146v375z" />
<glyph unicode="&#x43e;" horiz-adv-x="776" d="M46 344v338q0 79 20.5 142.5t54 103t79 66t92 37.5t95.5 11q63 0 120 -18t109 -57.5t83 -112.5t31 -172v-338q0 -99 -31 -172t-83 -112.5t-109 -57.5t-120 -18q-49 0 -95.5 11t-92 37.5t-79 66t-54 103t-20.5 142.5zM461 479v68q0 149 -15.5 201t-57.5 52 q-44 0 -58.5 -51t-14.5 -202v-68q2 -154 15.5 -203.5t59.5 -49.5q44 0 58.5 51.5t12.5 201.5z" />
<glyph unicode="&#x43f;" horiz-adv-x="788" d="M53 1024h684v-1024h-269v781h-146v-781h-269v1024z" />
<glyph unicode="&#x440;" horiz-adv-x="784" d="M239 1025l37 -78q74 95 209 95q48 0 91 -18.5t81 -58t60 -112.5t22 -172v-337q0 -99 -22 -172t-60 -112.5t-81 -58t-91 -18.5q-100 0 -163 57v-374h-268v1359h185zM470 479v67q-2 154 -15.5 203.5t-59.5 49.5q-31 0 -46 -22.5t-20.5 -75t-4.5 -155.5v-67q0 -102 7 -155.5 t22 -75.5t44 -22q44 0 58.5 51t14.5 202z" />
<glyph unicode="&#x441;" horiz-adv-x="765" d="M46 344v338q0 79 20.5 142.5t54 103t79 66t92 37.5t95.5 11t95 -10.5t90.5 -36.5t77 -65.5t53 -102.5t20.5 -142v-56h-262q-1 96 -18.5 133.5t-54.5 37.5q-44 0 -58.5 -51t-14.5 -202v-68q2 -154 15.5 -203.5t59.5 -49.5q39 0 55.5 37t16.5 134h261v-56q0 -79 -20.5 -142 t-53 -102.5t-77 -65.5t-90.5 -36.5t-95 -10.5t-95.5 11t-92 37.5t-79 66t-54 103t-20.5 142.5z" />
<glyph unicode="&#x442;" horiz-adv-x="751" d="M40 1024h673v-243h-202v-781h-269v781h-202v243z" />
<glyph unicode="&#x443;" horiz-adv-x="763" d="M456 1026h268v-1023q0 -78 -21 -140.5t-54 -102t-78 -65.5t-91 -36.5t-95 -10.5q-56 0 -108.5 14.5t-101.5 46t-83 89t-44 135.5h272q14 -42 62 -42q38 0 55.5 28.5t17.5 98.5l1 39q-61 -57 -163 -57q-48 0 -91 18.5t-80.5 58t-59.5 112t-22 171.5v664h269v-528 q0 -152 14 -203t58 -51q42 0 58 52t17 202v530z" />
<glyph unicode="&#x444;" horiz-adv-x="1191" d="M461 1434h269v-449q61 57 163 57q48 0 91 -18.5t80.5 -58t59.5 -112.5t22 -172v-337q0 -99 -22 -172t-59.5 -112.5t-80.5 -58t-91 -18.5q-100 0 -163 57v-374h-269v373q-62 -56 -161 -56q-48 0 -91 18.5t-81 58t-60 112.5t-22 172v337q0 99 22 172t60 112.5t81 58 t91 18.5q100 0 161 -57v449zM461 479v67q1 151 -13 201.5t-58 51.5q-47 1 -60 -48.5t-15 -204.5v-67q0 -151 14.5 -202t58.5 -51q29 0 44 22t22 75.5t7 155.5zM877 479v67q-2 155 -15 204t-59 49q-45 0 -59.5 -51.5t-12.5 -201.5v-67q0 -102 7 -155.5t22 -75.5t44 -22 q44 0 58.5 51t14.5 202z" />
<glyph unicode="&#x445;" horiz-adv-x="856" d="M807 1024l-164 -499l175 -525h-276l-113 308l-113 -308h-276l176 525l-164 499h277l101 -360l100 360h277z" />
<glyph unicode="&#x446;" horiz-adv-x="843" d="M737 242h76v-449h-270v207h-490v1024h269v-781h146v781h269v-782z" />
<glyph unicode="&#x447;" horiz-adv-x="784" d="M464 1024h268v-1023h-268v335q-61 -60 -163 -60q-48 0 -91 18.5t-80.5 58t-59.5 112t-22 171.5v388h269v-252q0 -152 14.5 -203t58.5 -51q39 0 56 38.5t18 140.5v327z" />
<glyph unicode="&#x448;" horiz-adv-x="1202" d="M882 1024h269v-1024h-1098v1024h269v-781h146v781h269v-781h145v781z" />
<glyph unicode="&#x449;" horiz-adv-x="1257" d="M1152 242h76v-449h-270v207h-905v1024h269v-781h146v781h270v-781h145v781h269v-782z" />
<glyph unicode="&#x44a;" horiz-adv-x="827" d="M391 655h44q99 0 171.5 -24t113 -67t59.5 -94.5t19 -112.5v-63q-1 -132 -90.5 -214t-272.5 -82h-314v783h-90v243h360v-369zM528 317v5q0 43 -23.5 61.5t-85.5 19.5h-28v-162h28q59 2 83.5 18.5t25.5 57.5z" />
<glyph unicode="&#x44b;" horiz-adv-x="1161" d="M53 1024h269v-369h44q99 0 171.5 -24t113 -67t59 -94.5t18.5 -112.5v-64q-1 -131 -90 -213t-273 -82h-312v1026zM838 0v1024h270v-1024h-270zM460 317v5q0 43 -24 61.5t-86 19.5h-28v-162h28q59 2 84 18.5t26 57.5z" />
<glyph unicode="&#x44c;" horiz-adv-x="757" d="M53 1024h269v-369h44q99 0 171.5 -24t113 -67t59 -94.5t18.5 -112.5v-64q-1 -131 -90 -213t-273 -82h-312v1026zM460 317v5q0 43 -24 61.5t-86 19.5h-28v-162h28q59 2 84 18.5t26 57.5z" />
<glyph unicode="&#x44d;" horiz-adv-x="765" d="M307 682h-263q0 99 30 172t80.5 112.5t106.5 57.5t119 18q49 0 95.5 -11t92 -37.5t79 -66t54 -103t20.5 -142.5v-338q0 -79 -20.5 -142.5t-54 -103t-79 -66t-92 -37.5t-95.5 -11q-63 0 -119 18t-106.5 57.5t-80.5 112.5t-30 172h261q1 -65 19 -91.5t53 -26.5 q38 1 56 29.5t18 101.5v36h-167v243h168l-1 40q-1 69 -18.5 96t-53.5 28q-33 0 -51 -26.5t-21 -91.5z" />
<glyph unicode="&#x44e;" horiz-adv-x="1155" d="M427 646v36q0 79 20.5 142.5t54 103t79 66t92 37.5t95.5 11q63 0 120 -18t108.5 -57.5t82.5 -112.5t31 -172v-338q0 -99 -31 -172t-82.5 -112.5t-108.5 -57.5t-120 -18q-49 0 -95.5 11t-92 37.5t-79 66t-54 103t-20.5 142.5v60h-105v-404h-269v1024h269v-378h105z M841 479v68q0 149 -15.5 201t-57.5 52q-44 0 -58 -50.5t-14 -202.5v-68q2 -155 15 -204t59 -49q44 0 58.5 51.5t12.5 201.5z" />
<glyph unicode="&#x44f;" horiz-adv-x="759" d="M391 1027h316v-1027h-271v373l-43 -26l-92 -347h-270l114 443q-113 73 -113 224v63q0 131 87.5 214t271.5 83zM399 625h38v158h-36q-56 -3 -77.5 -21t-22.5 -60q1 -41 21.5 -58.5t76.5 -18.5z" />
<glyph unicode="&#x1e80;" horiz-adv-x="1550" d="M573 1885h293l113 -351h-207zM1182 1434h324l-247 -1434h-380l-105 642l-105 -642h-380l-245 1434h324l133 -906l125 906h298l125 -906z" />
<glyph unicode="&#x1e81;" horiz-adv-x="1243" d="M419 1475h292l113 -350h-206zM936 1024h269l-179 -1024h-329l-75 496l-74 -496h-328l-180 1024h269l96 -670l105 670h225l105 -670z" />
<glyph unicode="&#x1e82;" horiz-adv-x="1550" d="M686 1882h293l-199 -351h-207zM1182 1434h324l-247 -1434h-380l-105 642l-105 -642h-380l-245 1434h324l133 -906l125 906h298l125 -906z" />
<glyph unicode="&#x1e83;" horiz-adv-x="1243" d="M532 1472h293l-199 -351h-207zM936 1024h269l-179 -1024h-329l-75 496l-74 -496h-328l-180 1024h269l96 -670l105 670h225l105 -670z" />
<glyph unicode="&#x1e84;" horiz-adv-x="1550" d="M472 1843h264v-259h-264v259zM817 1843h264v-259h-264v259zM1182 1434h324l-247 -1434h-380l-105 642l-105 -642h-380l-245 1434h324l133 -906l125 906h298l125 -906z" />
<glyph unicode="&#x1e85;" horiz-adv-x="1243" d="M317 1434h264v-260h-264v260zM663 1434h264v-260h-264v260zM936 1024h269l-179 -1024h-329l-75 496l-74 -496h-328l-180 1024h269l96 -670l105 670h225l105 -670z" />
<glyph unicode="&#x1ef2;" horiz-adv-x="1071" d="M333 1885h293l113 -351h-207zM695 1434h333l-326 -891v-543h-333v542l-325 892h333l159 -523z" />
<glyph unicode="&#x1ef3;" horiz-adv-x="763" d="M180 1475h292l113 -350h-207zM456 1025h268v-1022q0 -78 -21 -140.5t-54 -102t-78 -65.5t-91 -36.5t-95 -10.5q-56 0 -108.5 14.5t-101.5 46t-83 89t-44 135.5h272q14 -42 62 -42q38 0 55.5 28.5t17.5 99.5l1 38q-61 -57 -163 -57q-48 0 -91 18.5t-80.5 58t-59.5 112 t-22 171.5v664h269v-528q0 -152 14 -203t58 -51q42 0 58 52t17 202v529z" />
<glyph unicode="&#x2000;" horiz-adv-x="1104" />
<glyph unicode="&#x2001;" horiz-adv-x="2209" />
<glyph unicode="&#x2002;" horiz-adv-x="1104" />
<glyph unicode="&#x2003;" horiz-adv-x="2209" />
<glyph unicode="&#x2004;" horiz-adv-x="736" />
<glyph unicode="&#x2005;" horiz-adv-x="552" />
<glyph unicode="&#x2006;" horiz-adv-x="368" />
<glyph unicode="&#x2007;" horiz-adv-x="368" />
<glyph unicode="&#x2008;" horiz-adv-x="276" />
<glyph unicode="&#x2009;" horiz-adv-x="441" />
<glyph unicode="&#x200a;" horiz-adv-x="122" />
<glyph unicode="&#x2010;" horiz-adv-x="712" d="M102 705h508v-313h-508v313z" />
<glyph unicode="&#x2011;" horiz-adv-x="712" d="M102 705h508v-313h-508v313z" />
<glyph unicode="&#x2012;" horiz-adv-x="712" d="M102 705h508v-313h-508v313z" />
<glyph unicode="&#x2013;" horiz-adv-x="966" d="M102 705h762v-313h-762v313z" />
<glyph unicode="&#x2014;" horiz-adv-x="1310" d="M102 705h1106v-313h-1106v313z" />
<glyph unicode="&#x2018;" horiz-adv-x="493" d="M269 1142h123v-285h-290v285l103 292h114z" />
<glyph unicode="&#x2019;" horiz-adv-x="493" d="M102 1434h290v-285l-103 -292h-113l49 292h-123v285z" />
<glyph unicode="&#x201a;" horiz-adv-x="493" d="M102 285h290v-285l-103 -292h-113l49 292h-123v285z" />
<glyph unicode="&#x201c;" horiz-adv-x="933" d="M319 1434l-50 -292h123v-285h-290v285l103 292h114zM709 1142h123v-285h-289v285l103 292h113z" />
<glyph unicode="&#x201d;" horiz-adv-x="933" d="M102 1149v285h290v-285l-103 -292h-113l49 292h-123zM543 1434h289v-285l-103 -292h-113l50 292h-123v285z" />
<glyph unicode="&#x201e;" horiz-adv-x="493" d="M102 285h290v-285l-103 -292h-113l49 292h-123v285z" />
<glyph unicode="&#x2020;" horiz-adv-x="897" d="M282 1434h332v-410h180v-313h-180v-834h-332v834h-180v313h180v410z" />
<glyph unicode="&#x2021;" horiz-adv-x="897" d="M282 1434h332v-410h180v-313h-180v-241h180v-313h-180v-280h-332v280h-180v313h180v241h-180v313h180v410z" />
<glyph unicode="&#x2022;" horiz-adv-x="823" d="M411 959q151 0 258 -107t107 -258q0 -152 -107 -258.5t-258 -106.5t-258 106.5t-107 258.5q0 151 107 258t258 107z" />
<glyph unicode="&#x2026;" horiz-adv-x="1200" d="M102 0v285h290v-285h-290zM455 0v285h290v-285h-290zM809 0v285h289v-285h-289z" />
<glyph unicode="&#x202f;" horiz-adv-x="441" />
<glyph unicode="&#x2030;" horiz-adv-x="2097" d="M102 881v316q0 57 18.5 102.5t46.5 72.5t64 45t68 25t61 7q40 0 82 -13t83 -40.5t67 -79t26 -119.5v-316q0 -68 -26 -119t-67 -78.5t-82.5 -41t-82.5 -14.5q-29 0 -61 7t-68 25t-64 45.5t-46.5 73t-18.5 102.5zM946 1434h217l-597 -1434h-216zM423 873v332q0 31 -19.5 46 t-43.5 15q-22 0 -42.5 -15t-20.5 -46v-332q0 -31 20.5 -46t42.5 -15q24 1 43.5 16t19.5 45zM1482 238v316q0 57 18.5 102.5t46.5 72.5t64 45t67.5 25t60.5 7q40 0 82 -13t83 -40.5t67 -79t26 -119.5v-316q0 -68 -26 -119t-67 -78.5t-82.5 -40.5t-82.5 -14q-29 0 -60.5 7 t-67.5 25t-64 45t-46.5 72.5t-18.5 102.5zM896 238v316q0 57 18.5 102.5t46.5 72.5t64 45t67.5 25t60.5 7q40 0 82 -13t83 -40.5t67 -79t26 -119.5v-316q0 -68 -26 -119t-67 -78.5t-82.5 -40.5t-82.5 -14q-29 0 -60.5 7t-67.5 25t-64 45t-46.5 72.5t-18.5 102.5zM1803 230 v332q0 31 -20 46t-44 15q-22 0 -42.5 -15t-20.5 -46v-332q0 -32 20.5 -47t42.5 -15q24 1 44 16.5t20 45.5zM1216 230v332q0 31 -19.5 46t-43.5 15q-22 0 -42.5 -15t-20.5 -46v-332q0 -32 20.5 -47t42.5 -15q24 1 43.5 16t19.5 46z" />
<glyph unicode="&#x2039;" horiz-adv-x="534" d="M103 689l330 301v-315l-159 -143l159 -142v-315l-330 299v315z" />
<glyph unicode="&#x203a;" horiz-adv-x="534" d="M102 675v315l330 -301v-314l-330 -300v315l159 142z" />
<glyph unicode="&#x2044;" horiz-adv-x="874" d="M32 0l567 1434h243l-567 -1434h-243z" />
<glyph unicode="&#x205f;" horiz-adv-x="552" />
<glyph unicode="&#x20ac;" horiz-adv-x="1017" d="M149 869v87q0 110 24.5 197t64.5 142t96 91t114 51t123 15q63 0 120 -14.5t111.5 -50t94 -89.5t63.5 -140t25 -195v-48h-320l-1 39q-2 93 -24 139.5t-69 46.5q-50 0 -71.5 -48t-21.5 -147v-76h393l-126 -125h-267v-53h214l-126 -126h-88v-72q0 -100 21.5 -149t71.5 -49 q47 0 69.5 47t24.5 142v38h320v-48q-1 -109 -25 -195t-63.5 -140.5t-94 -90t-111.5 -50t-120 -14.5q-82 0 -153.5 25t-133.5 79.5t-98.5 154.5t-36.5 236v86h-104v126h104v53h-104v125h104z" />
<glyph unicode="&#x2122;" horiz-adv-x="1392" d="M31 1221v213h486v-213h-127v-617h-233v617h-126zM1061 1434h302v-830h-234v386l-94 -336h-149l-97 336v-386h-234v830h302l102 -380z" />
<glyph unicode="&#x2202;" horiz-adv-x="1228" />
<glyph unicode="&#x2205;" horiz-adv-x="1265" d="M1165 818l-66 -66q60 -111 60 -239q0 -144 -71 -265.5t-192.5 -192.5t-265.5 -71q-123 0 -235 63l-65 -65l-221 221l61 62q-69 114 -69 248q0 144 71 266t192.5 193t265.5 71q135 0 250 -66l63 63zM630 240q117 0 192.5 80t75.5 193q0 114 -75.5 194t-192.5 80 t-192.5 -80t-75.5 -194q0 -113 75.5 -193t192.5 -80z" />
<glyph unicode="&#x220f;" horiz-adv-x="1228" />
<glyph unicode="&#x2211;" horiz-adv-x="1228" />
<glyph unicode="&#x2212;" horiz-adv-x="1181" d="M102 845h978v-313h-978v313z" />
<glyph unicode="&#x221a;" horiz-adv-x="1228" />
<glyph unicode="&#x221e;" horiz-adv-x="1228" />
<glyph unicode="&#x222b;" horiz-adv-x="786" d="M504 1449h180v-312h-43q-50 -1 -66.5 -37.5t-15.5 -120.5v-932q0 -89 -23 -155.5t-63.5 -103t-88 -54t-102.5 -17.5h-180v313h44q50 0 66.5 36.5t15.5 121.5v929q0 89 23 155.5t63 104t87.5 55t102.5 17.5z" />
<glyph unicode="&#x2248;" horiz-adv-x="1091" d="M758 921h232q0 -108 -24.5 -193t-83.5 -140.5t-146 -55.5q-18 0 -35.5 2.5t-29.5 5t-32 10t-30 12t-39.5 17.5t-43.5 19q-75 36 -123 26q-32 -4 -49.5 -28t-17.5 -63h-233q0 81 14.5 149.5t44.5 124.5t81 87.5t118 31.5q32 0 63 -7.5t53.5 -16t78.5 -32.5q96 -47 143 -37 q57 10 59 88zM758 478h232q0 -80 -14.5 -148t-44 -123t-79.5 -86t-116 -31q-18 0 -35.5 2.5t-29 4.5t-33 10t-30.5 12t-39.5 17.5t-43.5 19.5q-77 35 -126 25q-63 -11 -63 -90h-233q0 81 14.5 149.5t44.5 124.5t81 87.5t118 31.5q10 0 19.5 -0.5t17 -1.5t18 -3.5t16 -3.5 t18 -5.5t17.5 -6t20 -7.5l20 -8t24 -10t25 -11q96 -45 144 -35q56 10 58 86z" />
<glyph unicode="&#x2260;" horiz-adv-x="1077" d="M1027 567h-305l-25 -77h330v-313h-431l-122 -373h-337l121 373h-208v313h310l25 77h-335v312h436l117 358h337l-116 -358h203v-312z" />
<glyph unicode="&#x2264;" horiz-adv-x="1144" d="M102 778l942 415v-314l-372 -143l372 -142v-314l-942 413v85zM103 209h941v-312h-941v312z" />
<glyph unicode="&#x2265;" horiz-adv-x="1144" d="M102 879v314l941 -415v-85l-941 -413v314l372 142zM102 209h941v-312h-941v312z" />
<glyph unicode="&#x25ca;" horiz-adv-x="1228" />
<glyph unicode="&#x25fc;" horiz-adv-x="1024" d="M0 1024h1024v-1024h-1024v1024z" />
<glyph horiz-adv-x="890" d="M499 1434h334l-148 -646q51 -27 76 -53t44 -70q41 -106 41 -276v-389h-323v431q0 78 -31 112q-29 32 -88 32h-44v-575h-319v1434h321v-566z" />
<glyph horiz-adv-x="917" d="M59 0v1436h323q251 0 367 -111.5t116 -326.5v-13q-3 -201 -107 -305q40 -31 64 -72q51 -90 51 -239v-369h-322v422q0 68 -29 100q-28 32 -91 32h-53v-554h-319zM438 1105h-58v-220h58q50 0 81 26.5t32 76.5v9q0 52 -30 79t-83 29z" />
<glyph horiz-adv-x="495" d="M350 1452h103v-242h-28q-61 0 -81.5 -35t-20.5 -131v-20h130v-242h-131v-782h-269v1091q0 102 24 175t67 112t93.5 56.5t112.5 17.5z" />
<glyph horiz-adv-x="770" d="M430 1024h276l-110 -447q56 -29 88 -80q47 -81 47 -227v-270h-269v312q0 79 -32 107q-28 25 -85 25h-22v-444h-269v1434h270v-853z" />
<glyph horiz-adv-x="495" d="M322 782v-366q0 -110 20 -149.5t84 -40.5h27v-242h-102q-62 0 -113 17.5t-94 56.5t-67 112t-24 175v992h269v-313h131v-242h-131z" />
<glyph horiz-adv-x="917" d="M536 1436h323v-1436h-320v554h-52q-66 0 -94 -35q-26 -32 -26 -97v-422h-323v370q0 129 42 216q26 53 74 93q-105 105 -108 306v13q0 215 116.5 326.5t367.5 111.5zM538 885v220h-58q-52 0 -83 -28t-31 -80v-9q1 -50 32.5 -76.5t81.5 -26.5h58z" />
<glyph horiz-adv-x="1376" d="M1318 1434l-147 -645q47 -26 69 -46.5t41 -55.5q52 -112 52 -298v-389h-325v432q1 88 -39 120q-28 23 -79 23h-41v-575h-321v575h-41q-58 0 -87 -29q-33 -33 -33 -114v-432h-323v389q0 183 48 293q19 37 42 59t72 48l-149 645h334l137 -567v567h321v-567l136 567h333z " />
<glyph horiz-adv-x="759" d="M709 1027v-1027h-270v375h-21q-64 0 -91 -31q-27 -32 -27 -98v-246h-268v204q0 115 30 192q16 44 48 83q-74 67 -74 188v63q0 131 87 214t271 83h315zM441 783h-37q-56 -3 -77.5 -21t-22.5 -60q1 -40 20.5 -57.5t71.5 -19.5h45v158z" />
<glyph horiz-adv-x="770" d="M430 1024h276l-110 -447q61 -32 91 -83q44 -83 44 -224v-270h-269v312q0 81 -35 110q-26 22 -82 22h-22v-444h-269v1024h270v-443z" />
<glyph horiz-adv-x="1163" d="M1099 1024l-110 -447q36 -19 56 -37t36 -47q43 -84 43 -223v-270h-268v313q0 77 -35 107q-27 24 -83 24h-21v-444h-270v444h-21q-60 0 -87 -26q-31 -30 -31 -105v-313h-268v270q0 140 44 222q17 29 36.5 47t54.5 38l-110 447h276l106 -443v443h270v-443l106 443h276z" />
<glyph horiz-adv-x="526" d="M261 695h13q100 -2 164.5 -54t67.5 -164v-8q0 -54 -25 -100t-55.5 -72.5t-70 -60t-56.5 -55.5h201v-181h-469v81q0 53 15.5 97t39.5 73t54 52.5t59.5 42t53.5 36t39.5 38t15.5 44.5q0 23 -11 36.5t-30 15.5h-3q-22 0 -32 -15.5t-13 -50.5h-198v6q1 65 23 113.5t58 74.5 t75.5 38.5t83.5 12.5z" />
<glyph horiz-adv-x="565" d="M119 692h199l-96 -411h89v237h199v-237h35v-180h-35v-101h-199v101h-291v201z" />
<glyph horiz-adv-x="372" d="M55 1434h263v-692h-200v510h-63v182z" />
<glyph horiz-adv-x="585" d="M285 1450l14 -1q225 -4 228 -207v-9q0 -47 -18 -84.5t-42 -49.5q25 -14 42.5 -52.5t18.5 -87.5v-8q-3 -205 -232 -209h-11q-96 0 -161.5 52.5t-67.5 163.5v5h185q3 -36 40 -39h8q16 0 27.5 8.5t13.5 22.5l1 6q1 20 -14.5 32.5t-49.5 13.5h-58v184h58q58 0 61 35l1 6 q0 15 -10.5 25t-29.5 10h-6q-38 0 -42 -38h-185v5q3 106 69 161t160 55z" />
</font>
</defs>
</svg>
